<mxfile host="app.diagrams.net" modified="2022-03-17T09:31:49.851Z" agent="5.0 (Windows)" etag="NiyNYUSqA482I7ncOlxn" version="17.1.2" type="github">
  <diagram id="loxVYNxc_1fKQHMXAI9i" name="Page-1">
    <mxGraphModel dx="1422" dy="752" grid="1" gridSize="10" guides="1" tooltips="1" connect="1" arrows="1" fold="1" page="1" pageScale="1" pageWidth="827" pageHeight="1169" math="0" shadow="0">
      <root>
        <mxCell id="0" />
        <mxCell id="1" parent="0" />
        <mxCell id="WlMpEsrT4QpQGn3PJaZL-2" value="" style="strokeColor=#666666;html=1;labelPosition=right;align=left;spacingLeft=15;shadow=0;dashed=0;outlineConnect=0;shape=mxgraph.rack.general.cat5e_enhanced_patch_panel_48_ports;" vertex="1" parent="1">
          <mxGeometry x="220" y="600" width="340" height="70" as="geometry" />
        </mxCell>
        <mxCell id="WlMpEsrT4QpQGn3PJaZL-3" value="" style="shape=mxgraph.cisco.modems_and_phones.rf_modem;html=1;pointerEvents=1;dashed=0;fillColor=#036897;strokeColor=#ffffff;strokeWidth=2;verticalLabelPosition=bottom;verticalAlign=top;align=center;outlineConnect=0;" vertex="1" parent="1">
          <mxGeometry x="399" y="194.5" width="82" height="42" as="geometry" />
        </mxCell>
        <mxCell id="WlMpEsrT4QpQGn3PJaZL-4" value="" style="shape=mxgraph.cisco.modems_and_phones.modem;html=1;pointerEvents=1;dashed=0;fillColor=#036897;strokeColor=#ffffff;strokeWidth=2;verticalLabelPosition=bottom;verticalAlign=top;align=center;outlineConnect=0;" vertex="1" parent="1">
          <mxGeometry x="179" y="202" width="77" height="27" as="geometry" />
        </mxCell>
        <mxCell id="WlMpEsrT4QpQGn3PJaZL-7" value="" style="endArrow=none;dashed=1;html=1;dashPattern=1 3;strokeWidth=2;rounded=0;startArrow=none;" edge="1" parent="1" source="WlMpEsrT4QpQGn3PJaZL-39">
          <mxGeometry width="50" height="50" relative="1" as="geometry">
            <mxPoint x="40" y="530" as="sourcePoint" />
            <mxPoint x="760" y="530" as="targetPoint" />
          </mxGeometry>
        </mxCell>
        <mxCell id="WlMpEsrT4QpQGn3PJaZL-8" value="" style="endArrow=none;dashed=1;html=1;dashPattern=1 3;strokeWidth=2;rounded=0;" edge="1" parent="1">
          <mxGeometry width="50" height="50" relative="1" as="geometry">
            <mxPoint x="40" y="730" as="sourcePoint" />
            <mxPoint x="760" y="730" as="targetPoint" />
          </mxGeometry>
        </mxCell>
        <mxCell id="WlMpEsrT4QpQGn3PJaZL-10" value="SB Eng" style="rounded=0;whiteSpace=wrap;html=1;fillColor=#FFCCCC;fontStyle=1;fontSize=16;" vertex="1" parent="1">
          <mxGeometry x="700" y="800" width="120" height="60" as="geometry" />
        </mxCell>
        <mxCell id="WlMpEsrT4QpQGn3PJaZL-11" value="Locker B-Deck" style="rounded=0;whiteSpace=wrap;html=1;fillColor=#FFCCCC;fontStyle=1;fontSize=16;" vertex="1" parent="1">
          <mxGeometry x="700" y="600" width="120" height="60" as="geometry" />
        </mxCell>
        <mxCell id="WlMpEsrT4QpQGn3PJaZL-12" value="Bridge" style="rounded=0;whiteSpace=wrap;html=1;fillColor=#FFCCCC;fontStyle=1;fontSize=16;" vertex="1" parent="1">
          <mxGeometry x="700" y="258" width="120" height="60" as="geometry" />
        </mxCell>
        <mxCell id="WlMpEsrT4QpQGn3PJaZL-13" value="Patch panel" style="rounded=0;whiteSpace=wrap;html=1;fillColor=#E6E6E6;" vertex="1" parent="1">
          <mxGeometry x="140" y="612.5" width="80" height="35" as="geometry" />
        </mxCell>
        <mxCell id="WlMpEsrT4QpQGn3PJaZL-15" value="Moxa" style="rounded=0;whiteSpace=wrap;html=1;fillColor=#E6E6E6;" vertex="1" parent="1">
          <mxGeometry x="173.75" y="172" width="63" height="30" as="geometry" />
        </mxCell>
        <mxCell id="WlMpEsrT4QpQGn3PJaZL-16" value="Seacomea" style="rounded=0;whiteSpace=wrap;html=1;fillColor=#E6E6E6;" vertex="1" parent="1">
          <mxGeometry x="376" y="172" width="80" height="30" as="geometry" />
        </mxCell>
        <mxCell id="WlMpEsrT4QpQGn3PJaZL-17" value="" style="strokeColor=#666666;html=1;labelPosition=right;align=left;spacingLeft=15;shadow=0;dashed=0;outlineConnect=0;shape=mxgraph.rack.general.cat5e_rack_mount_patch_panel_24_ports;fontSize=16;fillColor=#FFFFFF;" vertex="1" parent="1">
          <mxGeometry x="270" y="420" width="340" height="40" as="geometry" />
        </mxCell>
        <mxCell id="WlMpEsrT4QpQGn3PJaZL-24" value="Port 5" style="rounded=0;whiteSpace=wrap;html=1;fontSize=16;fillColor=#FFFFFF;fontColor=#FF3333;" vertex="1" parent="1">
          <mxGeometry x="230" y="229" width="50" height="29" as="geometry" />
        </mxCell>
        <mxCell id="WlMpEsrT4QpQGn3PJaZL-28" value="" style="endArrow=classic;html=1;rounded=0;fontSize=16;strokeWidth=3;" edge="1" parent="1">
          <mxGeometry width="50" height="50" relative="1" as="geometry">
            <mxPoint x="210" y="220" as="sourcePoint" />
            <mxPoint x="470" y="450" as="targetPoint" />
            <Array as="points">
              <mxPoint x="210" y="280" />
              <mxPoint x="210" y="360" />
              <mxPoint x="470" y="360" />
            </Array>
          </mxGeometry>
        </mxCell>
        <mxCell id="WlMpEsrT4QpQGn3PJaZL-29" value="" style="endArrow=classic;html=1;rounded=0;fontSize=16;fontColor=#FF3333;strokeColor=#FF3333;strokeWidth=3;" edge="1" parent="1">
          <mxGeometry width="50" height="50" relative="1" as="geometry">
            <mxPoint x="230" y="220" as="sourcePoint" />
            <mxPoint x="450" y="240" as="targetPoint" />
            <Array as="points">
              <mxPoint x="230" y="260" />
              <mxPoint x="450" y="260" />
            </Array>
          </mxGeometry>
        </mxCell>
        <mxCell id="WlMpEsrT4QpQGn3PJaZL-30" value="Hydraulic PLC" style="rounded=0;whiteSpace=wrap;html=1;fontSize=12;fillColor=#E6E6E6;" vertex="1" parent="1">
          <mxGeometry x="255" y="830" width="91" height="40" as="geometry" />
        </mxCell>
        <mxCell id="WlMpEsrT4QpQGn3PJaZL-33" value="&lt;div&gt;&amp;nbsp;&amp;nbsp;&amp;nbsp; new connection&lt;/div&gt;&lt;div&gt;&lt;br&gt;&lt;/div&gt;&lt;div&gt;&lt;font color=&quot;#000000&quot;&gt;&lt;span style=&quot;white-space: pre&quot;&gt;	&lt;/span&gt;existing connection&lt;/font&gt;&lt;br&gt;&lt;/div&gt;" style="text;html=1;strokeColor=none;fillColor=#FFFFFF;align=center;verticalAlign=middle;whiteSpace=wrap;rounded=0;fontSize=16;fontColor=#FF0000;" vertex="1" parent="1">
          <mxGeometry y="10" width="270" height="110" as="geometry" />
        </mxCell>
        <mxCell id="WlMpEsrT4QpQGn3PJaZL-32" value="" style="endArrow=none;html=1;rounded=0;fontSize=16;strokeColor=#FF3333;strokeWidth=3;" edge="1" parent="1">
          <mxGeometry x="50" y="10" width="50" height="50" relative="1" as="geometry">
            <mxPoint x="10" y="40" as="sourcePoint" />
            <mxPoint x="70" y="40" as="targetPoint" />
            <Array as="points">
              <mxPoint x="50" y="40" />
            </Array>
          </mxGeometry>
        </mxCell>
        <mxCell id="WlMpEsrT4QpQGn3PJaZL-34" value="" style="endArrow=none;html=1;rounded=0;fontSize=16;strokeColor=#000000;strokeWidth=3;" edge="1" parent="1">
          <mxGeometry x="50" y="10" width="50" height="50" relative="1" as="geometry">
            <mxPoint x="10" y="80" as="sourcePoint" />
            <mxPoint x="70" y="80" as="targetPoint" />
            <Array as="points">
              <mxPoint x="50" y="80" />
            </Array>
          </mxGeometry>
        </mxCell>
        <mxCell id="WlMpEsrT4QpQGn3PJaZL-36" value="&lt;div&gt;Out: Moxa Port 3 - 451W3&lt;/div&gt;&lt;div&gt;&lt;font color=&quot;#FF3333&quot;&gt;In: Port 15 (?)&lt;/font&gt;&lt;br&gt;&lt;/div&gt;" style="rounded=0;whiteSpace=wrap;html=1;fontSize=16;fontColor=#000000;fillColor=#FFFFFF;" vertex="1" parent="1">
          <mxGeometry x="210" y="360" width="205" height="40" as="geometry" />
        </mxCell>
        <mxCell id="WlMpEsrT4QpQGn3PJaZL-37" value="Port 15" style="rounded=0;whiteSpace=wrap;html=1;fontSize=16;fillColor=#FFFFFF;fontColor=#FF3333;" vertex="1" parent="1">
          <mxGeometry x="480" y="360" width="70" height="40" as="geometry" />
        </mxCell>
        <mxCell id="WlMpEsrT4QpQGn3PJaZL-38" value="" style="endArrow=classic;startArrow=classic;html=1;rounded=0;fontSize=16;fontColor=#FF3333;strokeColor=#000000;strokeWidth=3;exitX=0.362;exitY=0.214;exitDx=0;exitDy=0;exitPerimeter=0;" edge="1" parent="1" source="WlMpEsrT4QpQGn3PJaZL-2">
          <mxGeometry width="50" height="50" relative="1" as="geometry">
            <mxPoint x="300" y="590" as="sourcePoint" />
            <mxPoint x="299" y="470" as="targetPoint" />
            <Array as="points">
              <mxPoint x="343" y="540" />
              <mxPoint x="299" y="540" />
            </Array>
          </mxGeometry>
        </mxCell>
        <mxCell id="WlMpEsrT4QpQGn3PJaZL-39" value="321W01" style="rounded=0;whiteSpace=wrap;html=1;fontSize=16;fillColor=#FFFFFF;" vertex="1" parent="1">
          <mxGeometry x="255" y="520" width="110" height="30" as="geometry" />
        </mxCell>
        <mxCell id="WlMpEsrT4QpQGn3PJaZL-43" value="" style="endArrow=none;dashed=1;html=1;dashPattern=1 3;strokeWidth=2;rounded=0;" edge="1" parent="1" target="WlMpEsrT4QpQGn3PJaZL-39">
          <mxGeometry width="50" height="50" relative="1" as="geometry">
            <mxPoint x="40" y="530" as="sourcePoint" />
            <mxPoint x="760" y="530" as="targetPoint" />
          </mxGeometry>
        </mxCell>
        <mxCell id="WlMpEsrT4QpQGn3PJaZL-46" value="" style="sketch=0;outlineConnect=0;fontColor=#232F3E;gradientColor=none;fillColor=#3F8624;strokeColor=none;dashed=0;verticalLabelPosition=bottom;verticalAlign=top;align=center;html=1;fontSize=12;fontStyle=0;aspect=fixed;pointerEvents=1;shape=mxgraph.aws4.iot_thing_plc;" vertex="1" parent="1">
          <mxGeometry x="349" y="811" width="78" height="78" as="geometry" />
        </mxCell>
        <mxCell id="WlMpEsrT4QpQGn3PJaZL-47" value="" style="endArrow=classic;startArrow=classic;html=1;rounded=0;fontSize=12;fontColor=#FF3333;strokeColor=#000000;strokeWidth=3;" edge="1" parent="1">
          <mxGeometry width="50" height="50" relative="1" as="geometry">
            <mxPoint x="389" y="811" as="sourcePoint" />
            <mxPoint x="460" y="650" as="targetPoint" />
            <Array as="points">
              <mxPoint x="390" y="750" />
              <mxPoint x="460" y="750" />
            </Array>
          </mxGeometry>
        </mxCell>
        <mxCell id="WlMpEsrT4QpQGn3PJaZL-48" value="&lt;font style=&quot;font-size: 16px&quot;&gt;322W04&lt;/font&gt;" style="rounded=0;whiteSpace=wrap;html=1;fontSize=12;fontColor=#000000;fillColor=#FFFFFF;" vertex="1" parent="1">
          <mxGeometry x="365" y="740" width="115" height="30" as="geometry" />
        </mxCell>
        <mxCell id="WlMpEsrT4QpQGn3PJaZL-57" value="&lt;div&gt;Upper patch panel Port 9 &amp;lt;--&amp;gt; Lower patch panel Port 18&lt;br&gt;&lt;/div&gt;" style="rounded=0;whiteSpace=wrap;html=1;fontSize=16;fontColor=#FF0000;fillColor=#E6E6E6;fontStyle=1" vertex="1" parent="1">
          <mxGeometry x="480" y="565.5" width="162.5" height="84.5" as="geometry" />
        </mxCell>
        <mxCell id="WlMpEsrT4QpQGn3PJaZL-59" value="" style="endArrow=none;dashed=1;html=1;strokeWidth=4;rounded=0;fontSize=16;fontColor=#000000;strokeColor=#FF0000;" edge="1" parent="1">
          <mxGeometry width="50" height="50" relative="1" as="geometry">
            <mxPoint x="460" y="647.5" as="sourcePoint" />
            <mxPoint x="340" y="619.5" as="targetPoint" />
            <Array as="points">
              <mxPoint x="460" y="629.5" />
              <mxPoint x="340" y="629.5" />
            </Array>
          </mxGeometry>
        </mxCell>
        <mxCell id="WlMpEsrT4QpQGn3PJaZL-60" value="" style="shape=image;verticalLabelPosition=bottom;labelBackgroundColor=default;verticalAlign=top;aspect=fixed;imageAspect=0;image=data:image/jpeg,/9j/4AAQSkZJRgABAQEASABIAAD/4QN+RXhpZgAATU0AKgAAAAgACwEAAAMAAAABC7gAAAEBAAMAAAABD6AAAAEPAAIAAAAFAAAAkgEQAAIAAAAJAAAAmAESAAMAAAABAAEAAAEaAAUAAAABAAAAogEbAAUAAAABAAAAqgEoAAMAAAABAAIAAAEyAAIAAAAUAAAAsgITAAMAAAABAAEAAIdpAAQAAAABAAAAxgAAAABPUFBPAABPUFBPIEE3NAAAAAAASAAAAAEAAABIAAAAATIwMjI6MDI6MTEgMDk6MjA6MTYAACMAAQACAAAAA1I5OAAAAgAHAAAAAzEuMACCmgAFAAAAAQAAAnCCnQAFAAAAAQAAAniIIgADAAAAAQACAACIJwADAAAAAQVhAACQAAAHAAAABDAyMjCQAwACAAAAFAAAAoCQBAACAAAAFAAAApSQEQACAAAABwAAAqiRAQAHAAAABAECAwCSAQAFAAAAAQAAArCSAgAFAAAAAQAAAriSAwAKAAAAAQAAAsCSBAAKAAAAAQAAAsiSBQAFAAAAAQAAAtCSBwADAAAAAQACAACSCQADAAAAAQAQAACSCgAFAAAAAQAAAtiSfAAHAAAAbgAAAuCShgAHAAAADwAAA06SkAACAAAABwAAA16SkQACAAAABwAAA2aSkgACAAAABwAAA26gAAAHAAAABDAxMDCgAQADAAAAAQABAACgAgAEAAAAAQAAC7igAwAEAAAAAQAAD6CiFwADAAAAAQABAACjAQABAAAAAQEAAACkAgADAAAAAQAAAACkAwADAAAAAQAAAACkBQADAAAAAQAEAACkBgADAAAAAQAAAADqHQAJAAAAAf///+QAAAAAAAAAAQAAABEAAACqAAAAZDIwMjI6MDI6MTEgMDk6MjA6MTYAMjAyMjowMjoxMSAwOToyMDoxNgArMDE6MDAAAAAAD9oAAAPoAAAAmQAAAGT///6SAAAAZAAAAAAAAAAGAAAAmQAAAGQAABJmAAAD6HsiUGlGbGFnIjoiMCIsIm5pZ2h0RmxhZyI6IjAiLCJuaWdodE1vZGUiOiAiMCIsImFzZE91dCI6IFsiMCJdLCJpc28iOiAiMjAzMyIsImV4cFRpbWUiOiAiMCIsImZlYXR1cmV0eXBlIjoiMiJ9QVNDSUkAAABvcHBvXzMyADIxNDAwMAAAMjE0MDAwAAAyMTQwMDAAAP/iAjRJQ0NfUFJPRklMRQABAQAAAiRhcHBsBAAAAG1udHJSR0IgWFlaIAfiAAYAGAANABYAIGFjc3BBUFBMAAAAAE9QUE8AAAAAAAAAAAAAAAAAAAAAAAD21gABAAAAANMtYXBwbAAAAAAAAAAAAAAAAAAAAAAAAAAAAAAAAAAAAAAAAAAAAAAAAAAAAAAAAAAAAAAACmRlc2MAAAD8AAAAZWNwcnQAAAFkAAAAI3d0cHQAAAGIAAAAFHJYWVoAAAGcAAAAFGdYWVoAAAGwAAAAFGJYWVoAAAHEAAAAFHJUUkMAAAHYAAAAIGNoYWQAAAH4AAAALGJUUkMAAAHYAAAAIGdUUkMAAAHYAAAAIGRlc2MAAAAAAAAAC0Rpc3BsYXkgUDMAAAAAAAAAAAAAAAAAAAAAAAAAAAAAAAAAAAAAAAAAAAAAAAAAAAAAAAAAAAAAAAAAAAAAAAAAAAAAAAAAAAAAAAAAAAAAAAAAAAAAAAAAAAAAdGV4dAAAAABDb3B5cmlnaHQgQXBwbGUgSW5jLiwgMjAxNwAAWFlaIAAAAAAAAPNRAAEAAAABFsxYWVogAAAAAAAAg98AAD2/////u1hZWiAAAAAAAABKvwAAsTcAAAq5WFlaIAAAAAAAACg4AAARCwAAyLlwYXJhAAAAAAADAAAAAmZmAADypwAADVkAABPQAAAKW3NmMzIAAAAAAAEMQgAABd7///MmAAAHkwAA/ZD///ui///9owAAA9wAAMBu/9sAQwACAQECAQECAgICAgICAgMFAwMDAwMGBAQDBQcGBwcHBgcHCAkLCQgICggHBwoNCgoLDAwMDAcJDg8NDA4LDAwM/9sAQwECAgIDAwMGAwMGDAgHCAwMDAwMDAwMDAwMDAwMDAwMDAwMDAwMDAwMDAwMDAwMDAwMDAwMDAwMDAwMDAwMDAwM/8AAEQgDIAJYAwEiAAIRAQMRAf/EAB8AAAEFAQEBAQEBAAAAAAAAAAABAgMEBQYHCAkKC//EALUQAAIBAwMCBAMFBQQEAAABfQECAwAEEQUSITFBBhNRYQcicRQygZGhCCNCscEVUtHwJDNicoIJChYXGBkaJSYnKCkqNDU2Nzg5OkNERUZHSElKU1RVVldYWVpjZGVmZ2hpanN0dXZ3eHl6g4SFhoeIiYqSk5SVlpeYmZqio6Slpqeoqaqys7S1tre4ubrCw8TFxsfIycrS09TV1tfY2drh4uPk5ebn6Onq8fLz9PX29/j5+v/EAB8BAAMBAQEBAQEBAQEAAAAAAAABAgMEBQYHCAkKC//EALURAAIBAgQEAwQHBQQEAAECdwABAgMRBAUhMQYSQVEHYXETIjKBCBRCkaGxwQkjM1LwFWJy0QoWJDThJfEXGBkaJicoKSo1Njc4OTpDREVGR0hJSlNUVVZXWFlaY2RlZmdoaWpzdHV2d3h5eoKDhIWGh4iJipKTlJWWl5iZmqKjpKWmp6ipqrKztLW2t7i5usLDxMXGx8jJytLT1NXW19jZ2uLj5OXm5+jp6vLz9PX29/j5+v/aAAwDAQACEQMRAD8A/ENJMDPU57U/zip9R061ArD8acuWX29+1caR0XJvNDAH161x/iufzdWcA7toAGK6p2KD+tcbqpZ9QkYjnca2jowlqVVUkU3OOtPzj/CkOK2MyWwdkuF8vdnIxzXpdqPs1jCHxuKjd+VcD4RsftuuQqfuqdx/Dmu8kmDN0yPcdK56m5pAkX523Z9+akD5H8sHpVUyY4+7k04T7V7D1x1rHlKuXEfzDn24wacsuRxx3qmlxuNOFzlu2M/lRyhcuI29fm459Koa7pf9ryKuNyoOBVfX9eXSbJm/5aEgAVz0Xj+4if8AHvVRg9w5u5meJdGOkX/lnuO9avgvwW2u2zTbflBxurI1zW31q58yTqOAK1fBnjmbw/CbdVDJI27nsa0lexN1c6KD4WKjqzNnb19DXRhY9KsFt4tq8fMQOc1Wt9Wkmtlk+6zjPIqPz90jbvvDkisHfqaEqts+vQUyQ8D/AGTnGKaZeeOuM4qMy5Py/Lz3pASPIrIeBSblClckbu4qJzxtPr19aZu46nmqUSG7jndYyMj5e9ct4w8T4LW8LL6NitLxdq0lnYFYt3mMMZx0rgXJdizc88k1tGPUiTBvmPTJoztFKHxxyKfBA95Osca7mbgVrckW0tXvJ1WNWZuBXp/gPwQuj2onugu/IPI6VD4C8CR6ZCt1dBfMX5gMdK2NX1YzfLH8qrx9awqSb2LSHazrBnPlR4WNf7tZZwyjHehfmLHjNNZlA/8ArViMcZOf160CTY/t9KaSUHpnmjkjmq5QJGblcenWiRgq8/dAqvJdrbrlmUbeufSuX1/xe1xuit2YL3aqjG4cxqav4mjtWZI+X/lWGdZlLZYnr69KyTKzPljuNTwS7iByT/OteVInmZpnV5ipXceeDjtTdAtP+JzC7KWVXDEeuDVrQ/D02oyLhGwTzjtXaaX4at9Gt1eYKz/3cDipkUSX129yqs42pgAVTkEbE/dGeRU2oah9tbaF+XjiqJB+mOOtQVzErQrk4PWkMTJ6e59KjWTvt/IUGVh6Z96A0HEujEn8MVPFqk0J+9nAxVbzt4O5aWUqBzjt3oA04PFjIQtaVl4zKthjt/HNcqmC3U9ao3muw2F55byDdjP4UuVBzM9S07xltORL9Oetbuk/ECa3fcswH415BbzSfZlk52sMirEGuy246sSD0pcqNI1Ge+aT8WGj+WTuBznvXRad8RbW52hpAGbqD0NfN9p4zZAu7d155rYsvGin+MquKl01Y2jW7n0dba1b3LsvmBm+tWhIr5VcdfyrwHT/AB3IiKVn7cDca6LS/ijNEg3SbwRxk/zrH2RoqiZ6uYAwPGDjkjtUM1qVLMeo5Ga5HTPixHP97jpwOgrd07xla3o/1n0zUuI7pliSDMjevfjpQkOGHX69qsJfQzpuVgcn2qSJFb8eanlJexVjt/k98imtAQWA/i5+ntV77NkDDfMOBTJIGVQB/F696fKiDJntgjn73OOoziqzQknvlfWtaS146MPr6VTkhJ/w9KZUTNmh8wjj6mqdxECoHUitR42J3dOeh7VUmgYOclfxoKKXl8enPORToLcZ3cDHQ+tTLBuDbevUfT2qSBfMk28+tAEajd/ePHI9abJD5rZG0jNXTECuB1HHSmSx7eGH4gVXKRczLi3wPbt61SltsAn5tprYkgOPZuOtV54AXxjG4/nRyhcxLmzB42444qlNZZC7gqitye2ySfm/Cqk0CyH+LgZ6/wA6fKh3RmNbEDI3N/SmG2UN/tY61qm328EfK1RtbbM/3eOnelyg5GWsAjY5xnPBqKaL5/lHHp61pSW2TyD9Qfyqs8ADd/TIo5QRnyW25f4d2e2aKtNBuPzfMQM5/wA/hRRYo8Tj+Ubh7Yp0DYz9fwqEPyB09c08Agf55ruOFbiyzeVGzHoKzbjQX1a3aaEbivJxVy6UywMq9W/WtjwDJHp9yI5sNGxAJPQVnKTirmkY3djzu4tWt5NrDbg80zA7D2xXpfxS+HqwAX1smYJPvY/hJ71wc2jkEFaqnWUldE1KTi7M1vAtsI0muMYwMZrfMwLcVn6VGtjp0aDhupIqzG2VH1py11JirFhJN565oMm84x06+1QnjB/XtTt28jn3qCWTbsfiO1OMuBnjOKr7+R+dUvEeq/YdPZlI3scLmqSuwMLxZrZ1K/wrZWP5QPescuQKc7l3z+NRjlq6FGyMyQHBroPBWhf2heea/EcZzzWHp1q15dLGv8Rr0LT7ZNF0qOBcbmX5j9azqaKxUS9Jc4G1eifKKasoK/xdPyqosnmAfp704S8jt3FYmiZcL87g1IZNp/Sqpk+Xqe1Me4wMDgA00gkWJJcr/EMe1VrjU44G69Ko6tra2Nuf7zHgVm3rNNYeY3DMMnNdFOhzaswlUtsa9xdwX1lMc5+UnmuNstNbUNTWFRnzGA/M1o2EbCxLf3uee9U7DUZNI1eO4RctGwOD3rSVLlQozudzafA9roJ+8+bvzWnpfwwg8KXPm3DBm7HtUOhfEe6ubfzFVU28EU7U/Ek+pn943vxXI2+ptoW9W1XzjsjwI16jpmqDMVPP0zUIl3Dr+vWhHwOvWpAlzhuo5FJng/zqMSqQD6etJ5gWkBKXXnP05qnqGpx2EReRsbe3TNN1S7a0tGbuvOK4XU9Wm1Kf5mYrngdquMbibsWte8Ry6pKyqcR56etZvSpPskm37rVY0vQ5tRnVVX7xrbYgr2YknZVRSxz+ddh4Z8DtPtkmUqMZrQ8M+DodJXzJseZgH6VqT6rlTHH8qLwB0NZyl0RSiTfa7fSI/LiA461Qur1rw7mbpwBUUqFuT/Oo3TBz3rMokWbdR5uCe6t71CTxxQJGQdTt7Cq5QLC5bj/61BcBWb0GM1n3mtQ2g+ZhwOBmsK/8USXhwh2qafKBr6t4nh03O1t74GAK5m78V3Vy7HcQD0FQyKZmJO5i1SWujTXp2qmc+1WopEXGp4nu9oXfUmmaLc6xfLIwdtzAkmum0D4chdsk3C+/aukgaz0OPbCitJipcuw0mN1S42xxxmMRqqgKMdqoSIsj9eW6+gqS/v3v5dzgBe2KrE4A+U5zjkVmaRBoOd3pxUZDKob8qkMmG3HPsBTftB79fT1o1KHRajJbn73fv+dWrXxVNAv3j83TPeqMjqc78L3zjioZChHB6c1SQtTpLXxxsblj7881s6b44wNyylG9j7151c3C2kDSMwVVpun6gb1S0O7C9SKlxGps9n0n4kXEQH74sPQniur0n4s7PlkI2+tfPcOszWjfePFaFr4ukhb5icfWs3TRoqh9OaT8SLO8X/WbR1I/yf1rbt9bguxkMrcdQelfMWn+OFAVWZl9K3tK+IEtuislxn6ms3TZXMj6DJjl+62TjgjvUE9vuHH5d68r0j4uTQKqswbB5J7V0mmfFKC64kIXpj61HKy4yR0M9qU3cfj61Uni8tNzevUVJa+J7a/24kXjHtzTpfLuFb5uG4zmkWZ/l7mP8OTkZ61YtLcqdu1SRgnuf89TUwhCr8mODjAPIqxHb5PJ5U8DBoAriHcM/dzzknrTDCdrKefbp+dX47Ngg+Xjue9RGDA6HsQMda0Myg0WU27fbpVdocr8v6dq0pIfkIB9Me1QvDlPu8dAD3oAyriBhnbzjkEGqkkHy/d6nn+dbElmqn+fQ561C1v8/fGMDmgDNS3wVbB2jA5HehrfPC7efb/P+cVpG1x1Ur3/AMaSWAbdv3e5x3oAxJLYAhce/wCFQTW+0dBxx+NassGR6r14FQNb4ThWOaGBkS22SvRT0oq9Lbrs6e2T2orMo+afMJ2rznPHtUqXPbd+FbP/AAj3mopCn16dBUN3oGxgcfL/ACruUkYezZmBwvf8KdDcbJMhvukHIp8ukMBnP5VVaykibHPX86UtRWaPTvA+pxeKtJk0+4YM+3AB71w3iPw5J4d1aa1kVmCklCe4PSk8M6tc6LqEU0ZIwRn3FeleN/DsfjHwrHqVrGxmgQMcDnHfNeY5eyqeTOzl9pDzR5SnAHpjHWpI24x1ouPkk5//AFVCs/zEehxxXpQZxyVi0hI/DtSg/NtP6d6h8zA654xmljmyvX8K0JLSyDA/lWHremT6vcFlU7V6ZrUV8/yq1b3Soq5XPrx0oJ5Ti5PD1xEPudvyqvJYSRnlWH4V6Iby3kz8u0/TrU32WxufvKnT1qvaMTpo5fwjpX2dPtDL838Oe1bjzMz56+lR3LKnyRD5FOBz1xUfmEDjHrj/ADzUvXcRN0x+dOeTAz/Wq5dvun9TTt+F+WgCQzbB+vT/AD61VvtQW3QsxP1706WbZH/hWHqEhvyxzhV6+9aU43ZE5WQTRtqkfmt68CrWqR+RpqqT94ACjRY99qq+/SrWtW3nTQQj1HGe1erSp+6cM5ajYNPMWmL16ZrJi0VppC3v+ddfqditlpW3r2BHesyxizHtPXPWoxkOVF4eXMyPTibSPYuVGOlXo5/f2qEQjP60KvP9a8k7kW1m3r979KekmTVVFwe67f1oe88tSSe3epcewFpp9n0HWs+68T29u2zf7Vj694lPCQtjd1NYDSs5+Y9aqMO5PMdjd+KLeeykXPzFeBWL4Q0+PUtbVGxszk5rNt7V7lsKG5rrfCfhNrd1ndivfim0kgTZ2Vn4Y0xo/nVTtqJ7az0gkwKrHt61QnmA/wBW3HHQ1E0jNz+NZFk1zeyXTD5iF7io45Nrfjx7VHu46UElUP8Ah1oEL5hI/Hk0hkHX+dNMiocZximm4Vhwef6VogG3F9HbJudgOOtc/rPi4KWWDvxVPXL2a91Mwrnb0wKuWngG4u41YL972qtOoa9DDkvGuJNzHdViztXuGCqrN+Fb1r8N5fP+Y/L61v2Wk2ehxBvlaQds0cxPKzG0HwVJdMrSDb6V0UUNpoS4RVd/5VXudaZlCxjavSqJk3n5uT9c1O47F661+S4fauEXsMVTF383Xt+NRl+P6004VTx096BkwnBK+tOE25VzVOSXyjuJHHPJrLv/ABKlvwnzGgL2N57hF6nH41m6j4nhsd21hI3tXM3uvT3Z+8VX0FV4YJLk/LubP45quUlyNC/8VXF4flOwegqtHqd0xGGYmtTRvBFxfsGZGVfXFdPp3gy20xN0xBbr9KOZINTkrfSb7VwqyeYVPJ4rrdJ0z/hH9F8poxubktjk1cbUoLQbYEXcO5qneXs1yfn9elZylcqOhGyRtJ973yaha3J6fNinf99fyxQpO3j7p96k0I/KZVzj5uop0d7LDxub6elO8xk+bjbnmmvewrgSbVOaBFy28QzwAKTuH1rUsvGkiEbjjpzn0rnRLBNtO7HOBzVW81SK0dETazP/AHeeaLCUmj0XT/HRU/LKy9uD1rotL+JM0AA8zdtxxmvKXhlijVmG3gHnvT4tVntxwT1FQ4I1U2j3rR/ikr7VkP5Guo0rxza3aqd67uB61812nieaN13H7vt1rY0zxwyOPmx6nNR7Mv2h9M2uowzozLIr7iBnNTGHevIyw968D0b4oTW4+Wdctjgmuv0f4xyGNVkKnt2pcrQcyPSPsQboowOQB3qGay44XHPIxnNYek/E+0u22yNjd37A1uWmu2t38wZdqkZPUVGocxG1pktuHIOc1X+yAjptPFax8uT7rAZ54qMQbzx0zVEmWbbaenXAPGabJbHaRnnHI9f8/wBK02tM/dzj0pDZ7jyPy5wfpQBiS26urfKegwB0NQS2uz7v4cVtS2aqc87senUVTltAd3bt07UFRMdrIMvA6npRWk1qQPm9u1FRLcbPGJPD7QBTtbnjIqvqHh7+XrXr938NrmxXdLburKMbWXmsvVfhfdQWv2mRMRSH5Rjk/j0q+Y6+VHjlxpDRnds/DH61SfSWSTsF7D2r0/W/Bztb/wCrKng5x0rmLjw60TfNzt4GRWikYyjZnNx6Xgr6+1egfCjUPs8jafN/q5+FJPAJrnbaz8uX94p5PSuk0fw/M1zHND8u3ByOK48ZT5oGmHlyyOS+Knw+bwx4lkXb+5n+eMgdM1zZ8N+YuVz054r6F+InhZfHXw++1Qr5l3YgMcL8xAxuHr05ry7R9OW5tx+RrHL8Y6kLPdaMrE4dRnpszhJfDzovy88d+lVZ9Pmt5NuPmr0q88OMx3KvX8jWXd+GnVvmjr1oyucsqRwbedFuyp9CaFuCD/F/jXaT+GN6r8vPXGOlZ954WEb9B04quYycGc4bv5hnpjjI604XnPDZ9q0brw3sGOnpVCbRWU8Zx6VRDixRcb8fNu455pwnLH8eMVV+wSKfvUqRyp6+2KDMvxruH+etCHI/lVOORvlGOfcdKmiuWH97HBoAsSWi3R29PesvV7FbPj156VpRXa1R1l/NXI/iGCfU1vRM6hN4Ys94XI960ksxc+II+6x9hW58O/h7caloy3igFeQB3qwPDLabdyzN95W249xXfSx1GNoSZP8AZtepHnitDH8TyeZKsK/lWWkXlt9D3q5qb+frze3T+VR/flbnn/CqzCSlG6ObD03F2ZCy4bH44pDHn2IP509hkf3eaa0LEkbsf0rxzvKeo38dopJxu965vVdeku8qrYXPatrU/Ds97J97rWc/hCZccfe6Z71UbA0zFJLVc03SJL6VVVe/WtLTPCMk1xhvurXR2VrDpsfyKu7GafMTyjdF8Nw6THukVWf+lXZ7wyj5PlXsKrPMS3U/N09qcsm4KvPuays2UOBbPBU/1NKW+v8AhTGcYz6e1Q3F6ltGSzYxx1o5QLDSDB/w7VTvtbitYTuYZ69KxdW8V7vljznGM1h3F1LdyFmLNzVKJLkamoeKZJ5D5eQvSq8OuXJbhi3ao9O0Wa/YAbsV1GleEo7ILJMVbGDgmq0ROpk+H9GuL7U1nkViAckmu4uda+yIqqoHHX3rNe+jtAyxKPrVWW4Z8sW54HNS9S4s0rjxHJINowvYVReXzSTnrz9agMuC3zccdaTIPbpQPmJhLuJ789PSm+aB932Iz6VWub+OH+Lp+dZ0/iRclV7frTsyeY2JJWTJ64P51Sk1gLKwU81Sm8R+dEyqMs3T2q/4Q0j7YTJMMLnHNIdyjdSyzg/KfpVAaZJcPhVYtnBr0YaRYRxn7nHBz3qmfseny/Iqtz6UKQzmtK+H80xVpvlXv9K6Ky0Sx0aP5vmbimTavJMfl+VenHaqolYfe6t15ouKxfuddZExCuxRx0qg93JMx3k/59KFOdv+z3prycNlsEc9etAwilyB3XrR5+B7VTudXhtj+H61m3XiQt8sa9KOW4XN5rpYxuZh8pPWqN54khtv9pvasNnudQb/AGT7cVbsPCc13hm+XPfvRypE8zIbzxPNPuWMbQ1VoYLvUW43muns/CdvagGRh7gnpWhCbWyG1EXj6UOVtg3Od07wldScszLurd07wtDYSLLI2XQg4btUsmqluFwF9qia6Ljksee/SobuUWLrUGnZuQQOg9Krsyn/AIF+tM85SPvfXPeopL1UTlsYosFyYYwOeDjNDSYGAep71m3euw2/STPris+48WcnaM+9WohzHTJdlPungc8VYg8RzQH5WOc5681xR8UMxHy1o6KbjVtzKCq+3ehxtuHOdvY+PJIWXczdevpW7o/xKe3df3zfNxjPArh7XwheXYChce7cV2Hgv4Tx300a3UzZY8he1YySCNR3Oy0n4vTwquZN0fpntXWaL8ZrefKyBVPGTurW0T9mDSfEWgLNE8sL4A4OefWuf1/9li+sgzWV2s3TaCNtZc0TdHaaN41s9SiX96rMT1FbEdzDNym0568+teC6j4B8UeEiWezuHVe6DOfyqKy+KGpaPIqTLINvGGz8v507DPfpLFQFye/HGOaqT2O78Dx7V5r4e+PCttWZx82C27v9PSus0v4qWWp4HmKjAZPNTyspNGpLY7eNvQ4+tFTWOs2uoqdsi7icfLyaKmUWNn0p4i+C8k8jb41mUYH3cY/zmsXxj+zLcSWkYX94qKDt9O9fbV58Core62uu1nPHrWdYfCR4Lm5huo9wYkqxHaojFmH1pn5yX/wk+w301jPHtmYfLheBk1574l+EMlm0iiNlUE7cDr71+m/iv9lqz1nTpJIVU3jdAR1OTivLPE/7MsOk6Yy3UKmblf19a1s1qdEcRGW5+bOreDHs7zBUrt61u+HbNlsdojx/U17v8XvgQunrM0Ue3apOSOprhvhx4Ga61iOCRdq7uuOBR8SD2iWpF4F0iSxDJdI32e9GMf5715rrHhL/AIRf4iXGmsp8uaQGInupNfZ3iH4IQ3fgxVtULXluokTaNucdfz5r5r+P3h6RNMs9at/9dp77JPXGR/I/zrwKkXhcXd7T/M9CFVVqF1vEw7rwUthbjcuc9sGsXVvDEk8ZaNN205PHNe7fD3wQPiz4OgvoVbYqgMcAnIHSnv8AB+cPJ5MLMEJB4z7c19DTloefOpY+cE8OSbstG3txUOoeE2ni3hckZHP1r6Pg+Db3aMs0JWTcR93HNcxrXwmuNFu1WSFgrHPTtWxn7RHzxeeH/LR228joCOtYM2nbJMH+XavcvHHw9lhLLHGzbuPxrzq+8LzWl0fMjZW6njpVoLo446Q2TlcfjU8Hh7zQV25weARXS3WjGAZKnsD7Vf0bw/5xTav1460zOUkcTdeFvL+Xb1H4Go28MKx24+btXol54cZZNrRnnnOKhPhdyw+VlHrignmR5zc+Fmj5+b8O1YOuW/2clPSvUr+0S1do3IVq838WlRfNwPvda0jIiWp3Hw18Ualp+kQpCu+3jXawI4Jqe+1Pyv8AW53Mdxye55rlvDPjWXSrNLWPbsYgknvV7WdQ+1xtIW+bH61x1Kd3c9fC4zkjymbqUym8eVehOMCqS3WQff8ASoBctPLs/vH866JPCp+zq23DEAmuiMpcvKzjrxhKfNEw/tAoNxsbqM+taFz4YZeit9PSqsnh2aMn+77UGPLYjN5k/e/+vT/t2RyKqtp1xGcj8s1H5E0fPPXoaALZuP4V+UVHv29eo54qq0jKuMZ9aFusn+maDMtFtwYnacDGPWhX2j1FVvtI2f1pTc+/bGR3oAsSbjASO/bHWsm50W81Itn7vPfrWpBf+V1UZqzHq4jj4x+HagDjJvDU8dxs285xW1pPg9Ywsk3Y9PWtb7dH97Cs3r3qJ71pT1+gp3ZLJ4mhsDtRQW7VFLeNKfmPHr61Bvwf73pTXkOFz+f9aRISNh/9mozc/N2I9ar3VyqJjrWbcagxDba0URXRqT6nHArfN1rLvPEW/wCVM4+tUZlklPf8qtab4bku2BPA96drCuU5LmS6bJPXtVrT/D016RhW210On+G4bNVL7T3I9attOtuhWJR25qHIop6d4ShtvmlYbhWh9ojs4dkWQ3Tiqr3JkOc5OKbnJ/HtUgiTe20fNnPv0pmcnP5VE9wsP8X51SudfSI+v407FcxoLJg+lI14kbdqwZNcmuDhc/TFOt7G6vHHVQ1PlDmNx71BE21vmxn61m2EVxrV023Kr7mrVn4fdE/eOVHoe9aFisemxhY+oqQ5ik3gRpR8z9+1Lb+EYrU7pPm55q82pSk/eqKSZpE6nNAaEqJDap8qrx04oa9ZU+Vfl7YHSqsk6xp8x6daja+Rht3UBoWGkZhyd1RllQ01S0qfKv6Vj6vc3Ak2jNAvQ1pdRitk5Zfw71n3PiOOE/Lz9Ky10y7vDna/9K0LTwNPKRv4zVadRFW78TSygbfxqlJdz3LfeY57V1tj8P4RzJ83PQVr6f4Rgh+VYwT9OaOZIDz+10K6vT8sbH8K19O+HdzcuPM/d/WvSNL8K5ZdqhV9hXQad4TWP73zEGp9oB5xo3wjVseZ8/I6V1Nt4Vi0iKNNoUemK7BbBYMBV5zWfrUe26VeOOalu4FSCDldvTuMV2Pge33XSHHzDmuXt4wHH6cda774bWe+8THzZYDpWctgR9BeA9NMfgu33L1UN0Ax7U65sVaZu57g10Gi6f8AZ/Ddqpz9wHgVWubfk/IrDPArn5ToT0MSXSku1CtH5nHQjrWB4m+Emj+IVUXWnws/QsAFPsc13MNkquCEbp0yeffilns/MUbvm55J607D5j5+8T/slafdebJp9xJbSZyqH7orgtb/AGe/FXh8t9n/ANLRRkbSOn1r6wu9O3xsOOmBgdKqS2EcYHouOe560x8x8dtfeIvDM226tbmNl6qwPT1+lFfW2peG7a6i/fW8My9cOM4oocmFz9qdY+C84lj1C+cR+V/yz9aYPB8fiBGijt8CNf8AWbehr6c8X/CaLXzEJm2w27ZdV/j9qrv8L7W4tGtbWFYVxywWumNFnie1Pk6H4Vyac78eZMfu8VynjX4HjXWDsuSvDACvrS6+GS6CrMw85i5A46Cud1LwOBcSbYwq4zgitY0y41mfnV+0z+zisukyNZ2/75VyVxwcDP8AQCvkvQvBLeGvFLLNH5eyTPI5BFfr74o+HZ1Np2a13DBA+WvhX9pn4ES+E/HU16sK/ZpH+ZVH3T3qJU7O51U611Yd4C8ELfeD5LxV3yyIwUYzjivlX40fCm40jV9W0/ULbZb6luaLcOhPP6HFfcH7NWlSeIdHS3B2xxnJz2FXP21f2frPxF8ErvU7WJf7S0cC6RgvLqudy/iP5V5WeYF18M5w+KOq+W52ZbjFSr8ktpaHwf8A8E9L1m1PVfCM4H2q1k82NSeWHA4/MV9Na/8ADFNJvcNbrFluqr1r478I+LpPgh+0lofiOBT9lvpBDcADjDEA/wA81+oeieA/+E38PW+qSQbreaPfGSOoI608nxCr0E+pOOi6VVxPnrUfhxb+SDHGqydWz3Ncvr/ws/tSbbLH91QM7e/avpab4T/adV3J8q8ZGK2H+C8NzaFNvzbOGxzn1r2VTOD2p8KeKvgVCti0sa75IuWOOteB/Ef4bzPrsjx2+IYgB0xz34r9Jde+BS6RDd7d0q9hjmvEPHPwctdXu5N0bRgEhvlo9ma0q2mp8KX3hBriVV8vockY7V1fgn4YNcJHthLSdSuO1es698JobDxJ5KABZG6kV6x8FPhDBFeRgx+Yq8sxX39amUbEYivaOh86XPwkme7Cz2jLtGVBXFVdQ+D9xa2ckjW528bSB1r7P8YfCaLUNZjkhT5VK5OM4A7Vf1D4E/a/DNzN5KuyxE4C+1TqcX1yx+RnxR1hdD8eXEMisoVBgfnXB+LbyO7COq43Nk/WvUP2m9Lhsvjf4ghmTy2tZFix0wdoP9a8mvZ4577ywPlU8VrTjc9Ln0uO8NWUmpako6befStLxdDJpJjjVs+Yema1fB+nrBP5gUcD0qLU7f8AtbxLGgXcsfPTpivbjgIezV92cLxUufyM7wpocmpa5aoyt8zg8DrXsw8J/wChLhO3AHanfAv4VzeMdeMkMLSeQhPC9DzivaLX4J3kFpI0kLDaMYIweOtePiqapz5EehRr80bs8FPhTfj5eSc/Ss/VfDDQxZRewr26/wDhnJHM37tlVVxgjj6Vh+IfBrQ23+rbOOuOlcrZ0KoeH3WjfP8Adw2eeKq3OkKY87c9ulenXng1mRgoywODx1rDuvCkkTldp460ahzHnc/h8sOnXms+68PMpx6dvSvUZfDyrF8yr2PArK1Dw5l8qv1qgPOZtFeNsd+9QPZSoOAfqa7y80UInK9azL3R8K2MCgmRyDu6fe9PSmi72P8AMOP51s32nq35+lUzYcfdqoollYXufanJcg4GeafLpuR0xUZsGDZwfoe1UZj0m4z3AGKej7nx/TpUC2TohK8c8e1XdLs97ndzjp70ogzH1CFkbPPp0pun6Z5p3N0rU1jTjJcfKNv4VBHG0ShB2PWtTMQaXHHKC2BzV5LkRoFVdvNV1DH9KdHAzD/Gp5SkyRpfNHr6cU0n5O49Kd5LAfLk0eW2e/Xp6VPKO40/u1z/AJFZeo3siZAX8hW9DHlRle9SHTI5x92jlY7o4srdX78buau2fhSSQq0mRXSrYrbj5YwOcdKPImcHAOP5Vfs5E8yKdpocNioLbcnvVj7THCv7tdv4U4abJJ/CWBpo0ibGNtL2cuwc8SGS4Zz8x+ntUTS7VO77x/SrMekyvxt+b2pJfDlw4GPXpU+ykHMjOm1BYup/KqkmsM33MtmtceD2kf8AeH6jFXbTwvDD/BS5GPmRyoS6uz8qtVux8MXMkgMmVBOK6yHTY4ANqj6YqYWxJ7Z9hUjKVjpYtYB3PenHRI5JN5RfrWkluSB8tT2+nl14Wodxmbb6YoYKAvp06Gr1tpDEjC9PbpWxY6IWIyuP61rWejrElSIxbLw+0hGVx9a2NN0CNH+7z1rUt7BVXOOB7dKuWsPA/OgCG109YF3Bfb61YSHy1+gFTRpkMPl9BUkce+LPHtQBRMZMnf1rF1VS+oBf7o7d66QwDGdv19qwNQjxqjj5frQLqQ20C+d+mK9S+Dum/aL2EMuQzAc15nYRb7r+mK9r+AelNc6tbj/aBJx1x2qZbCifQq6d5Fhbo2DhRnI4BxVCSy3S42/MhPGOtdNd2nlw7dqnaAOf8/Ws2S3wzYzyefyrKzOi5lJacc9eMd6ZJp/2f7u5c9h61rJbnGMewqOW1y6n+9xjpT5RXMd7XPox65B61Uk03Ktg/NnAJ71vyWeOcZ3cDiq5sdjNt/GjlDmOfurAFz6sc9O9FbL6ezpv988joaKkXMf0wjw9HJJJI3zLJyFNQ2WlrO8sccPlqOM4rp47VVUUwW22Tj7uPzr1DzfYs8z8V+GG0iV3VC0bckmvK/Ed+p1dow2d3Ydq+lNY0ldVs2jkXhhiuGvvgVYvHJIq/vmyc+9Mz9m0zwUxHUGkhWMZzjpXzv8AtJ+AYb1rm2lh3NMDjP8AOvrW78GnwxqjBuTITXnnxq+HsesNJMI13xxEj3JqvZtomM7SPhv4L6FdeDvHywqx+zzPt2Cvqmx+Gdn4h0KZboK8dxEVKcEcj0rxSDwpJoni6R2zuEpII+te9/DW/ku9O8mQMenNa0YJqzHVlrdH46ft0/Alvhj8QvEGixK22ymF9ZMf7p+cAH25H4V+gP8AwTU+LK/tCfsxaTwgvNNjFncIOzJxz+n5isP/AIKt/s0S674Yg8XafaF20xcXW0DLRHqT3OMCvnX/AII6fGlfg5+0vfeC7yTZpfiZRNaFm2qsozkAHrng8c8ema+NwFN4DMpYWXwy2+e3+R7uKl9Zwsa63Wj/AK/E/SG1+DK2ybnX5mOQSOlUNV8Gf2TJ/fGMcetex6zpc1zYKYf4uQfauR8Tac1hpcksijMILV9p7M8OO54t4m8L+RK8vl5jxyD3ryP4oeC7G9024mjVUlVcnHH5179rt79ssWXb95c9K8a8b6Utrpl87yfwnAJxUSijeOh8XfEKz8rxF8qn9220E9a9I+DvihLZIVkO55Bg5rA+I2mxXurSNCV59Kyvhrqclr4rijG5lVgPxrkmKrG8bH1V4T0G0v4Y2udsbPljnvXeaT4Nt/7PkhblWG3j3rzXw/o1/q32VlSZVfbnGcAV7d4S8MMkCvMzfdApRPJlufnD/wAFJP2BNB0jwn4y8crIsM9rZy3TjHzO4Un+lflj4Z8Mzavqf7uMyc8Yr9nv+C4F/d+Fv2btUhtn3R6s8Nq3P8LSDP6cfj+FfmX+zR4WhXUl+0Rf6xlGD/n8K3jJQ1PSwqcoanOaR4IvNO093eCUccEqay/D2jSPrE0zoy46ZFfa+seBdPl0dYvs8K5A7Vw+sfB7TRG3lwKhkIxt459q745rG1mjR4J73O9/Yb8CR6R4YjupkVm1CUAZX5kA4/mTX17qvwWjv9GTbEoDqBwO9ee/s8/Ae9s/AOhyCHbGYfM9CBuNfSnhaLz7aG3kX/UgL0615FWXtJub6mMvd0R82+MP2dNpkby1ZTx0x/SvI/H3wSksomIg2qpwQK+//Evha1XTGZo1Bx0x1NeaeJfh7H4i09/3agj1FRylRxDR8D6x8J5oZv3cLNu6kc5FcjrPw9+yXLCSH7x6kV9ual8PbfSi0Mka8HuPSvO/Hvwph1KKRrePY2TyBwKfLY6I4i7PkXVPBbW5b5ePTHFYt54fRrfO3tnpXsnjXRP7J1F7diGZepxXFazpaxxN6nnkUHZF3PKtZ0pYlbj8x0rl9StygI2/N716J4g01iW4+VefpXJ6jpLeZgd6EVI4m8s2B+bqKjttKMrdDx1FdnF4UlvJvlXvnpV//hDvs8WWjwfcYrQylI4SXRti/dqvJp+B938a7a40DeDgZ5rPudAKlf4vTignmRyx0zjpjvU2m2iKxDfUD0rbk0nYv9KptZFW2hefWgHsZ2oWoXc3DD+VZUzqp+793gmt+S2Z0KnsOtZOo6JISzL0raLRlIrw3Map0xmpFvo1Hb0qjLp8kXQVVa2mY8BmPet4uJm0zbS/hp/9oQjGW9qwBbTqf4qeLSYrt5/pWqqQRnySOgTUbdjk7cdRzUketQoOcenNcyLSccfN/hTJrSaND/L0rSOJguhPsZM6ltehHzfLR/wkUe3+H0rlbK1kugRzxV9dBk2/ex6+1V9dguhP1eRtp4khxwR7e1J/wlESH1z0rOi8Ntjn1qRPDO4/eqXmER/VZF5fE8f3uPTpUi+JFcj7v/1qojwwh2/M3Ht1qaHwwufvH0FT/aEXuh/VZdzRhv45uhG71q3ZrHOKz4vD2wfLu9BUyafPZD5e3pQq9GejQezqRLksCpJ93IPORUcDxs3zFfwNEF5j5ZB7HNR32ls8YaDP+NdH1GnNXRj9anHQ0rZI34yK1rK0Tav8VcVHcXFi22RWH4Vs6T4nAKhm/DNctTL19lm8cW/tHaWdipXPSrSw7GrN0bWo7tcbsH+daEusW9mA0kir35PavPqYeUdGdMayeqLCrtTkd/yqaC32pjd8rfpXO6j8R9N02TDTr8vv0rGvvjzptgrCNtzdOO5rDlNOY9FiiyMDb16ntUjhYI87lFeLax+0lI25bWLb6MRXNap8ddavyQsixq38qapsd0fQjTRk7VK59M1z+oBWv5OvWvK/hZ8R7y58SiO+umZZATlzxmvU4J47xvMXJB6nFHLZgWNKt/MuevfPIr6N/Zp0bOqW26P5Y+c4/AflXz7ocW+5X6gGvqv9mDSDG5favyoO1TPYInqmoxNv28dKzfsu92+vIFb9/Cpb0z+dZ/2f5+AvPy/jWVjUqLaZXoenfsajNl5h57cVqrbb/vKOCABmm/Z8t22ntVWE2ZM1iy8nsc45NV5rIHblTn7vWtuW1YL9aZ9iyNx69OaLGdzGay/hVSN3BI/xorWe0APKmioIuz+lO2DCIbvvd6k6UUV6ADSveoZX3owUfWphnefTtShR6UEuNzhfFfg+1lMk0vMjfd+teYfErwXNHYMPl/eDANe+arpUd6o3L905rg/iP4cknmRt37sIQF966qcrqx51aDi7nwh8StGXSPECxhfu8k/nXovwYtBcaaGdep9Kj/aG8FC0MkqJtkjYtnFZvwR8WLZoltcN905APcVVPSVhy1jc9R8f/C628d+BL7T7qFZobyBkZSuRgivwg/aV+GusfswfHJpIIpre+8N34vLJwu0yQhyRg/QYr+iX4cXtprNkQyq20Yr4Y/4LQfsOx+MvAc3jbR7VftulrukCqMyQn7w/DrXhcT5fKrRWJpfFT1+XX/M9DKcUoTdKfwy0+Z7V+xT8ftP/AGn/AIBaJrljKk0s1sonC9UkA+YH8a7DxRoK5eKblW7EV+VP/BFz9r4fs9/GC88Aa5crFo+uOZrBn4CP1Zfav0N/aI+PX2XVYbPTJEdtgldxzgHOBXdl+YQxGFjWb16+pNTCyhW9mQeOPBtukLNb4HPQenevmX9oy2n0XbtkZY5TsI/Cu21j466rHcSbm3huCPrXmfxM8R3Pi2DbOp253jjocYrSWIg1obfV5I+ffF9nMt4yxjfvwSc1J8OfBl1H4ohn8tsM4OCvU16dofgq3v5NzfMzNyMV6p4T8E6XaQ27MIleMgAHtXK5pszqU2kej/BewE2iwx/ZssUA5XpXoN/ov9m6Y37vkLn+tWvhndaHpumW8azW6sqjOWA5rH+P/wAf/Cfwo8OzXWoapZxKo2sWcYXP+enWto2sePKDbtY/Lb/gr78aG8XaxY+CWX5bYpqE+R9zlgo/HGfwr4w0nWI/CWoW8lvtBU9MfLXrv7enxatfiv8AHrV9Xsm3W89xHaRkcjaqk8e2c14DqDtbLLNL/q48nOe1ZSlc9mhT5YJH1p4Q8V2vi/w9bSRuvKAMB2P+c1csNEGua5bWka/M8oA98H/P5183/BXxHq2r3C2ek+dN5pACJlsH+lfRvwGt9c8M+O4bzWNPmFtb5JyOpA49j1FZm7lZH6PfC62sdC8AaPZybFnS0VSD3NWltYbG/baBtxu6V8st+1BN/b9uoWaOOAAMhUjj/wDVXunw6+KekeNdOgm+1KrOvzozYZatM86VN7nWXe7XtsaZ+ZuBim3vhNbO2xtz04Ard8HXumXdyvlzRNuIVSG613useCUNissYB7j3q1sZWPlf4i+A2cvOF2LnvXlPiOBLO3kX+FeK+pvixawRabIrAbs7fr1r5n8fwxwyT7eQuc0PY0p7ny78UbLz/EMzcN1HTFee6/ZtOAu35cY4r3LxH4VbV7hpGTavr9K848QaUrXbIoG7GAQKk9KDPLdQ0Vp3X5flYY6ZpIPhlJNKuUO1ucletej2HguSedW2tgnHSujl0JbWCNmiIxxjFCkglc8nsfh6li/7xc8dhx+NUdc8OebJhVwCOfrXsE+krcp8q4YjA461i6h4aVWbeny9qvmRyyueOzeFfJH3cHHpWPqfh1mlwF3D2r2DV/C6yLu2+wNYbeHVLsQvQ8D1pgmzyu70Xy0+6elZdzoZDHCt68CvUNa8OKQcqoUDgiufk0PDbmXr7UFcxwsmjFONu7371Xn0bg7gfau3vdIJT7ufTiqFxpG5fmXt3oKOHutIUH7vFV/7HUnoOfauwl0Yg7doX0qFtG2N90Hkcii5asci2j84Cj2OKjfTQh+7n2x3rqptNMY+737VQu7HHAXt+dF3YtJHOS2oK524qlqcHlxfpiuhurLan44xWTrFuywNuqeZg0jP8PQ4GfT9K2FTD/lmqvh+1zD91a1YrRuOO+KlsFEjjj47j8KlWEn1q1DYNL8q5PtRcSx6cG8z5W9cdKm7HZEcNnvbcefwqxDYEHv2rLm8ZWtmfmcBhWbN8TIQ3y5PPWqJO0hgWNRwvGD9aez28R3NjHTmvOJviVLPJ8v3vrR/wkd5e5wzDI49qpSaJaudprD2zoWDL8voaz9D8SobvygwbnGc1yN/9qkQ7nbp0z1qjoV01nqOXP0+tehh8U46PY462HT2PZpLKHULFm2LuPcdRXluu642l6zIihvkb8q9y/Y0+FupftL/ABi0fwfpuBNqT4dyOIkGcsf896/RLxF/wRP+HPh3VWbVJpr+WBkjkwyr5kjEADgE5ye2a6sVjKUEmnqzmpUZN6o/Jvwv4qaREZvrmtbxHZy6/ZFoZm3BQeO9fqL+3J/wSG8JfDj9jXWNe8GaUY9X0EgzuoLMzgbivPsTwPSvye8O+KWsJ2im3LJGdpB7Y6ipoYynWTTHKlKD0OD1q0urO9aObfuB6GqrWM2wsVbHXNdr4h1ODXNbVtqnb3rqfA2k2eqWd1YyQrumUYcivPqtKTsd9O7jqeN449O1KBkVt+IvDn9m6xcQqp2xtjj8ahtdCkc8KWX6VnzIoq6PYXF/fIturGTr8vpXv3guym07QbeOfPmhBuzWb8F/hmdG0SbULqELLMvyBl5xXXCPI246njms5O7A1PB9t5mowjszAjivsL9mXStmnyybdy7ep7f5/Kvk7wRa79Sh4/iBNfav7PmlfZ/CZbgN047is5FR3Oj1CEu7dM9DVRLX953/AMK2LiLL7ivJGB7VDBb4J+XHf0NSVzFNLRcbcc/e9acLUsD+HbpV0WvmDn6U9LTGflA24/DmqSJ5jLkt9wO38R61CloNvBbb61sPbeYOg6cAimNaAfeU/ShxJMp7TPPp09qK0nt9v3aKzkgP6MicDmiiiu4AoxRRQA0/MK4r4lCSyKT4Jj+509a7fGKoazYRalCY5VV1689q0pysznrw5ongPxQ8GW/iTS9rDLtycjrXyd4s0268D/EBtnEMZ3dODX3j4w8FtOQsanb06dK+Zv2o/hVcJbSzW8f77BbI9ua3n/Mjjp3Xus2vgb8Vxc7odjfKOvrXqHivT7X4seBrzSrgK8dxGUcEZ7V8x/sz+I40ka3uMeZnHNfQ2nGSwh86Bi249u9dFP3o6kyunofhr/wU3/Yy1j9mD4oNfacs1vYyXDXdlPHlTbvuzgEf5/p3n7D37XVz8cNDbTdduA2u2IWNi5+aZQMbsdv8frX6Yfto/s2Wf7U/wuuNPurWNrqEF45CmWUgHGK/Bv4reFvEH7IXx5u5LdZLe90m5KyoBgOh6ZGBkEV8BjMPPLMT7v8ADlt5eXy6H1WCxCxNO7+Jb/5n6wfCb4dt8SdcZI03RRn5m7DFcN+0z458HfDPXZtHuNUsY9QgwGhMg3DIz07f/Xrd/wCCQf7V2h/HHwndILiNdUto2WeBjhkZmJ/LAHP/AOqvzc/4KGfADxJoX7fniq8vru6kttdvRe2rlyVSLhQBz/CFAI/rXoU63NHmRtKKPrvwf4tiudbRYZAVk+6M9a9U026823yc18ifBa9vLaWzLTN81wFi7/KMfjX1XpF7Glqd7bdq5Oa2jK5z1Inz7+2J+2rcfAu4/s/TbmRdSmid41DcADua+H/Hv7QHjL40X5k1jVrq6jVlkWNm+UH1+tekft7hvFP7QUhhZpIrezCNjnazMx/livNdH8PLBNtwAqqoxit4tmMqa6IG8P8A9o2ys2fMM5fn0xjNc/8AF7Qo9I+G2oSKv7zaOcdcnGK9FtNPxD8qjGfzrmP2hrEWvwp1T5ju8qPj1+dadxcp0H/BMa0X/hN41eNZGZJMZXkE45/z61+kOiaJY3qNHPbwyJnJDIOTX51/8EwVaTxrHgZXyHcf7BBGK/Q/wjdmAM0p+65Yk8VRxVNzQvfhpoNwjNJp8KtIQCQNpNVW+Cljau8lnLJbpt2hQcqM1wfxN/a68P8AgvUxD53nKr4dowWVMZzWVY/t/eEVt5kkvPm3dlPy8fhU8yFKmz1vw34TvPC+pLJBfMVjwducZNevaX8ZdRs9Hht5i0gC45NfNPh/9rDwvrUcUK6pbrNIGc5bHTk/TrXWaL8ZNH1WQ7b633FVCjzPUkf0Nacxzyjqdp451q68TW0m0tuLHGR0rxfxV4I1a5jZjDJIsh6jnNenaZ4ot7qHK3EZ54+arza7bvYxL+6YLgEj0o5hLQ+a/HXhK90nw5K0NlM8rRsygL1OOK8n8FfDi+vPOutQgmhVSMLIpG4/iK+9rEWF/Ivn28Tx7doBFQ+J/COi6xZtCtrGqbgfujnNTKR0U69mfHukeGI4fl8vj88Cr2peGbVLdWZVHHYf5FfR1/8ABfRJtxWFUVIwFx3PPJrm/EH7PlvqVv5cNwyfLg896x5mdccRFnz8+j2N1LtTZuUYGDVK98DxyhvvMM8D0r0q4/ZI1fTNYe4gvvNhK52tyf0q1qvwZ1bTbFt0e7y1y5HWq5hc0WeNz+AY3bhVYKKyZvgzJdzoturMzHpjpXfXuqwWPiJtKkkVL1YRO0R4YIehxXXfDa2ge8SaYL5cfzMT2odRoPZpo8Zuf2T9W1WFWRGbbyyhe9ch4o/Zw1bQgQ1vJIq/MSFI2ivrvUf2pPCPhbVo7GaaJZFOGGeRjjnsK6HUfGXhb4heG2ks5rWSTbuAAUmkq8ifYn53638NriGPd5TD14rnNR8KSW0u1kI285Ir7O1/wlY3d1LH5MZXO4DHSuE8S/BOG+lJj+ReqqR39vQVvGow9mz5eudB2ju2fyqlc6Kx6KR9BXveqfAiZeVOAx6DqKhX4AsycqTkfLjpn3qucpQZ893ejskW7Bx+orJvdLwfu8HjivoXxZ8BriztDIiblUZxjtXlGu+HWsLt4WXbt9aOa4tUcDPoxYM2DwcgdKxPEukbIM9a9Hk0cMnTgH0rmfGOnbLfbtA3Ec+lAuY5vw3pe6D5V5HHsa2I9L3MM1oeG9LWOy3Y5PWryWWw+3Uc1MiuYb4Z0Jb++VG//XXAfHqA6HqohjcqDjj047V634JsN2pll6qteR/tHFrnxYi43BR1z1pR3HLY8znlecZLMaIUwy+561Yi02VwAIyc9OKuWfh6e5bHlt2Nb3MuYoxReTMp7Z9K7Lw3bR3EH3d24dOuKpp4HuLiFW8vleuB0rrfBfgua1XbIp/HpWUmUUpdCUp65Hp0qPwv8Nj4h1wKy7UzySK9Di8MqUXK9P1rR0bQ10zkDnP40uZgfUX/AASo+Gtr8LfGd94ghbddRzQwRk/wqPmb89w/L2r9tPDvhvwrY+BLHxFeRwyNlbkM56y9c++D/Kvxx/4J7apbyaJqEMk0cZt5jO7txgEYz/47/KtX4g/8FGfHXjbxTL4L8PyPb6Dpszw2x5aScngt6LnsPeqwuBni6/souz8zLEYiFCl7SR+wOt+JfCnxD+CHiKzRrOa2uPMSQHGHmYHBPvnH5V/K/wDtheF7X4f/ALTHjDS7GSOSC11CVf3eNq/MeBj0r9bvCnxC8XeA/wBknxXqF9NfW80YxaOc7mYjORk9Rnv/AEr8hfiZ4Oum8b3V1eySTSXUrSSSyNuaRickk/jWlTCvC1ZUm727EUayrQVSK3OLsNNlvLhdqsB6+le2eBNDt9O0WHayyMy/M3qT71xun6VHBZr8qr8oBOOtdV4W0TWL7Q2+w28kyIT8yjPSp5J1HaCubc0YayZ22ofCTw5quk2txuje6lXMoXqjZ/8A1dafp3ws0ey+7ao232rkfB81/L4kSJo5lMeBIzKa9PhPz4PpUJPqEmuhk6/AtjpKxKu1cgADtWAg2r/tZ5re8aShYo1yc7unoKw487l4/wDrUyTsfhdbGXVYh36fjivt/wCDdgtp4HtRj+EZ/wA/5618bfB6xa41WMdVyOD619zeALH7N4UtEKhWVASMcVNtQEng2nI/iNNitSMd+eKuzR7z79qEhztz+lUBXEG4dPcYpwtPlAbP+NW1t9zj9KekHysWxtziqUQM8QlR29gabJDuP3e/WtB4fl/lx2qNrXD7c+5PrQwKLQbh0HFFXPIyvuOaKzaA/oWU5HTFFFFdQBRRRQAHmmsm4U6k6GgCld2yyR9BXnPxP+Hkeu2M+4btykAV6ReEW8DFj1Nc14g3TnbH83auqnqcNTc+EPit8OZvhfetPZeZGyydu1es/s4eO5PEegiO8kDSqdvPWvTviX8IY/FunzZh3SMOfl618meOJta+BPiFpYY5fssbjcew5rSPuS8ieXmXmfWSRrbRTBl4avyL/wCCvX7O8Wu/FrVdbsYvMn+zRiaMD74wf8a/RDwD+1ppfinScXEkaTKvzBmwQcV8i/tX/ErTPFnxq1CMyxSQyW8akZGO4rjzbD08RQ5JHVl8p0qvMj8kfhP8bPE/7H/xQbxB4XkZNvE9szEJMM9D9DnB+tekeJP+ComnfGPxvdat4t0/7PdLZC2gVPn5zknPv7+ldh+11+yvFercatoTR5kVnkhB4J7kV8g+Hv2dbzXtYknuo/Ljjf5snG7HpXzmFwtSl7kj6LnUtUfW37PP7QWl+JtTkvpDHa2tocwqxwT3/P3rpPih+17qFwzW+jHy1ZShkbP6V4H4a+HUHhewVYGboFPPX1rTa22z4+8FxXoRp21ZzzKWszTa9qcl5eSNNcTHLO3U/wD6qrrarE33Tljz+dbM0MaxK20deapXYWG9Zu0Y4xyBWpmaOn6d5VkPvbiccDpXAftKbj8ItQ3fe/dDOP8ApoK7Lw9qdxqNrLLJHsUyEQ9s7flJHtnI+oriv2mRn4Q3x7mSI/h5g/8ArVPUHsdr/wAEvFWTxRC3zNttpMYXj73c/h+tfXX7U/je6+GX7N3ibWbFvLuBGttE392SVgike43Z/Cvkv/gl6MeIHZV3MtqcZPT5jn/P1r6C/wCCid+yfsc31vHu3XWsWUZ55P7zI/UDilOVkcvLeRs+GPhJ4ZvPBmlwXlmtw0lok0s0hy8hZQwJOPf2rlfFn7LPg/W3uTbwNAx4DAk46c16XZ2yRaDYwxhv3dnEgHoBGq1U1C3NnGw3csnA7jNc3tDaVPQ86+Gf/BPTSPiN4hktbLUruNoozKwEm04BA4PpzXRa7/wSk8TaZJ52j+I7yM7QVBfOO4xg/wCf1r2X9ke18nxteMp3SfYyDx6uK+px4S1AeHYdREMjWsgwrDoe1evhaMakOZn5fxJxBisFjXRpfCkvxPzNn/Y0+Nng1pDZ6tNdqjBuXPuOvWs271H45+BtsdxpbXqxkH5RnOOp55r9O49JuZbPzPJkaHG0sV+UVWufChu9oa0WRcAZZOtb/wBnp7M8WnxxiE/fgmfmpL+2B4+0KWNdV8MahA0edpVTycfQ9K6HR/8AgopDbD/ib6beWsknTcmF47V92at8L9Dv95utLtWZV6+X6+39a43xZ+y74K8U20JudHt/3TFuFHBxjj6elS8vfc9Kjx3Sf8SDPm3w3+3z4T1NP311JD8v3HQrhhXYWn7UXhPWAvk6xZiSRRhTIOCetanjT/gnT8P9a3CKwhty7dFXYQOvVa8R+PP/AATS0vwXozahpmpXFuBIkaDzDt3H1/Xn2/CuWpgpRV2e9gOKsHiakaUL8zPeNK+JFrrM0bWt1HKrME4Yc9/WtvXdQYWTfNu34B46jpXwl4c+HHjb4XqtzpuqT3cdrvkWISA/dGeQevA/ya+mvg58ZI/jB8JrHWB8ryDypFznEiHDD8x3rjcbH1SZ87/Fy53f8FF/EFurN9n0/wAMW67RwpZlRunr85r1hJzafDa8uIn2u0ROR2A/rXjczDxF/wAFBfibcbtwg0y2hBxn+GIEf+O9K65vEH9q6Fd6CJtrMpXZjt69c9amUTupWtqeGWumw614lllmmWSSSYsS79vrVHXfFGteDPFMJs5pbdOxQkbh0rMvfhx4k8HeO+I5pLeRuCOQoz6Zr2jR/wBmTWvG9jDfagfLjQfKnRj9eDge1KMWzaUonS/CjxbN4isVlui7ybRuJ9ea7XUtQWz0+SZipCjgGuV8G+DP+ETfyW/1gwDt9uMVZ+Kd9/Z/hKYhgp2jtnPOK64x0OeUrHnmtfHRIPEXl7XZUbaee9epeD5x4g0qO4G3a4DD3FeL+C/huviyNpGB3Bs7tucZ/wD119CfDrwh/YPhKGHByqcDvTlGw6crlK+0yO5tpI2VTuGOa+ZPjh4XXR9fk+XbkjoK+sLq3IVuv9K+eP2kl83WRGF6n8cClT3HW1ieMy2y+X059q5LxzCERBt53V3V3abDu6evNcR40TzLuMH+9gjFas5RdGg2acvH4jvUwg5xxhu/pViyi8vTUH86bt2859vpWbVzQsaRerpjMVHUYz6Vx/ivwXH4j1dppO/SulZct97Axihl4/nx1osBzFp8OLOJf9X0rSsvCNrbhdsYyOhxWp5fy/hyc06LDnp7DimTIrW2jxKvEar9OlXIIlQY27ce1PRfnx7807azfnxxSJHADfnAHpUkaZbpRFbtUjPHaKC7quOOakDuPhD8QJvATX0YklWG8jEbhGxn/P8AQV7P+xrpVp4p+Jdxdvbo2HUgkZ6nvXzt8M9CvPij4qg0XQ7WbUNQumKRQwqWZiAWPA7BQST2Ar7C/Yw+FuofDLxTt1i3khbzlBJ9BnNEXZ3QpaqzPrD9uLSrLw1+yL5KwRxhrXzOF/iJIB/IAfjX42fFDwg2t2qzRrukU87R97mv1p/4KU/FLT779n9bCxuFkkEEUeF/vHn+Zr8z57HMBBwa1k7kU1Y+drnS7keKLHTX3L57c8dq/Uz/AIJj/sqeGPGlnBHqVqs0O0bgyghuCf6V8RS+CbOfXl1GSNWuo12qfSv0v/4JSWnnaXatnbx831APH61th606bfI7CrwjNe8jwn/gpN8EvDfwp8d20eh6fBZLJksUQLnk9cfhXytKm2T3H8IHSvs7/grJKsnxJtVVuin8ck/5/GvjmVct0xn2rOW9wjojl/Fsu+5Recqu76VmwDdMoGeoxV7xVIJNWcfwqoHTpVOxG+4X09KVjU9d+Aentdavb8bcyL1Gc819x6NaLb6PDgEYQDFfH/7L2lNda7Zr82WfGMfT/P419nSQBLONR/CoHNQBmumH7/4U6NMj7o7HpTni4/HmnRKx56friqiACMBf6etSCMHntj9akROMcZyOKkCnZ/OqArGPZn5cZNMaPL/QjnHWrQTc3H4470148v7HrQK5VSEjv1PNFWmh+b5f/rGipcewuZH7/scUtR29ytx905xUlbFBRRRQAUHpRSMaAM7WoftaeXXI22qG21d7djnYcV2uoudmFHzH9K5i80uGw1BZm5dzyT3rqo7HDWXvFhQUXBj4avM/jX8HbPx3pFxC0Me6VSDlR1r1iG6SRWfIwBxXG+O9YTSpPO8xfcZrojZ6MyV09D83/wBpP9mTWfhpFc3WmzSxhckYzj8a/PHx94v8RH4i3jTySNcPL5eMngAnAr9ov2i/F9r4l0ySNtvyqc1+T/7Rmk2+m/GGaWLy8STFjz3wa8vGaOyPbwMrrU4WfWtbvrAw3EsnlsMFSK4nWtN+yNt2qq57CvStQ1mMptwvynqa4zXJY7ppG+8VP0xXEd3KjnLbT2ubVj1Oe5qneWv2W23Y+6OeOtX3vGsQYx06HPHFVbiRbi2bzj9QaskxfM+0fIo+9yOe1UtYjWBJA3px+VaVvKhkwNu0EHHfjNZ+rzC8aQsBhQB9TQZmZ4F1qbWp7i0YnZpIjgCkYKsQZH/NmNYH7UMPlfC67X7oaeLPPH3/APJ/Cu9tfC6eG9UvLiFXj/tYpcgdcBVCnH1OfriuC/atuFX4X43K3m3ceCD05zQN7HoX/BNCIQ3U8n8X2XHT1b/P517Z/wAFABNN+yxbxK3zTeIrFFyO+5iB+leN/wDBN1NltcMdu5LYDj/e4r2z9sn/AInXwi8MWAUyGXxRZBl6D/lp/if0rnrysrk043kkexeFfDk2pNb28cEjSNGse3HooH9KtePPgvr3h6yjurvS7+2tZiCs0luyx47fNjH619P/APBOr4Paf8SfjJpq6hDHLbrcNK6EZyqKz4+jbcfQ1+lPjz4SeH/H3hO80nUNLs5rO8gaGRfLAypGCK+LljszrTqTwUIyhTdnzSabdrtRsmr22vZN2Wiu17uKp4bDKEKt7yV9Oi2Xrsz8W/2W9PFl4rvmx921Az6fOP8AA19z+HfF2kXXwx0HR5pIzLNasr9PlYHgH65/SvjbwBo1v8M/il4o0uadWj0+eS0VyR84jlZc/iP516J/wl1q/wAsF1CGwOQ2MV+gZLXjXwsaie+p+D8bU6tDNalo3Vkj6bstQ8PweBrywjaHZaskbtnOWYjJrI12S3OreXawxtbKQFK+mK8D0zxekgkEc6+WD8wDcZz3/nW1pfxMvbO2dI7ncF6bsErxXsKPZnxMsXfSUT2qT4a6Xr9zc23yb/JDlh2z/WvPviR8M00rWtO0nTVaaQgZbPcnH/165qy+KupwQSwrcN+++Z2A+bHati2+NM9tdpdtHHLdLEURicfNjGf/AK1VaSMKlShNfDYj+I3wfk8N6V9qjl85rfAlK9AcDPGPevmH9ru8lg8AJtHLXaZ/APX0dofxSltbHUrXUGa5GohmJY52uRz+B4/KvmH9r+/P/CJafD5g3Neb2A6cI3+NY4i/snc9Xh2NOWZ0fZ9/0Z4z4Rtoz4v0tMrmSYKwI4wQc1zf7G9rHB8C7ieM+Stz4jvfLQ8bE+0NgfhmtDwnqq2vjLTZ2yfLk3ZxnAwaw/2Oyzfs5eHFkI/0i7uLhj6s0z5NeNboft8djzf4e3P9rftmfGW6X7kNxDaq4GMYyP8A2Wofi3pGveFvEkOsabHIyZ5bbnjPSpv2WVXV/j/8YL37wk1xYunPDymvePGmkLcWwUhWj75rWFNM19o46Hnvw++POi3OjrNrlm1vcRoN2Fyp9a6TRP2ztF1q+bR9Dhk8zGBIwCqO3Fcn4i8EQzq22GNQwwSB/wDWryMeA5vCHxItZrYOsck6598nGP8A9dN00jSNRtn0rbIHmMznLOAc+tch8Xr9LrSPJHUnHJ6/hXSa3K2j6BDLyMqM9j0ry/W7yTVbxpGb5W6DpTiEzqvgukdhpv75lRd27r1P+f5V7NYahbz6OscLK2F5xXz1pdzJDpk0SNtKqTnPf8KsfBn4oT2uuyWGoXP7tfusxxTkFPex7fPBtVuM18u/tDZTxc68c8nnr1/+vX0JqvxY0bTrJ3e9gG1ck7xXzD8YfHFj4g8TTXEUkewMec8H0qItXNpao5G9fcvTt3Ned+MGY6rGBzyT0rtrvxJZpu3SJ7jNc7qGoafLeeZ9/bzxVNmPKRxLIlqvbgYp0ULufu4I56dKq3njBVTEMPoORVO48XXEibV8teeuKkDXFszfe/OmtAIz8zIuODk8Vz0mrXMz5acj26VWe7aT78jNnrk0AdI95bxk5k+vtUqavp9rHkyb2z2FclE6hujbRz9asxzoI2bb8wHFAG8/jSGInbAz+9VJvGNxK/7uFY93QVmK3mKq/wAX+c04RbPmH8XapkBZGrX08efO288Y6ioTZyXTbZJ5H9eauWOkS3Ft53IRuA3YmkitmtrlQzfeYcgVIH6V/wDBtX+z/Z658cfi74suLNb1vBfgpRbNKMrBcXtwMOPRvLtJVB/uyP619a6p4A0vVJCZ7NGYnJcLyT61xn/Buf4d/wCEZ/Ye/aS8XIpU6vq2neHo5Omfs1p5uPwOoH869dmjzK3y4XsPQVSic9SVmeVeJf2YtE+I04tWt2m3ZYKSSqge1fPf7Wf7D+kfCr4Ua74kX9yumx+Zk9mP/wCqv0I+BWjx3XiK/mZQ3lxImcdMlj/hXzt/wXa1+PwZ+xa9rbARza5q0NsAgyXA5Ix+IpbEqR+SM2vo1qNvJxn3NfbH/BPb4+ReBvBitJNHC3KEswzn1/XFfDf7SnwO8dfs5aBY32q6a0NvdRJJKQNwgLfwMf7w9P8A9dcD4U+M2qvbxta3k8IHJEb4FUpM0krn2R+398edM8XfFTb9qjYWsYU/OPvc5/EZA/CvAdN8Z2WsSNHBKrgYPBzivM/Hmhapqliuragl6yXZ3LM6nD55zmsbwHN/wjOqeb5jMrDGPer5mHKei+IXWbVJCDuG4celQaWu68BPr1HUVlXPiVZLgsePMOcdK2PDE63t0GUrjjrRzDifT37JOk7/ABFatjdtAI9/X9K+r7xsQKN3GPSvjT4HfHXw78K7n7RqF1EpWPG3IyMda9X8Kftt6H8Q9aaz0uO4umjQyM0YzhQQCx56AsB+IqRq57Oc5Pq3vUsS+YOM8DBzXn+m/tC6FezeVJcLDLkLiTg5+ldPo/xE0nVAqxXluzHtvFVFgdBDHlRtz+NTNDiP0x3FR2sq3UYZG3LjIOKsFOR9enrVAQ+T+XrR5WRg5z1PHepgmWoSPBzxxggUWMyB04GOP50VYZcN/iKKNiZSsftT8K/j74V8c2cC6frFnNNN91RIMsa9CimEnOeK/EH9mr4eR/DP4saLfWfiLV4445lVo5rtmjIPHOa/X7wzr1zdX8c8c3m22wDGevFY4evzrU7Z0XuegpOsjEDtT6oW94biPzFXGaltb5nB3jDeldRjyssq24UkjbFzUNxcfL8tVbu9aWLavJxVRiIrazrC2se4/j7Vy2s6m2rfNHuyvStDXH2WjK3zGuP8QeLYfDtnuDLnuK6oWsc8otlfXtevdCth+9Zt3QE15D8Q/iNdLBdM0m4rx16Vf8W/EObWZJG3FVjJA56CvFfG3i+QefCSDuOc5qalS2xVOjd6mB8RvF8ut6XcRj5WYEbq/Ov9qm0udN+IEO2UsxmLEnvxX2v4q8TyfvFXd8tfDH7WevN/wlkO1trNO/J7YFeTWlzM9bDxscyupyTQtu/iPHPTtXLanfSJqzRs2EjbLj39KTw3rTyJceZ8xaTKk9hjtVXW0Dyb85/iODnBPestTqkUb3WGF5Iq7W28AnvVee+a4i2+2DgVny3Xk3T+Z/EefbmiTU1Azt6d/wBK1MSSMmGduflII4P60zO8SK3CscE+lRWt5um+769qr3V6wbA/iGaCbo0NLlmjAWSTzHWNYwcdAOlec/tPybfAKpnO25Q/jn/P513ElyyyJhsdCBXnf7SThvBib23F7xN3/j3H+fSgmT0PZv8AgnZdLbwXJzytqoXPcZyfy6fjXsv7WOsR2XhjwTHyJJvFNo5Y/wAIUMc/+PD8q8a/4J+xLLYahnIKwxMpwcD72R+PH5V3H7aWoyPpnw9tdu4y+IYyfwQj8uea5MRtY0o/Emfop/wT+/aDk+Hvxu0ebb5yvceSYR1kDgo2PfazY98V+nHxA/aZ8M+EfBl5qCXn2q5WBmhtEU+a79ApGOOSBk8V+KHwD8VxeCPiro+pXDN9nsL+OV9o/hVua+j/AAx+2ZFrXxBuL3W4TDpkWmyLFExDFpEk81fbJHy/lXy0aNSjKpChKyqavS+trafI92vGniIwnVWsVb1W+p4l8VPCfiDVfH16y2s4nup5iSvBdlJZz+uc+9eYXeqa5o11eR/aLxDZgpIDn92Oev8AnvX15P8AtHeG9W+LLXjG1h02w8OtcO7r1urqWMspHX5V2An3NeO+ONa0SWL47MsaQyqsT2h6BA0scaqPwavoMvpqlSjCOyVj5zMqca1RyqJani1h8YNatpdsN4zbuDn6Vv2f7QuvpdMvmRtHtA4GCDx/9evMIH+yzP8A7KFvpxU9tcOknmfdLDAFepGrNbM8GtlGDn8VNfcezW37TWpRH94gYdBtPHvWhD+1r5Em2SNlI55HQd68LvL9wHb7qR57/wCfaqsySTSCTc24IFNbrEVO55tThfLp70z6Etf2rdOuo2aaXZJHGWAx1x0x9a8X+J3xOuviJ4j+1SMy26sRHHn7qn/9VchlnaZmPzZPHrU9rJ5ieYR8ipzx3pVK0pqzNcBw7g8HU9rRjr59PQs2N4LbVPObaFgVpcnthSR/Kk/ZRgXTv2b/AAMzKV8yzMnP3mJdj/Wsfxfe/Y/DurTq3/Hvp9xJ+PkvitT4HzSWXwR8A25b5otJikZc9DsB/WsT2+U8j/Yp1JWvPiNqEjjzb7xJISewxk9f+B/5zXvWveKoPsiq8i+vWviL4F+KNQtdG16S1mkhiu9Ynl4OMnCg/hjFdVe+NNQZebmTcvOcnk0Rrcuh0/VebU991bx7p9oXEky7c7a5nXfiFokWpwzM8W5GUgbucCvC9U1u5u5/muJOep3VlT374+Zmb1JNU6rZccPynvfxG/aR07VbRIbdm2rnJx3rzu/+NaRn93uZVHHbNebT3eWqk87byeT6YNLmYcqZ3F58cdQeWTyMqreh7Vjxazr3iGGSa3kkiUn5nRtuefWuXlusZ+vNejaB8XNB8KfDKOzWEzalIVaTAxtxnPNImyWxB4x87w78O7R5LuaS+um+fk/IP84rzhrx5vvOzseSSetdF8VfitH46htILe3NvHbqM9PmPSuQhnzVRAsyPjp+Rqrc3uO4+tK7d2+7UKncGZv/ANVUiZMjubnaDt3MajjlwWZv4eTk96NwDD35OKieXauMd8AUEi+e04apljVwvuM81VjVg/XbU5cDHt+tAmwCj7uPx7GrEXMWPmPPNV4S2G/ujpxUkN2qIFPB7mgXMTW0pjk3dQeB610XgHwbefErxppPh/TIzJfatcpbQjryx5b6KMk+wNctHOG+6G219m/8EOPBXh3xJ+2Rfa94quIYNJ8C+GL3WsysAGn3RQoOep2yynj+7Uy7lLVnlnxE+FEyeJfEmm6RHt0f4e28cV7cOMDeTjPuWbOBz91j2rhG8LSJcqXQ7lG8gDlfrXtVt8SNP8VaF4wuxIyaP4k8T3GoagiJ892Y5X+ywfQK28jp8wrkr3WLLz9ZvJEUSzQxw20f90s+Tj6KtSZ31P1//wCCMeit4D/4IjX1+ysjeNvH+o3iEj7yxNFZn8P9CIrrpSvlnuT7U79jjS28Bf8ABE39nPS2Co2tWt1rZGOXW6urm7DfiJwfxqtJJhcVotjCruejfs+w7rDVJsf6y4CD8FUf418Xf8F6PFc6Xvwb0GzRJ7qfxAl7HE7YV2V127u+Nyj9a+3/AID2/leChL/z2mkc/ixx+mK/LP8A4OFfihNo/wC1B4Bt7eYRzaBp/wBqjP8AdkMgYf0rN6sIbmR/wVs8fy6R+yx/Y+pWqtq2peVvcDIj9efb2r83/gt4Vn169sbGGKS4mvblIljT7z5IBAr0r49ftI+Iv2hbG2s9cv0kt7eRpsJgby2OvsMcfWuc+D3iaP4dfELRNXhI26Vdx3GOoIB5B/DNVFNI35kffHxOtfDnib9njU9L1TRrXTLqw0xvLDIFFqETPB6DgYr83PCVo+o38cSDzPMuBFHzjcScDn8R1r7L/bx/a88E/ED4TR2HhuZrrXNSVVmaLO2FCDu3H15/n+PyN8P9O8nV9NhY8yTqpIPQkjmppqSWpUrX0Ox/bT/Z71P9nKDSJFvBeLdRh5GjBwrfX0zXlGgeIr/XLGNIJpVkk+RQhwcnjivs79ub43+D7n9l/T/DLMt540vrgLIeGa2iRMFmPbcX49dvSvAf2LfB1nrHxtsYXhWaGGCWREYZBbGAcfiaFL3bsFG7seReMvh94g020+03Qvlt2OPNOdp/Gv0A/wCCCn7Llz8UtI8e6vJGjW1rJaaatxIM4JEs8ig9vuw/mtejf8FEvBnhbw9/wTttb5be2j1S6dGSUAeZuaQ5A+gU8emK+jf+DfP4bw+Df+CbVvrBj/0rxZ4h1G/ZtuMpGYrRfwzbv+Zqfac0blSjysb42/4JvwXLM0EMLN1yq15b4s/YE1jRZvMt1vI1U5BRz0+ma/RqS3U1neJfLt9GuJHVf3cbNzz0BqRe0Z8VeGtAbw1pFvZzNukgUKx65NaROeffnIqfWXWTVrgg7vnz04FV8ZUenrXdHYykxxI69c0IpUezd6QNz3/wqRRkfN3xiqJG7Vc/N6/lRTtg7Dv+VFS4t7EyPpLXvCngq9iVtNWFLrdlBGeQa+vv2cZNU8PeHIRfTSSLJErfNzgkZr8xfhr+2R4H8U+M7GGD7ZHM8qqqy2zJgk8c9Otfq58PdfsfEHhbT2hACvbRuOPVRXl4M9pe8tD0LQ/Fsl1H5aqBgYFW4NUkW4xJx6e9ct4fZrZ2bH3jxVu51ZoGaRlz5fIr1oyJ9ijo73UtoC/Muarz6t9jhLL82K5+28Wx62hZm2FeMZov9RzGRGu4EVpFmbodyr4g8Ubwyqw3N19q4LxLZi8s5JpG4UcZNS6hfSL4ikRlZlfmsnx7qwNv5cQ+VRzWnNoZyoWPL/EWpb4pmX5FU7frXjfj3V2hieSNlyDgn0ruviL4h8qSSFTsUZJ9zXh/jfVLi6uNsLful+ZsnrXJUkVGmYfiXxN9n0qf7vnMcE46V8QftHhrrxVDu+8twxAz7f8A1zX1zrN6DbS7mGQcZxXyB+0rqscPiC3l4/eTOM/QVxPc6qehwllI2n3LLjcC+fw7VBqmob+3uDWfdeIo2u2+bgDJGe1ZWq69vX9CetOxUpDtQuftDM/UdiTVOLUPMgYMAPbHUdqpzahi3YL8uTULOyxgsCp6D61Zk2b9rcxqik/X61BeTAyBuBtOAKz7e9aNRH97BHPpUV7qHkjYSSzfzoILdzdYBfcMYwo/z0rgv2i5PM8EWo7vdpkZ9Faupa6E427u2c1xfx4fzvDFnz8v2gfng0Ey2Pfv2CVZNMvFVjt+zw5GfvHn/A/nXf8A7T2nf2rq/wAN7farNNruSMcgBR/jnmuA/YXvltNKvCenlRDO30B/xr03433iXHjz4ZyKyhU1WU5PYiNT2/D9a5MT8LOjD6zSPtf9jH9k2T9oj4j2um+YYIZpGWSX/nmigs7fkMAeuK+uv2hP+CRGiWXwsv7rwneXjaxp8DTxxzPuF1sBOwjoCcYBGMEjgivOv+CRfxN0jRfi2unXM8cM+pRTQwbjjc7bSPz2YHua/RX4meJbfwf8Pda1S5ZVhsbKWY5OM4UkD6k4H418NTy1YqFfF1qsozpt8tpNJJJNXjtK73unporHuZhi6lCrSoUUuVpX0Tu29df8j+e/xMkkIn65YgEdD/niuXutbmcTQtJJtuyvnjcf3oU5G71wQCM+gr0X4rSQw67fSRoPnuXwo9Ax6fpXlWsBpbltq/eGTx0Oa+wwMnKlFvseLjo2qNFi7jiWNvLwdy+vr/kVm/2mPtbKeI4xg/hn+dEl0uVjDfMw3Y9v8iqkTIrP03M5zx2HFehE82Rr31/Hc6arnknBYegFV7a7kvZptuVXAB5wPp/n1qujwLGsSDqueKktG8uJoxldwycdTWhiV51Im2r90/eHr61GbgpbNGn3pBtHGcc0fbkilmdv7oVT27k1R+2+beR7P48HP60AZPxbv2s/AfiOUt9zSroAg858lwP1NdV4dvV8MfCHwuzL/wAefh/cR6kQdf8APrXn/wAdNQW3+FniMyD/AJcpkXtuLLtA/Wun+IWprYfDqNWP/Hn4WcLx/wBMdpH15/SgZ8ofBCTy/Ar9MzXs0h785A/pXQatIyp8rfhXJ/CKVofh9anLDzJJWPHTLmt+6ut8f3vbmsep6MfhRAys8R7nHNUbs7Vx+lXJJMqPyziqN7NgdquJMmU5GwfT1qldTbD3A6/hVieXDEe3BzWZe3CseOO30rRGMmQzy4zhvvVRkl5/rUsk+AT97+tVgd821fm3Ece9Vyoka0+SPm56fSnW83lnk1oXPhm6XS2nSGQxQjLtt4Hf+v6istY2TbuztPOKZFywGLv+XemzHYnrzTvuoenTj60w7pv4fu+tOwiL5lHyqRuPFNiRY33E/dHOfWpcEKMt9TTJG8x8ep9Opp8pFyusxd/RexqT+Jf4jjJoMe9+O3PTrSo+zqBwetDQieyhkmmWFM7pGCj8akvdAubLUJlZGWO3OGbHDGr3hOH7b4p0+P8AhM6ZJHBw2a6j4j4Qz7FG1pKi+oHDwwYHP8Q5rtPgR49uPAPie8kt5PJGpWcllI2SMq2Mj9Pzrj5JfMiIXrx+NSWP7t1ZfvLgjFMDuNIvZPDNh9h8zdB9oe4WID5UZgAWx6kKo/Cq97rzTS3Uxb93bws5wfvEAn+lYX9pzXXysTkjGa1/BHhObxrqsOjRYaTWLiHT0B7tPKsQ/V6hlJH9GXjfQP8AhW/7Kn7Pfgsr5beGfh7pVtKncOtnAjZHrlD+dea3E2yF29s/SvZv259Shj+N0ljb7Vh0uygtEUcBQoPH4DFeJ3ozZSAfeYfmTx/WtFscs/iPbvhNanT/AADpad2hVz75GT/OvjD/AIKO/wDBKVv20PixJ4pkvpreeOBbaLYRgIBxkV9zeGYFttBs4x0SFcflTNfvVsLGaZvuxqWPqcelZFRR+Ifjz/ggp4z0aZhpWred/wBdFxn8q8l8Xf8ABIv4xeDCzQ2cd5t5wjYJ/PFfth8O/ixeeN/i1q9hLYvHDauEj4yEUIpOfck16tf6faSWjNNDCyqMsSgxiq5ij+aTxd+x78VPB7t9s8L358skHbGWHFcc/hfxN4WuVa80nULWSEhtzQsuCOetf0e6PqPhX4heMtQ01LG2mWzk8nJT77AAnHtkkfhVrxN+yF4F8WI32zRbWTdwd0QOKfMHNY/mo124m1zUpbq+WaS6c/M8gO6t74KfFWb4SeP7fWYUEjRKUZD/ABK3XFfvL4z/AOCWfwr8ZrIv9j2Ssx/hTbj8q8S+Iv8AwQj8C6vLI9gstrn+41JtdS4yPyx/aX/a51z9oPQtH0CQyWvh/RfnWAtzcSZJ3N9M4Ffut/wTK8Dj4c/8E4vg/pjII5JvDlvqDoP7128l2fx/fCvgrxt/wQMkhMp03WJFzwu5c7e34/nX6cfCHS5fC3ww0LR2txZ22iWFvp9vFnJSKCJIkB99qD86zdrWRTk3ubrt+S89K5f4p6p9j8EagemYii/U8f1rqDHvB/PPpXn/AO0PdfYvAUin5fMcDp16mlHcR8zzS+ZcSNjG5yevSiM4x19MelMTkNz/APWqaOPcfX1FdsdiHuLgn1p4Uhf6GliOf/19acybVB/DmqEESbQKKdGCfl460UEuWp97D/gnL8PdOkFxDpkUdxE29SoAwR07V6H4VuU8FWcNrErbbVPKU+gXgf0rZ+EPxW0n46fDi28QaVMskcq7ZVDcxOOqn6GuU1vxPb2LTb5I8pIwPze9ePh2lqj6KhT1sz0PSfFzLbxtuwx5IPaoW+JflXrQzR7kbuK4DT/EEOrWBkhnXd6Z71nSeIZbWdVLbiO9d0ah6UMNFndao013dLdW8phhHJUfxGr+jeMTaShZmMmR3rzz/hKLjTrEvMWKt0A7U7/hKzeWHnRqSV6VrGoOWFTR22q6ktxqKyRj5myT9K5PxjqUNpp8zyMAVGetSaRrn226Bb+Fea4n4s6ysvmLnbH/ADq+c5Z4fSx5b441j7dcyzSL8jHC49K8x8YRRzWcnlcMwwT6V6BrV9/o8jMFZf4Qa828X6hFFbSbXAbG4isKktDglGzseQeLRdWFw0O4tGxz+f8Ak18q/thx/Y7nT2XjdNJnBx2/+uK+tPFGoQyShpO+K+Uf2z40luNJCsVXzZSPxArm6j2R4XBNJcXDN0yOuOlNvJ/KU+oOOTT0lC9Me+e9Zl5fKpb5hweBmtiCR7jftx06YNNuLsuBk/e9B0NZpu1Bb5j7VI96qRBTzuoMzSttRWFV/iJGOetVb24ablvvck1Viu1CFd2O9Rm65bdnbmgVyQXJLj5u/p0rj/jVOW0a0XLY8/jH0P8A9aujFz5fcHnPNcp8Y7lZNLshhWLTevTiqSM5H0V+xyTa6dcBf4o4xkn5QcDP+faur/aI15rH4o/DWFSWRLyaQqDjOQo/oa8+/ZQ1N7XTbgfLgiPnHQBf/rmt7493TXXxs+GqFj8twXJx/tf/AKqyqQuVCbWx93fsT+OodK/aK8P/AG2ZI7VZZd+44C4Ruc+gr7G0z9rHS/jtqOq6Rea/fS6LpdpbX8izXbPG6gsZB1524QfjX5d6Ff3lteq8LSJMp+V4z8w3ZGBj2NdJeXGteE428yO80+C+tvIfchQTR5BI+nA4rwsRgMPOonJK56tHFVVH0PtbSPhB4O1X4o69pNwIZP7H0+3kuGwCq3V1O7dPaPy+P9rtXzx4p+E2jr8MfH+uRR4Oh6nJa2xA4YecEXac4Pykt9K8wsfjZ4i0fVrq8TUpFmv7mC5uJGPzTtCcoD7cDj6Ck1v9oXVdR8D33hto7cWt/cvfyOmdwdzk8dMDOB7GvVoxSSPNry5mcJNBvk8xcYUgdaptG0RIHO4ZwR19f5mpy3kWkjFx94cZ61WGpYLP83CFF46E8V0qxyMJJJIB9oJCrgYHvVyy1aMQvM+F3fKM/lWbJa5jVWbdtG4fN3PtRCYvNjWT/VwEEgd//wBdURIsIy30Mh+6Gbbj/Z71XI+ysu3n3A/SpJLhlkzGqlpugzwgJpdix2vXcxOB9c0EnCfHq7+1fDC8hQLukVAcL1Z5o1H6GtH4zaw0fw+8RSdrfRDErBuPuYH8yKxvj+mPBTNG21jdWsQHc5uEz+maofH7Ujb/AAv8VbW+VrPYuOmSQOaCkeGfDibyfAWm9sxls+xZq2G3CPgn6elZ/gez8jwTpYVefs6ZH15rQlzGn4elZ9TsUtBt1LthX5ue9ZN/clidvy+tWp3JPX35NUL58g7cH8KtESkUpZvm69uKz71uvzdvyqa5Y+Z6VTuXyx5yB6VcTKTK5fP0961/hfpNvrvxE0e0uiq2810gkJ9M9P0rJI3HgelJp97Jp+pRTJ8rRtuGKok+kvizZWdl8Jtet9PihWyguwrzKfv42HAH12j8K+evEU8dxdxrEu1UQA+5q7q3jzUdR0htPa6k/s9pfOMXYvjGawo5S8pP3v60U1YmT1JVzjb6dqEkIf5cbQMHNOzgr6t2oEO6Pd/FjOPStCRpRTONxO31FQSKpnyrHGePpVmyt/tGMgle9SSWYBy3XpQBRWNpGVVyd1DwsufTpVxIvIl+X67qax3A8fUdzQBufCy287xlZ5ziPdIc9tqk1o+PbjzIVXuznGO1UvhoWttSurgf8sbZz+JwP61Hrd49/DGey55PfrWPUDIVCr7c/d9e9T28G3uuen0pkFv+73Z6dPrU8EG+THQrzk1QE1tmIbv4m9a94/4Jz+B/+Fkftp/BvQ3j89dX8f6GsqYyDFHfQyyZ9tkbfhmvC3DSFcdf5V9of8EJfB3/AAkX/BUD4Qs0e6HSbjU9XkOeEFvpd2ysfYSNH+OKmRpE/WT9pPV/+Em+PPia7JLL9qMYPrjiuD8r7TfWsPXzriNQB/vjP6CtDxJqs2r+KNUup2/eXV5K4HoC5qHwpB9s8caTF/033n2AU1p0OWW59A2MflWSr02oBivNPip4uvI9YuI45lt7HT0BkyeZWIzj+Q+teoQx5irmfEvw9sfEN8JrqPftYMV/hYjpmsSjzfwt8RtH8Ko7bQt1fSGWRsfM3Ukn6AfyrrIviZpOu6ZJumTymT5gxxkVl+KPgLbXFhcNa8XM3yqT0UHA/lWTF+zdtsliN0zKy5lz/Gef05NMCv4Y07Q/hzfy6rHH5l1q8rSIVzwuf6cflXY3vjm216L+z7W4ZLqZdpKDlM//AFqy/FHwyvrs28dn5arHB5IduicnJA/z0pnw/wDANx4QvJI/s+/cWeS4YfM2ff8Az0p8oMveDNDj8NatM02ofaWQAYbjb9aveNvEU7aMzaaqzXDYA54A715z4q8N+IfEN5K1nHLZ2s9ySwzyVH/1h+Zqa003VNI8H315eSSRFV2QqeqqOPzPJ/GlYDovAtxqF3bSSakFV92FGe3rXTMNi9u9ePeA/G2par4vjtFimWxhXAdlP7xu5/p+Feuxn92A2ahmg4j3rx79q7UfJ0O2g3feYtj17f1NevjIXj0GK8A/as1Tz9bgh/uoo49eT/hVx3A8ijbbgg+1TRqM/rUKr7dDz7VNE+1umK6YkS3Jo9uelSFeAfSo413HHB4zUvk+2PTAqiGxYx+7yfwOKKeiYG2igm9j2P8AZO+KGpfAP4j6r4etWlutK1FJJPLHOHwW3Aeua8d8b/tyag3xY8RWM14IxBeyJ5TtgJz0/wD1/wD16+vP2V/gbN9qvPFN/atGphMdqrj5iT1bH4frX4h/8FR/GHifwd+318R7fSo7yCzhvowm1SVI8mMn/wAe3V83TpSatFn1jxVONdya0P0X8N/tqzaDCs32w7QRhQ/B/WvoX4O/HxfiD4RuL+UgssuxCpzu4r+frSfj742EsMcwumXeuAYyM89OByK/aX/gm+y+LPgfZNPhWkKuc844rpoU5x+Jnr4XEU6ztBH1P4W8RTa5abJEJhXoa357pbGwCr6dPesfSbi20aOOGEBlJGTWhrTCVEMf3W6YrtUjsdNXMzTtemtJ3ZvunIrC8f8AiOHV7Ro/lDYOWFWNf8y3imG7aWH615f4gvpbOVvMkO33NVzmNaiuW5h6/qLRSGDcoVRkZPWuH8T3ccFnM7FWbBwKv+NNfjimY7mLEZJ9q868Zau0kLeXKw7tjsPSiTPnKkbSOP8AGOrI96zO21V4Civlz9qfxFFqdzYwhlaSF3JGemQP8P0Ne7+PdZPkSqeu3qa+PPjBfyt4zmVm+VVJx2Xn179Kxirswloc8+q4lZc9P85rLurkSnPvn2qjd37G5b8ufWmrc5jPU9O9bGDkTNPlPlzzxR5+1GB6455qi1wA33vfGaja66tnOePpVcpFy39vYc/wjtUsmob4lOfu8/jWO1378YwcdKkS7JXav8PP0qiLlwXG/g/liuc+KUqy2doD1Eo/lWukoI4Pf8q5/wCIkpktrTHC+Z0z3oJk9D3r9mm32WU+3+ER4wenWt74uTM/xz+He9uheRQB23ADH61ifs4M0WlXe35duwZx1+WrvxNujc/tGfDmNv4dxz9GB/xqZAj7W/Yc8Nab46/aY8OWGqKklj5kkzJIQVldELqp9c4zivqz/gon4J0U/BO71DyoYbqxkjERAHOWwBj6kdK+M/2MdC/4Tf8AaA02GO6ksjp8c2pCWM/MGiQkf/qHUV758TNL8SftLeFfHV496lxovg8Iln5AK/bLgJuYHnPy5bP+6K+HzTh3E4nOaGYU52hTVnHXu9umt/wPqMvzijRy6rhJx96Wz/rsfIeoSRysp3Y8vOAT1NZ4kWC8Xo0ky/eH8PGAK90k/ZGuNRL+S7K1vo2n6g2OQ8t3N5aJ+oz3/Csvwx+y3L4t+IHijSnuZFbwrO8cpCjLCMMWPPYba+xjE+ZmzxO733F1tH3UyT7n/wCtUVyNlmrKPmfAHqfU1dvoILPVri1jZnWK4eMlhg4ViP6VRvExKfmxu5AHYVaM5EKyzRyKFZi2Py9P6VajVbuVo2YqW4JHHGDmqtrcY3budpwOKmYKluWzy6546/5NUST5VsbW2qq9eu6qUskkMa/M33vy4/8A11PAVitl8w9GCcemag1f57jau7n5vXFArHF/GsD+y9Ftyc/aNYtA3X/npn+ma5/9qK9S2+GHiRV+b/VruPf5xW18X7iK6vvCdvuLN/bEBI78LI3+FcT+1HdsfhXrWes08YP/AH3mnYZxvhP934c09f4Vt4wD/wABFWdSfcu7+feotIHkaNar/diQfoKL6fKYwNtZdTbmKCgnP8XpVC9+YdO1aTOSQPu/0qhe8HI/H3rQkxrwkOPQ+tU3HPXoe1Xrk7ZOlVJD8uBgc1oZjEyVI4/Kq0ke0n371ZC7E9cdahf5iT/e7UyeYi2MT054qVI9gwOfWiNdxqQDC7t23JpxJECYY/4VLaMZ5GXbndxQAI4z371NpaKjMSD0qgLFhamNG9fpUNx8p+93q5E6pEdvfqfaqt7iJgMcGi4EaOsXofwqN0VWXux7impieVgPpUixiNju+Yj1oA1fDGvto9rfLGgMlzGI1ZugGQTVC5leR0Usfc0WaedH/hVxIlc9MKo79azAdbR+Wg+X7vOD3qvG580n7pPJNTrF5xAGdvGM96e6LCNpwvagCwHWS3Sv0M/4N4/DRl/bN1zXpB+78L/D7VLkHHAkmntLdfzVpPyPpX516Zb77lS3Sv1I/wCDfLQ1sNK/aA8SPlfsuiaRo0JxwTNLdzMP/IaVMjSOx9Y303+kMxH3iSfcmtX4TW32v4j2vpDE0h/HAFYd0WaRh7/lXWfAO0M/ji8m5/cwIn0yW/8ArVpL4Tl3Z7UMgY/hpjKHb+lWG+70/SotuTn9KxNFEhePIpEhz0/WpSSx/SgfL6VaQ7EbW/5fSmm0Vj90dPzqbAB/xpfuj8aZLVihcWalPuj24rI1bSIbuDy5o1kUHOCOK6GcfJuP8qzL7qfepkETmk0C1tJA0cMcZUYGFxUjJj8xVy5GH44FV2faO9SyyHaVHp2r5j/aR1P7b4+mj3D92238uK+oHby4T24zXyD8Wb/+0PHV23PzOce3Jqobgc+nDDt9etSon+9/Ooohhwc5zU0R46GuiJD3J1C7+O+O3SpEPGP7vpUQIxn2HanDJb6+lUZvcmQ+/wCvailjTd93qe9FTIln6n6RYi3sfJjjWOOMbVUDAr4x+NH7EPhnx/8AFHWtW1SztJrrUL1mdmjySeg/QV9yQwhLRmX6ivNbbwBbeKbq4muZtslvM0oHq2TXj0kerzO9z4m1/wD4J5eCrUzJ/ZljvhG8jYORXefs76JpHw88PzWkO2O3imIRQa9F+NPhu48LpqN1bzNcPdQ+WiAfdryXwHpS6bbyW8026ZMF1zypIyaal7x9Jk61uevvq0d3/wAejLtVdxPvVKy+Ic0DrDcfLzxntXP6dq/9lR+XCu7196pa5dDWLz721k9O1bczPpIxXU6vxHqUmoQl43yOuc9a8v8AE8kl47GRm4YgY611FhqjIjK0hZcdc1y/i/VYdsix/ex19KaZniopQPNfiPf26/uY+ZMZJry3xJO5hKq2d3X2rqfHkF19pnmZiIscGvPbnWZET+8NvWtOh8jW3OO+IMohsJGJ+bBJzXyL8WNXSfxfMykHcuMgV9beJit7ay+ZuaPB7Zr5F+MdvbQeM7gw/KjLxzSicNRnEXj/ALxm4PUVUWcxI3vRqE3P9aqLM2W5X0z61sjnFN2VZhu7j606aXMfo3tVOd9z+v0FJ5m0leo9fWmZkqyskXPY9RTWkLH5W9zimxyqzbTz/jTnHyZ4oAkSU5656VheOpd0dtxnbJ1rYDjJ9u4rG8aD5rXj/lpxnigmWx9F/s8yKdJuF3HgqSM1W8eT/wBoftUeBVZzHthcjHtk/rgVX+At0yWNxt2gM4GB2wO9R+J5Vk/a28G/d/49nDH04cUSDofR3gDxxefDrVru+02UQz3NjcWTOCVZElQqWHuM5+or0j4Xftga14K8GQ+Ho4Vms5WuXuy7EvcmVQu4+688nPWvFwf3bKo4AIOP0/rT9NB+2Iy/dQ7Wx3rFmkdz7V/ZV1n4k/tlaLeWXw88JnUF8I3Om22t3lxOlvFcC1kDLFGxPLMYwcHpj8a6D4k/sYfHjSvG/i7WLX4a6nK3iTRr20ke3miZhPcyDcflbkBcnI5BP419uf8ABCPwTY+FP+CeXh+7tYRHN4h1PUdRumwN0khu5Yxk47LGo/CvsaVFVOf1oVPS5EpWdkfze6z+wf8AGzQJN118MfGCnJO5LQyDp14rlNZ+APxB0O6K33gfxXZ7V3HzNNl+YfXFf0tx6/p8z7VmgJ+oom1LT5X2O9s3bDEGjlFdn8xt14O1bTwv2jSdVtW6YltZI/rnI7Vl3VswfyysirGcfMpAr+oC68I6FrykXGmaXdg9d9uj/wBKwtR/Zu+H+tKVuvBXhedWzkPpsRz6/wANHKyfU/mek1SG0xFuO7BcZ7nNZrSMblnz80gGOO1for/wdX/C3wT+zJ+xZ4N8TeDfCuiaH4m1Txhb6R59lAIC1sbe4mfhRgndFGPoxr863s7pLWFTBIu6NF3bTwQBn+VVrsTJo4j4pTrF4y8IqrMzf2i78+0Tj/2avPv2n7xpPh80Yz/pGoIv1xmu88eD7T8UfCcbfKy/apWB4xiNR/WvM/2h7tp9B02HH+u1JeM9P85q3sOOokKlrdf4flHbiq9xAZWwv48VrtZ+XbKcDoBzUUdq0ZLfxY+orA1Mm6ttv9eKy75dpz129OK3ruBh1DD3rE1BAm7npWiJkY06At71Ru1AZf8AOK0rtNqn/Z61mz/6w9fpmtCWNRd/X601k2ru98D2qSLjt/8AXpzp5qf4VUTMhijDfnS+TgZ6+1PTco4z259KkWDeo+U5z+VO4EartwO3b/CnKjE/KMLn86tJbbzx1/lRLD9njCn8aTkAKywcfxH8cVXcMfm+bCgdfWhkYA/3s4qSRmaBVA+uP4qkCuIyud3BPHWnRjccNn61NGdzdvp61Iltngr/APWFPmAm08gRMqglmOakit2Ut+RpLJ2hkbC49Par0UbKVVm5znPekAy0cJKqlSdvAz6029tlF0B94nr7U+Wz3TLhvu88daZId7Drt4zQBoabZ/vIVC8t6jk1+s3/AART8PL4f/Yf+J2r7VWTXPGkVgpA+8ltYwH8g07/AK1+TujxNLqUXuQAK/Yz/gmTpf8Awj3/AATS8Isw2SeIPEGsaow/vAXb26n/AL5gWp6lLY9Ikdg5/h9fevRv2a7PzTq1183zTCMfQKP/AK9ecynzGbjFeufs3Wnl+C2m/wCfid2/Dca0lsYxWp6Jg/jioJXVV5xViXO3FcF+0N4xuvAvwn1q/seb6O3KWwx1lYhV/Uis4mh00uuW5kK+ZHuX/ap0eqxPj94p+hrmfg5/wTa8USfD2xvvEXji8m16/jE9wka7Y4WbnYvrjpmt6L9gfxZokryW/ij7R8pCK69+x61sqbAupeKX696eZgx6j61hW/7J/wAUNIjkP26zunZhtw2FUd81LqPwl+IWhyTf6D9pgt412lPvTv7elL2bA0ri5HTPQ1n3c65+vGa88vNR+JWn3zi68JXiRrzuVcgDn61BqfxF1vSNIjuL7Rb6Bpc4QxHIA6k1EosDtriTD846fnUKJu/PqO1eYwftBwIzfaLee2CrvYumMD1rtvBHi2Lxnpy3VsWaF/ulu4qHGwGh4gmFholzJ/cjZ+vsa+MfFtw134huW65bivrz4q332HwRqD9G8rGR78V8c3sgm1KZjzuc5xV0xMIvmO3cvTPXNWY229fSq0a5H1/SrUUeW6fX1raJm2PUEKcfxdqkjHcg5xzSIdhHfbUsQDvn8eaogenJ44Y0U/Zk0VEtyZbn6lnUWWzODnHbNeSHxF5uq3i7mUmZty5xjmvQft21JG9uK+E/if8AtP6r8M/2u9c0a8tXGjSNHLBLj5RuHOfxzXkU9D3IU+Zn0h481OOPSpHdfMIXPNfOvhuC4n8Sazes2FabcF9eK9dvPFyeJPD63S4aC4j3D8a8VTxKuka7q0O75SQwA96PtXPey2PK9TrbLxcolMONz+xqub7Zes24qp5PvWP4XvLNn85pFJbnk07xJaTTIJLfvycGtmfQU5m/a+I7eG1b5lz3PpXGeLtVVre4kVuvIArn/F/jH/hENCuLm6basKlifwzXwz4p/wCCvegaV4+vNPuGka1t7gxLIhyGG4jOenA/z3qY36HNmOKp04Wm9z6g1H4mweJ7i4sdwWSHOV7nFcbqFz5TMhzgE8jtXm+nftFeE/Eenza9peoK025AE3ZeQMeePQda7BtfXV7aG4DZWZAy+4NbHy1SopamP4n1iG0sJ++1TjB6mvjr4wXe7xdOyk/vMnH/ANavqvx9bt9inaPBGOnp2r5N+MsElr4kbcvzYz6Z/wA/4VcThmzj7qQFOq49KquWAwzdulNuL3YOvJOaqy6grj+XtWphLcmUjA6jvmmltx3fTp3qsL0cfh+FIbgEYoEWomVjk/Lz+dSrIZFwfujp71Shn5Az81TJJwf19qCeYtxAFuBWP4xPmXFmvcSDj8q0YZWjbv8AhWf4jT7RqVkv+2D+tOO4NnuHwSK29ldHng7R9cVVvl879rTwyW+ZlsnOPork/wBKs/CmBotOuVJ+XzcgDvxVLTgzftV6IN3zfYZFX/ZGx/8AHNORXQ96RGhK7ujnGD0H0q1pt0qShfm+Vsk+pzijw5oV14w8Q2OmWMX2i8vJ1iiRR95iSOlWvEXg+8+HnidtM1RFjuLd1Mq/XBrEqO5+8X/BFeEwf8E4Ph23/PZLyT/vq9uDXr/7aPjK7+Hn7HnxY8QWF01jfaF4N1jULa5U7TBLFZTSI4PYqyg/hXhH/BKr4j6P8K/+CW/gu/1a8ht4/DOgz39+jyBXiQPNNjHqV6D3Fflt/wAFHf8Ag5B8SfFr9izxV4JPg2x8PzfEWyk0Z7yO/eZobeTiVQu0ctGCuScAOaqLViZQblc/MiH/AIKIftCfD9Y3034yfES3kVQSTrEkmT7hia56H/gqd+0RoGpTXkfxg8eSXU0zzvJPqbyZdySx+YnHJPAwB2AritWkN5pcdx/z0QMB6Zrze7Xz5DuP0z3o5Ub1G1sfa3wI/wCDjz9rb4ES3C2fxIHiCC6kWQw69Yx3qx4GMKflZQe4B61+5n/Btb/wV4+KH/BVHwp8U1+J1n4bjvPAs+mi0udJtntxMtytxuV0Z3GQYAQQf4unFfywWejK8G7aeOea/oM/4MkLDZ8L/wBoa6/56arokP8A3zDeH/2aq06HNLY9F/4PFLhb/wDZ8+AOiybWj1b4hAOmfvAQbT+kh/OuP1f4WaK9zIv9n26quApUfQ1rf8Hb1zJq3xA/ZJ0VdrLceM5ZipPUmWzQfz9O9amtFXu5tqqrbz64PNerldOM1JyXY/HfE3M6+GrYeFGbjpJ6O3VH5+/t1eFLHwl+0j4RgsIxAn9g3dy4/wBoyKmT+ANfKvxwm84+HYm+9Jf7z6Dlf/119Xf8FDXb/hrbT492I7PwsDz0G6d/54/QV8i/FeX7Z4q8Mx/dX7QWx7ZzXBitKkkj9C4XqSnldCc3duK1O1hVbi3U81F5Xlhl+U806yDeUO3HIpspwWVdu0Dr6Vwn0Rn6qxA2jPrzXO3ysx/yMVu3xJB+91zxzWJfybSPmqokyMnUV2vWWww27kcdq17wE9PzrMZN0netjOQRozdB1FIE2SN22+hqcqVj/Dn2oVQxXd6Z/CgkW1t9yjj5etTyRKh2/pRbpj0q4sayfKB/9egCrHCF+q0jnMi87lHb0q2IfLU8fNn1pkltj72M4HtQBBDp0l/5vlKzCNS5IHaqUJMsHC/ga7PwO6afpOtXG3d5doRz2rl7SEy2sfT7oJPrQBXtoc/Nt+lW0gkRtqr8zdT2FPggJbO3p1q9bsQ54+bGBnuOlAFW3i8t/uirEcLT5bG3jI9qmS08xyT8q/zqSOIjhcHmgCvIDHGR34zUsFpujJ/veverFzbLnZ1bjNLP/o1ugU/NQBc8Kw/aNbjY/LDAu85HHHOK/Z39kzR5PCv7D/wf0+YbW/4ReC+MY/gN0WuDn3Jlr8ZNKlNppWoXW3/U2krKo9dpA/Xiv3NttAHg3wN4d0Nf+YLo9jp/A6GG3jQ/qpqftFfZZRubjYjN02jPtXu/wNsPsPw701ejGIMR7mvA9THl2Uq56rge+eK+lvAVl9k8LWcW3bsiUY/CqqGcTWY5H9a8z+PkX9tSeGdJA3f2r4hsoCPVRKHP6Ka9OZeMYxWDZ/D6fx38dfApX/j10m9lvpvqsTKn6tUx3KPrTTrb7LpsEfQIij9K8p8Wftd+G9L/AGhtF+GVi7ah4j1KOW4nEIzFZRx43b26bssox71695Rxjpx2r5pHgjTZf+Ciduun2UMP/CP+F/MndE5Ms8+7LH1IGf8A9VdwHqPjb9o7wv4J+J+g+C5r6ObxL4gLtb2UZ3OkaLuZ29APeqXiD9qvwXoPxTj8Gyaxbya+cCS2RtxhJ5w3ofbrXlPjf4d6Pp37fWi3lnZq15pXhu5v7qdvmd3ll4yfcDp7V47oOj6TLo/gueSOGTxp478Yy3s82N1zJEjyO+T12rGij8PrQTzH23onj7SPGU15HY3ENwtm5jmIwVRh1B+lZT6t4f1/TpbtWsbiziJVpiBsznB5+tfKvjX4gXXwQsfG3hfT5PL8QeLNaGj6VGDh/MnQF3GOflXJz261b/aY+COq+FvhZ8P/AA/Z63c6fpX9r2MD2kBKteBfncyHqc45HuaCj3nx98K/CvifwdfS3Gl2Mlv5DMXCAZABNfP/AIbtrSCSaOziWG3jbagUcAegr6M8YWP2P4NXFurbTJaCLI7bsZ/rXz94f0pbCNo13NluprlrAcd+0XqC6f8AD2X/AKaNj+Zr5Hifc7HGAxzzX0x+13qP2Tw1bwD/AJaZPH5V8zwxsR0x9KUNiZFi2HXP0yasxnP/ANeq1vGGHTv3NWo92K1iYssKPk/wp6DJ7dR3pgHyDt3yKmiX2qiXImTLH8KKdFlU/wA8UVMtyD9H7eQPbt/u1+dP7aZuL/8AaWv7UQv5g2hGC9ug/lX6D6XegRNn07V8y/H/AESxk+L9/fPbxtdBYwHK8qAoIryIn0eHlZk3gjT5rP4a2Fs3zPHAFYehrxvxHpjW/i7UlZvvFcj8K9e0HxittpEkbc7RxXkHiHXFvfGl83TcFJ9sZ/xoW57mDknK5NoWmx2c0ed2eo7Vs3Hi17ErGuGDAVixatHJ937xHX0qiJw8zM38PT3rU9eMrbHmX7fPiltC+BOuXNtua6ayk8tV6lscV+DeriaTUpjNuMjOSxbqTX9CvxD8Haf468OXFveKsiyIVAYZwD7V8L/Gf/gm7o8uuSXVhGiqzbiAvvnA/wDr1tSqKJ4WdUJ1XGUeh8gfsZabeap4ytY3aY2/mADJJVfw/Cv0fzFYaTDHCdxjQAfSuC+DH7KWl/DK3jk2q020bgBxuHpXWavayR3LBWxtwR7USlc8WMHBWZQ1m/eK3k3YZQucHvXyr8c79rjxPIemB0BxxX0l4suCltJj0wWyMD2r5d+MMpk1tsqRuH51UDOcjzjUb9nbb2qhLeNuIzjvxU97GzSt2HrVQwcfd9uTWhhJkkd22ffFWhOQf8aprb5PPXg1MgYr+Qz60EFxJsuvXPGasQt6n5qpocKvsO9TRDeOu3nr60AXod2/tyM81T1Ik6tZf9dVJOOnNWFO2Nar3rbtX09W+X96o+nNVHcD3T4cjbpsm3bu8zP8qp+Hjn9qOylfpDpkgyB94kcfoT+VSfDqXy9Mk4x+9zVfwv8Avv2jFfgGHTmbA45wAP55pS3ND6U/Z18Xt4K+Nuham8sMa2d0JC0xwijDDJP44z711H7WvjzTfib8ePP0WRZLCOztoHlB3LcTBSzkHuAWC5x/DWH+zV4PsfG3j+WC/A8i3tXlK/8APRugH65/Ctj43eB9P0TVrF7NfKZrpIVUYGByawc1zcp0Rp6cxh/tVeILy1/bc8faPDqN9a6ba2Gkxi1indIB/wASuz3AoDt5yeCK+Qf+CgSxw+EfDKr937ZIAPYJX1V+01aHU/8AgoJ8VEZseWLGMkdithaLj8MV8m/8FB7ho9P8L2hUBlup5OO/yoKuIVFqeU3cmzw5a8Z/cL/KvP3i86c54XNd9egQ6FDuxxCP5Vwu3Nyv17d6smoaiweXpsnsCcEe1f0G/wDBlDp/kfsx/HC8OB5/iiwh+uy0Y/8As9fz6XA/4lsihvl2njFf0R/8GY9ibH9hT4rXW3i48aogPrtsof8A4qo5rGUo30Oc/wCDozXYvEH/AAUF/Y48OLcASJrDXsiDqqtfWqhv/IZ/I11msXJN1Kf9skAfjXm3/BcfTLHXf+CuHwQe+m8zXF1Kw+yRtz5NpGZZCVHu4bP0r0XUE8xidu7af0r3ckTdOUvM/n7xdqWzKjS7Q/Nn54/8FBdV+0/tf6se1v4ctIAo9S8jH+f618s+L7Zrr4m+HYWJ/dI0hB/4FX0R+3RfGT9sPxgw5W2sLKIf9+wxH/j1fO17df2l8YtKyD+7t3f8g1eXi/4svU/XuF48uU4dP+SP5Hd7jDbbV9OOetZxY53HrnmrN67+Xjn5hjB4qiD5DfNwx61wn0RT1m7+yxfN/wDqrDkm85c1ra7J56H5vmA6Vht+7U/y9RWkSZFa84Jzzj9apxjcf93rVm6O7rn2Oaihi5VR69a0Mpbj1VVj+bBz7UJyvH4VJdQrHPgHp61GArdPyxQItRIWQVYiTYQxzu/nUUCeWP8Aa/lUsa7eSv0FAA37tt3v2p3lCQFT361N5R2/NimyR71+XscUrgb/AIX0kXfg/XcMqqyKhPr1rlPs6wusf8KjaKvw6lcQWL2ayMsMj7mUdGI6VA8a7u/v70IByW+NvT5untViKMIVB5X+dR2w2Nu74wM09GklkUbep/KmBZ2LIx2nqM0Ja7Ezu796lgjjjDPn2qSG38zHzbe5oArNb+ZKrc/N696d5O+T5lPqavEIp6528AjvQ8DZ7enTpQB0Xwf8Ljxj4l0vS/vHXNXsNLVcZz511FGf0av248cXKz67cMv3fNbGO3Jr8j/2FfDqax+0p8MbER+dNP4ot7xiRkRpbLJcn/0UD+FfrDrGZJN2fmPXPelH4hy+Azltvt15Zw7f9Zcxrj1+Yf0zX1Bp23T9MVpDtWKMZJPTA5r5x8E2RvfHmjw8t/pG/n2U/wCNe/8AjNvJ8JXnoyeX9dxCn+dE9zOGxAnxL0653NHNuUHhsda1/h38WtJ8NeM7a+uJgI1UqSf4c4/wrO07SbKw06CN4YV3KMAqOaf/AGDpl0u77PbsD3CjmlEo94s/2oPCN4Qo1SFW9z0qLQPGngW28WahrlveWP8AaeqLGlxOXG51QEKufQZPFeEf8K90mds/ZYvw4qKT4VaXOc/ZtvurEVt7RhdH0FZWHg+68eaj4kW7tZdU1S2jtJJDIDiJM4UfnXF/DT9knwD4D+LjeM4Z2vtXjhe3s/Pm3R2EbnLiNegLdz16ivLW+FNnGPke5jP+zIahl+HbW6t5WpalH24lNV7QWh6Zrf7IfhvxP+1LZ/E3ULw3V5pUcosbTcPKgkkVUaXHdti7QfQt610Xxh+Fg+J/izwvcNcrHY6BcPdNGDzK5Xav5ZzXgsmg6taviHxBqS8cZcn+tQmXxZZt+58R3TY/vil7Uo+hvjVew6Z4EMe9V8xgFGeoFeD2yqiH+lY2tDxVr5Q3WqtcBBhQxwAPyqmula9CD88TAerdaynK5LZ5D+2JqW+8hhU/djAJ+pzXhluFKHn6j0r0X9o65vLjxi63RXchAx6YFcDHHt5PDAYPvVR2M3IWEYPH0Ge9WYF3Y4HX06VGibRu/wAmrEMYxWsdiHsPjXjjipol2n+tESc5xipo4js460yAbKRf7P8AOinSPti+bOOtFZy3BH6C6HInlN64zXzh+0o62/xSuF+7uhjYH8DXvmiXbHK98dfWvMfi98A9d+IXi+S+s4vMj8tVHPT/AD/WvNpntQkovU8Xaci0bae1eYy2s3/CcTKWPzL39K+gNf8A2b/FXh/TpJJLGRo1GcqM14TrdldaZ4zmjuIpIpo0wQw7ZqpR1Pay+pFt2ZcMiwv5eNvqfSm3lxCB8r/N0IxVpJYb23X5fmxycVzeraZcRX3mLxF3oPX9oWbm8/dttP0rjPFETTNIrdcc100dwhVs53Y9K5nVHZLl3b+L1NBhXldHG6xp01upCtjjmuR1ZZIAzZLZGa7LxVqsItmQbt5/SvP9d1CYSD5S0benGK2ieDX3OZ8Y3yrYsp2/TvXy78Y2zrpbleM8/jX0d4wlH2V25+YYr5o+Lshn1ws3fIxVx3OGZwl0F8zI5/xqqwCnrlj6iprn5f5daq7+fXmtUrmMiVyCBnr7CnA7vquPfNRM+OnrSxt8wHSmyS3GBtx6VMi7R7kZwahikyv9SKmRWZevWoAmhVgaivo92tWK4P8ArV6datW4+QdvbHWq2oSj+3tOC8/vR/OgD2LwGrSaU+G+YyYGaq+D3ZP2j5juLCLTTn9MVJ4Fby7IlSV3Mec5waz/AAXNv/aF1JfvN/Z2fzK1Ujboe7eGPGl94Z1mK8sZPIkTrjowPGD7Vpaz8QrzxBq6X15IzfZP3mxBwAvJ/HjrXIRyeX90dQBSy3fl6VdFV+5BIfT+E1m4rcpTex+oEX/BIfSfi7+zx4y+Plxq+qL4o8XaRL4ptbaHBjSFLXfbxlCCSzRImQOck/h+Nf7WHw71bxnY6FdanpupaX9jRjm6tHiDM2GIywHIx0r+rn9hLRY1/Y5+G1nNGroPCumRspHBH2OLivnr/g4Q+D+gSf8ABJb4r6gmlWa32mx6fcW8oiG+NzqNtHkHGR8rkcVnC5cpK9mfyw+LEjsbEx7uFTAHrxXn0Eub+POcKe46Cu+8eWDXWovbru3KcYIritS8L3lruZQ3y8jHpWpE2W7+8X+zpPmDZGK/pF/4M69GFn/wTP8AGF4c/wCneO7oD3CWdov+NfzNm4uMeXJ933Ff1G/8Gk2kHSv+CQ9vNtw194x1WXPrjyU/9lrOeiFDWR8yf8FsZItX/wCDhb4DWsS4fT/DLzSHrk7Lxh+WOteqXb+U+FXqefSvHf8Agpre/wDCSf8AByt4Pj+8NG8EO+D/AAZt7n/4r9a9iuHJLdfl7+pr6fJY/wCzt+Z/Nni9UvnsI9oL85H5f/tmXf2v9rH4kSMf9Xc2sAGem23jzXhenR+b8ZIT/DDpxwffgf1r179qm/8Atn7SHxKm9dbMYx/sRqv9DXj/AIbl+0/Fq8bHyw2YVTnn+GvBxPxy9T94yKHJl9CPaEfyR3Ui7Y93XHNZGozFup79q1ZG3Qfh2rLv0EkTKcjArjPaexk3824H+VZVyfnH+FW7pGUk1Ruiwb+orSJnIq3MmP8A69RIG49f50+eTI9c1LaLvi3MB93t2rQzluRM2fX8T2qW13DG39KRBubvjH51JEdjd8+tBJcjRnXnp/Op4k3BR/kUkK4i/L6VLCu0L9f1pSGLHC0gx/k04wbfpU1tHnkfLj9KGGFxj8c0oiKrJgnHXPYUBVQbdpb8KlCFmP8AdqVIfu81QDfJymFXnoOKsWsP2eBm2/NipYkUP/tADtUvmGSLHocAUAQx2m6Ndo3HHQVYlg8gqrc9+ven2UJt8N8uM9KnO2e68xukYGe2aAIVtlAXC8FuvrU0Vs0zhd2DnFW7C1Oo3qquEXGeR0HepSkMRfJLM3GfSgXMfS3/AASu0XTZv2tNBmui7nR9J1TUoUVc+ZN5aWy5PYATs31UDvX6Laq++5OM18Ef8EnvDayfHnW75Y8/2b4YWAnH3DcXcZH5iA/rX3vfnEtEdx1PhRtfBm2+2/E216nyIHc+2SBXtHjxiNJt4QP+Pi5jT8st/SvMf2dLD7V4xv5yP9TCifiSxNeqeLYvtOraTDg48xnI+gx/WlPczWhyfxQh1GK5iks4Zpn+yNBEE7O3GT6Y4OfauB0/W/GHh9SqwSyJHwQE+VTztUevbJruvjN4r1Pw/qkMOntE8hgaQxkf6tRxuP8A49/3zXN2nxI1j/hD9JupolikvmLMXX5iP4QB2z1qAO4+ClzrGp6dNc6wzCZ5SFQjGxQeK9A8rgd+M1wfwf8AGM3jQzyCEx21qVjD4/1j4+bHsDx+Br0ADB/nVRAb5G5Kx/Fdw1jol1NHhZI4mZSemcVtTMEj7ADr7Vj6nqNnfRNG0kLL0YFhg1QI+e5/2i5tAuGt2hmvJGb7xGP881paX8fX1vVbWzjtWW4uJAjDrtHPT8q7LV/hZoWreIIr9ooS0I+VFIC9auaZ4F0XTtSW5htbdJ1HDDqKh2K1Nmzty0Ck/eIFPnhVIz2xVqAKyfLjHsaq6+32PSribp5cbNn04NNEnxl8fb7+1PHt02c/vCf1rkI0/Tr71uePJft3i24kb5vmxntWYke7H9RW0TMbEvPfAxVqGLPb5uxpUh6cVYWHAz96tDMjUY7YH6VZiTjHPrmmxxk/4+lWYYsoPloAzfEkn2PSrib7qpExyfoaKxfjtqw0D4Xa1cM3l+XbOd2enFFYyNqcbo/RfR9Ma3k3V4p+07/wU+0n9jb4hQ6Hqmi6pf8A2yBZ0ktrZpVA6HOPcivoDS7bY6lzlWxXoui/sveCPidbfbNZ0ax1K6KKA8kYLKPrXm02+h114trQ/PrX/wDgvr4I1DSZI28L+JN23HzWDrn9MV434X/aa039qPx5fatZ2r2ceCBG6bW6+lfrpdfsM/DGLT5I28L6YFZcZMQ6V+e/7cfwG8LfAj4yWM3hm1isvtgdZUjACnv0rSUnfU68p5lVPO5pI7eTKjvVHVNRV4mULu3j5eKryaut1L5fK8daW4vEWEL6Cnc+oMO7VbWNmkH4A1xnia/JZiD8oPSuu126USeuRmuJ8U3kTWzDKhunNC3Ma3wnG+IL6Ob5i3zKc8dq5nUL4XIO3bx1zwD7Vr6xZpGrBfm3VzF0/kyFWLbc5BNaxPFrHK+Lo2CSY5Vs456/jXzb8XlVNfb5ixPU4/CvpTxLMgt5Mltu0846183/ABiUDXW6/drSJxzPPb0hS38Ld8GqDnDf/Wq7eDfIaps3zY5HPQ/jWkTGQI+7FSqQ8mAp/Oq+OPbpUsPzf561RJc3ZVV/IZqxAcj8Krpnj69qsQNtGfXtmswLUK4H8896huYvO13Tz/01FSRnnr/9enoN+s2S/wB180Aem+D5tmnMvGdx/GqHwzT7X8ftUkb7y2A/LctWPDDt9gLFSMMe1RfCYFvjXr0h2gRWIX8dy/4E1UjXoeqXTKkjfw8ZIFN1e78vw9qG35WW1lPI6nY1DYI+bg5/HFU9bmEvh3UA3G63kUfTaakR/Ub+xtF9k/Zy8CQKf9T4d05PytIhWr+1j+zdon7Xn7PXiL4deI/O/sXxLHDHcmJ9kg8uaOZCD2IeNT+FUv2doo9E+FXh2BP9XDpdoi/QQoB/KvBv+C3P/BRTXf8AgnF+wPrnxG8J2ml6h4li1Kx02xi1AM0AaaYB2KqQWwitxkcmue76FT1kfM/xK/4NSPhH4ntbibS/EPiXT9SZD5Uv2hXUMe7ArzXPL/waV+Ap/Btja3HxE8Rf2ksCrdzJZQeW8mOdoIyBn1J4rov2JP8AgtX8SP2pf2bIvFGsXXgHQNW1BJI4ooYZt0RGV3hZJCGwQT3H1rTs/wBsf4vX95JLY/EDSZtwK4NmhXP0HSvPqYrldjop4eUlc+evDX/BnbY3uialNq/xQuPtj3Uq2KwaWgVbcMfLL5b75GCccelfpn/wS9/YWh/4Ju/sa6L8K4dYk15tMvby+lvXhERkaeYyY2j0XaPwrzL4Z/tlfFweCo7W6sfC+tXscYjN2J5IDI394rg/kMV9MfCT4h33in4c6fca5BDZ6zIn+lRQvvjRgT909SCOfxrSniObQpUXF6n4k/tcXC+Jf+DlfxhI7qTofghUQYz1SNf0Ehr3O6lWTbx94jPOa83+Mv7O/iN/+C2fxY+KF1AsXh3UtE/sywZs7pGU26k/Q7GNeh3djNDOu6Nl289O1faZLVh9X3P5j8VMLXnn3Oovl5Yq9tOp+SXx71L+1PjP48nDDM3iK85PtIR/SvO/AymT4h60y/dEaj9f/rV0Hjy/a98ceJ5mDL52vX0i7gcsDO+D+Oa5/wCFJEvivxBJ1wY1PPQ/Ma8GtK7bP6Cy+HJh6cOyX5I7KC627l+aq85BDE8frT7lzDJ8uD71FcPmPkZPbHeuU7jG1FBlv5+lZF2wQ89K1L+T5s8emMcGsO8bLmtY7mZBPIQ+Kfb3PyYqtO38X+TSWz7AC3T64qzM0Ld98g/zirUMQ3Z/u1UtI8Sfe/KtCNdkgU/NnrQBZtk3R+nt6Cp9jKOmc9xTLWTC4x8rdj2qQnzE3e/Oe1AFiJlWL/apu1m/hxz605VH3u59e1OOBDhs5zigCMp84H8IqRIhKWP904NNU/vM9hxyKmHB2r0agCWCDePl+vTtUpt2bvt28/WiJwh74x0q7BF5pzt6jA9qAGWv71NuPl3cH0qzFbK5bawzkHJ6mhrIQFVX5sEYwO9KLRzKxyd3TGOBzTsTIfY339k3Usm1WZl2Ln+HNVrpGmnjjHytIRn2Bq9CqRIOFaRj6dB/kVDGFm1OONfmeQhenvVWJW59yf8ABIywMmq/EC9RcL5um2G7+95UM8hH5zCvsq7iLS9eM18vf8EltA+x/CXxJf7edQ8R3T7vURw28I/Io1fUsifN+tKnE0q9EekfswacXTVbjbw9wEB9goH+NekXNq1944tY9vENuW/M/wD2Ncv+zHp/leB/Ox81xPI/1+Y13OhW4uPH903/ADyiROe3Gf61MjMZqXwz0/ULyW8mtxNPMgRs8/KO30rB1PwPp95qkMlxBk25PlAn5UJ4zjpnFenfEXxJZeEPDLG32vJtG9j1kc8Kg/GvJ/DGpXd1PcLfzLJcFt4x2B549hWZojqvD+g22h2Kw2saRQr0CjAqbUNTh09cySIqjuTipbdsWi/QZrgPFug3Xim8Lq0hihu/MC54KqMD9cfnQRLc4X9vv45z/DH9mPxDqWkXYh1FlWCCRDllLZzx9Aa/PX9lf9n39q39rnwlJrnhbxxdQ6f5rIk9xGD5hDYbaNuMbuPwr6F/4KlvN4W+AFvaahI9sutamx2g5KoMDj3wc4r7v/4JmaD4W+HP7GfhxtFMdvbyWQumMj4J4LZ57dTV2HGVj+fP9sv9tT9ob9iz4xy+C9S8ZR6hqFupZmFupU/MR6DPQ1yHhP8A4K2/H7ULyxtxrlvPNeTxwRq1sPmZmCjv6mrH/BX3xzZ/Ez9v3xVcW80dxHpsYgLLyFdmLFfqN3+eleYfs3+F4/FHx98EWAXKvqUcxA9I8yf+yioqaHJLFS9sqaP6Jv2QpdX1L4E+H7zXrhrjVby0Sa5c/wB5hnj2rrfiddmw8Gagw/55FePen/CXQP8AhHvh9pNljBt7WOP8lxWP+0FfjT/h9ddjIQv1qo9jqlufHesD7Vq9wx7seKI4N3GPrntTtvmzMx65JNTRw/Pj9c10JGQJFzVhLbGP9r0NKkC9fvAcYqcLxVGZEkGF7/j2qxHH8o4pUgyBxViGLamR/KgDxH9uTXf+Ee+B+pNv2NcLsyf5fjmiuE/4KkeJRp3woit1cxtIWY7fTBorlluehh4+6fqb8FfijJo1wPDPiC9juNTiXMUmQSwHr/jWf8av+ClT/sneLbPT10+41BdSgZk8sj5dhGc/XI/Wvij9lb4v3Hjn9plbFr+61K/EWZpjJuUFzjHoMeg9K7v/AIKQ+H00T4ieH5Hk8zzbeRcsP4gVzivPtZ2O+jTUpWke133/AAWu1LWUYf2HMit0GR/jXgXxj/aPu/2h/FtrfXVs1tHasSATknPrXkem28bw9s8fhWxYXUdupULhvYdarrc9ijh4Qd4o7SIQSxZXlgODiqd5eR5Kr+eazdMvysf3vvDn2qpq9/sQlf5d6rmO+MblXWrkq/DYz1rhvFStOx+bGTjiuiu9T+0N8zfjmuf8TQZQlW6jJ56UR3McTH3Tjr9mSZ8NuC5Fc/rN/HHDtf5XJ6/zrf1K58rcvUHnPpXI+IZlupcBcdsnqK6I7Hh1DnfEcqzRYz8uM8Gvnb4sbl1xlznj1r33WomghZjnd0weorwH4s3GfELD261pE4ZHAXp8w7RzzVJzkc9ueKuXjc9uaqSddwB+hq0yGRE/N/LNWIGyOvpUHqR7GpYXz7Z4PHSm2QWkbpnnHoKsWcuX2/lzVWI5bt6VYidlUdOakDQhkyF7c88VDDOR4ks+RtLYOO9Nhm+X/A80Wq+b4ksj2Vs0AeleHJvK07+8M9cd6h+Ejs/xh1xmz81mrcdMbuv8hRoUmbDbu9zzx3o+D6ef8S/EDZ/5d41J6Y+b/wCt+lVI0PUJZ/ORTjjIyfYVU8SAHQrz08liF+ox+ua90/YZ+DOhfG340Wen+ILhbfRdOQXVyCcNcHcAkQ+rHn2Fc18cbfQdG/bM1bQbdo/7DXxWNPVIsBUjFwFKgjjjp+FZykC1Z++nxn/ah0L9jn9kG88deIJCNN8MaPBI0cfzSSvtRFRQOpLEdK/A3/guF/wWxtv+Ch/wssfA/h+zvLPRrbUIr5xPHsMjIGxxnOckfQA+tWvD3x/+JX/BQvxD4s+HvifxpeXGgw3kpis2REUxRzMy5KrkhcIBXwv+1p8LoPhN+0RrnhmGYXCaS0cZcdyVDH/0KueDvKxtUjZXPoP9lj46R+H/AIEWeiSs0bWQaRGJ4G7Gcfjz+Ne9/DP4q654c8P3moxahLlbRpYw7/Kvcf596+BfBXiePR41hwygqBXsngf4pXV1or2sl8/lPEYwu7b8v901y4ihd3OjD1rKx+jH7D/7b/iPUfCWu3moSfaptNu12ruxGqJEWC9M/PJKhJJ6RY7mvprwP/wUx8UwaetvLZaTu5+c7898d/p+VfDf7FGlWdt+zH4nvrfbJLfatHG8uORtjjO38PMx+tdpbSyWKRMwYJIxxnvisY0UTUqO57Z8Q/jnqHizxdNrTrDLLccmPkKPp39a5XWfjpqE6yD7HCrSAKPnPygfhWx8Hfh9b+LdMutU1O4W2021Plgk8yORnA+g54rtI/AGgva+Za2KSR44kdPvfnWkYSWzOecKcvijc+Cf2gv2XrX4j2a3GlwrZ3EMryuM5aQt7/r75NfKPhr4O638ONT1w6lZzRxzXI2OUI3AZz/Ov1y1z4aQ2GoPdLG0zyNhY1A2qKydb+DXhzxvE1rqFjbyTbMMSu7b9e1dEZSSswlGPQ/KnUIgJPx59xVe5ZVj5xj0zX3Z8aP+CbNjrVu114ekaNo0Y7ECx5PXp3718b/GD4IeI/hO+zU7MrEXKq6/Nn6gcj/PStIyuZ2POdVlVpG+vrWLeSFl4FaVwC59u9Zt3tBraJmyqW4HfHOKbqcedL3LlpNwwBRK3z8fpViybd8vbGelaGZY01WTy2b72M1qwr5m5uhrOgGSuB2rStVA2nB5PT2oAswptTd3zVmCPDD7vFNiXdH8oqxBEAoP44BoAXyW8zt25okTb1b8ae5aOMZH3aa8bB+ee4oAdAFSNgwwx4GTToY1Zc/N1wDikaMOy5H3cc+tWVX5FVFwOKAJrKx3HduY98VdThx0XA4HvUWnszbgvyjgZq5LaMFRgucH86rlJuWIYhJt7bcke5qLeI42WTu3arNpD5TiTbn1xTbyJSNxKqV5I9KpaElWdWghPyhT1BpdBy2sQyONvzArikmm3IzHlvfsKisbpke4kP3beB3b/ZAUmgD9O/8AgmBpP2H9k7Q5mHzagbq+JxjPm3k7g/8AfO2vebo+XGzcjapPXpXmv7EHh4+Gf2XvB9sy7Xi0axRlA6N9nRm/VjXpmpDdZvx94bRj1PFOnsVW+Ox9B/ArTf7P+HGljBz5Kn8xWv4QkN1q2rTD+KcoD/u/L/Sp/Btn/Z/hi1X7qxxAfpTfh7HjRTM3Hnu0h/E5rIkxvixKuoeHDuMnmWrh1Re56foCa5z4a6DNJm6ujNJf3xDOrHiFOwx2rovFnirTZdTmt/LlkaA4kKLwD35ra8HR28unxz28e1ZMHJ6mpsVfQu3lrt090X5fkIz6cV59H8ULHw+WhuW2eVD50jnhVXNek3sfnWske7DSKRn61xOu/BvT9eSZbhWbzIhFw2MDn/GmSfAH/BYr4it8RtV8B6Ppkb3DXQMkMQ+9K7tgfpX2Z8Gf2CpvA/7IS6jqXjDxJ9og0QyiBZfLiUCL7oX0OcV8Ift7+PIPAH/BRXwfZ26wLY6ELWCTzOVRGIVj9QM1+i/7U3/BRHwXpX7HPiS4s5rq4uBp3kqkUDY9znGMYH61fKTJn8vv7SltN/w1B42t452mjt9WlhEjNkvtbHP5V7t/wTF8Dt4t/bK8LW6ru+zqZTxwMsif+zGvnW+8St40+IeranMN11q+oS3L+25ycfhX3p/wQy+HR8SftY3WoNGGj0+KNQx7H53P/oK1z1d7Hl0XzYtLsft5pVt9l02Nf7qgV5T+1dd/ZPCMUZPEjk/pj+texJFsgUegxXgv7YeofurS37Km/wDEmtI7nrSPnuKMv+JqxBDz6c5pbeLcPm6D9asxwfL/ADrqMxscePb1qRY8VJHHtY/rnvUydf8AGgVhsUWPm/CpSgjiLH+VPjg/x9qkuxiDd0+vagk/P/8A4K8eKlitbOy4VUjJbkd/8mivL/8Agrh4v+3/ABJe3DblhTaNuMd6K5Jbnt4enaCP1f8A+CfP7Dtt+z3af2tqGZ9VkAdnf7xfHrnP4dq5P/gpnNJeeJfD8pZjs84Z9M7eP0rudJ/4KL+D4xj7ZCM9cnH5c/8A1q+ff2yP2kNH+MeuaWNJmW4W0EjOwPy844/DFebA3w/xHn+ma7IVC7uVH51u6TqRkjy3Ht7Vwmka5HLd7TtG0ZJBrrLCdbiEeWVya1PZpu51VnrccUQUc9s1Q1vV/IbPROfwqrBeLbr83J68dhWdrN99rQjbx9aDupi3eqQsCc9BwQOlcl4j1hpImWNvvdBV6SZWG0/d7isXU1hAb5jgds9aa3M8SrxMWW73RZdvm75bmud1S7WJvlbKtzgDr+NaOrhZBuTnn9PrWRcOMt97PWumOx87W3OZ8QxzSo/zbeOteCfFKLZrXIJ+X0r37WZWMTZ6DPPevAvikjHWjnceO/OK0icEjhb5d7H+lUXOD0OavXo5PPfniqUwY/SqERrnd+Rpy8Hjn0pCwzzk55qVRuQnnjFDIe5LbjcVqdevB6VBbLt/Pip4jtkoE2TwRnnnv2qTTJdniS3GB1/LrTraPJ9c1HaKyeJLcBT0oiyVI7/RZQtmOOGzk1P8KrlbfxH4gl3fO3lDj0+cn+lU9GYNYD6HII6VF8PLhRrniDaPmPlA+wG7/P4UM2R7v8BfB2ofELWbzUbS8k09dFKGOWNtr+aclcfQAnP0rm9Y8H3nhv8AaM8N211dPcSz6tbzby5ZnYzA5OeSSc5NZfw5/aCv/hKL6OzVZI73BdSccjIB/Wsnwz8RNQ+IH7QXhq8uNzTTavbRQxgbuTKAq+uSx/WudqV3fY6YqNlbc2P2Q/EF3oHxc8S6laXTW8kkk4aRCR8rTDIP6H8K8a/bLv1vf2svFkjN5h+2ICWbJ+4oOfevs/xD+wHr37CWk6x4l8ZahANNkkitZFWPAR5JlH3snpz25/Svg39oS+fxt8bPEniCH5LLVtSlktueTGGIQ/ioB/Gsack5XReIozprlmrEd3a/8T7bGcoAvIrvPA9o0sjR+gznPAFcH4egmvbqFRkmTAzivd9M+CupeEPCUup3DR/NEhZf7gYjj684NVVkrGVKLPtv9hOx+y/sNXDbSPtXii4BOOoEVvj+Rr0DUNO87SNPVl+Xk/8Ajxrk/wBisKP+CfWhyYwbrxRqLH6IsSj9Qa76+hdtLsSo+6g7feyzVNNXRFaVpGla3DzW3hXR3kdbG41J3mUHCuAucH8QPyr0nwz47PxD8QeILy5mj0fwf4Vb7KioMNMVxkk/j+hrzCK3Z7nw/N0jt9R8t2HYMMVna/qLR/DHxNYq3lw3PiApKAf4GlGf/HSa15DFSse7eHLw+NNE/tS1hTT9G6pc3B2+auMggH1HP4isyfw6usrMulxNI0jYe4IwoHfms++1F/if8WfDPguOX7F4e0fT1urlFbakjEj73tk7vouK2D44k+KGvXWm+HYTZ+HdNmNjB5Y+e7dThm9cZP559KnYvmuZ8kn9hXUNn5iskPEjKu7ms3xh8PNN+LNg1tPpH2lcFVkaJflzXsOlfBCz8M2UdxqjCS4kAKwg/d+taV9dWPh7Rml/c20UXOBgZ7Vm9zRRPy9/aX/4Jaarp891f6H+8aR93lKvTPJ4r4h+IPgjUfAHiKbTdVt5LW8t/wCFhjcOxHsa/f1fFGn65a+askbLnuQcmvzb/wCC2Pwhs9D1bwz4ssYYo1vmks7jb0343L+eD/nitaUnezJqU0ldHwIZcjnv+NW7H5jt4PFUpFyf7vPStHSIOT611HIXoYiD82ef0q9bnJx+RqvbIR24q3bxDfnPf86AL9v8yquPf6VYQYk/ujvUNqv7z7vvU8Kl29DnrQBKUaUfdwvrRGMBhtHXANSBynHt0FESNIf16dKAGiIFdufm9Ks28OwADHTj1NJBabd3r1wD0q9ZWvlopZvm7A9qtCexLptlidd3y55GK3LS3jjXbJ65zWdYSLb3iu/zbegxWwxW+UeWV7HP86ZBUhBEzDjk8e1Sz2cZuI/4Q33jUsFt5abmb657iqrairPuGG2kgcdTQTcy9WRFPlpj5myT60kmnGXw9qfk8y3FuYE9y5Cj880ajLuf+9t649+f510nw50pPEvirw3pgXcdQ17TrZgP7puULf8AjqsfwpPYqnrJI/Xr4P6Kuh/DiwtVxthURgeygKP5V0UFst3qthB97zrqJMD/AHx/hVHwXB5Pg3T17tEHPHc8/wBa6bwHYDUPH+ixkA4n8wjtwrf1xVx0iVV1m2fQV6f7N8KTN/zztzj2OKf4RtPsugW6/wCxSeMcReGJR/z02p09SBWlpVv5WnRr/dUVFiTh7mJYDrCgDO5gOP73/wCuuo8M2a2ukwr2C/nXK+KD5GvXUPTz5Y/y6/0ruLXbYaSrSFVVEBJPTFLlA8e+Jnxe1Lwt8S5YFjc6TZw5favMj4HAPrlvwxTtJ/aEk1m6jjj0yYLIwUMfcgf1r0G/GjarcCOQW0zzHcAcEtmotXstL8OaPNdeVBClrE0gOAMYBb+hosTc/NnwH8KF/a+/4K3XzXNxbrY6TfrI6TgN520ttQjPQbSe/QCv0M/4KzeHfD3wm/4J7eKMWNjCkdmY94iCkhY2Y8474r8vv2BrTxp8R/8Agpdr2r+C7eG6v4pLh3M0m2KJGcKpOO+TkD0B9K9s/wCDj74w/FzwB+x9b6H4jfS4LPVG2z/Yn5kVmCEHIz0BH41SM5Ssj8L/AIc6JtvEuJNzNITIfxya/Vz/AIN6PBhn8T+JtXZSwWVlU46YWNf57q/LH4ZCbUd0kinbGgA7Y9K/bL/g3/8AAqaZ8BbzVPLw95Pu3H0Lu38iK45azPNy73sTOT6H6EPH8nSvmL9rbUfP8XrCv/LIKv07/wBa+o5+F718e/tD6h/anxGutpGFcgfyrenuexI4ZI/l44+lWYYcAevTmm28Z2e+asRx8f8A1q6TMaicdPp/n8qeFz75OQalSLI4HUVJHHnHX/GgB0ClQvHHWoNfm8nTnOV+Vc81dgTcCKw/ifdLp3g2/mZtvl27nr14qZbB1Px0/wCCkviv+3vjJfbS+1ZSOT0A4/pmivP/ANrHWv7f+Kmoy9f3rE4orlPoqUPcR+3f/EPveWduZF1y6dlBI3SDj8AP6183ftB/sr6h+yb40h03UJpJlvkZo3POcH8P8g1+9s2qaeluwa+teneRa/Ln/gtrBpdv4q8L30F3DcT3PnRFVYNgDBJ/QV5NK6Znh5XkfEmnbi25TuXOetdHo181o4O5hjgVxelX/wDpP3vl7jPStqDVFuJRHnIPbNdR61N6nfQXCzW4lZs7OtVdXvVaIrGv3hg5FY1nfmGD5nbaxxjPWrdtfR3aMqtlvUnip5j0IFKQyKOD83Tn0rE1GURPlvXBrY1FygZ93yrzkntXJ65rax7tq7ueoqosK/wXM/WbkiY7d0a9Rg1zt5qLxSHk/MeuBxWle6kZtu7lj1B6Cse4kVYiW5PbNdUdj5mvLUy9VvjNGw2jgd+1eI/FeUPqu3pwTXtOqzqbd9vze49K8S+JcZOrszMG4P5VpE4mcNdJhulVJm2jn5vSrl4RuP06etZ80mXx/PvVCG5+b8e9PjOB/niou1OVv580EyLUL7R1+lWtPjDN83T1qjE2+L/CrcEvlpj+XepkYyNi1jCjoPxqKNQmuw+pU85qOO88sD6VHZy+Z4lhU9NpP161Mbmcb3Oy0n/kHDkharfC9fN1XxFIzkAyIvX/AHql06UG3X6fnUHw4I8zXMcf6SuSO/y1odUTV1OyjiLHq1av7Odj9u/aa+G0HP77xbpSdPW8irF1Nw6nnofzrsf2OLY337ZPwlgAzu8YaW3PbF1Gf6VMtjan8SP3O/aS+E+i/FvWbvS9es1vtP8AtAn8lsbWZckEgg9M5r8k/wDgu5+zz4X+B+k/Du48O6cmnf2lqM0Mqxqq7lRAxPAHdh1r9lPHkyHxXc7vvM56mvhn/grd+xtJ+1rpnhWSPUFs4vC73EwywG55Ag/9lFeJRqcs7s+6zehGph9F72h8Q+EPh1oHhf4TeGPJ01ZdRuLJb65uHUZd3bIHToBxWl4xmVfgrrM0zfvJLmGFfYZLf+yj866yf4eX3hvQLfTb+SGSTT4I7VGVgwIUADHp06VxPxcnj0z4bx2hnj3XF2AEzydq5Jx7ZH51bleVz5n2fLE+tv2Q7b7F/wAE7/AhXj7TrGqSn/a/0lgD/wCO13d4JDo+meWMsybue2GOK4L9ljXrWX9hz4daTC4a5tbjUJpwp/1Ye8lCA+5wx+mK9GlIg0uzYjpHg4+prup7HkVviKjao1tpscLEbDcxy56cg/1qTUvDU2q6J4khUbvPvBdpnsAwOfyqLXbdZPh/e3Cj95bzwsD6Ddg/zq7qN1NpWo6hbR7m8u1899vdGwc10HPdlnSdTk0n4rXF4hZWudFUBvcbu/416Z+xYYIrLSVfa32aFpWz3diWJ/76JNeZ6NrMN9HpP3VmmiMbtjg+gH512/7NQXw94l+xK5ZYwV61Mo6Fwep7j4m15bie4vLmTbFHl2J6Io/+tXzz8X/iVLdXO1pJGNwoYRA/LGv8I+oHJ9ya9L+PGqyaZ8PNW8tsSSQtHx3zwf0zXzI/idNU1aSSVt3zYBznA7CueUex1RL2l6/qTTkQzyQxg52qeCa534q/s7a5+2pf6H4EsYpNU1e8u/8AQIzwsblcM7nHEapuZj2AJr0HRbC1ngWQKvHIHrX2n/wTM+DMfw58J6l8QtQtkbVvETnT9IDr80VorHew7jzJFOf9mEHo1VRpty0JqVElqeJ+F/8Ag3W+FXwu+CS+HTBH4i8aagoGpa7dwhyh2/N5KEkRJnAVRzgkksRmvg39tr/ghT4u/Z/W41LwdHNqmlxKWaBzudsf3T/Q1/Q9oPhsmz3SN5k0x8yRz3J/ziq3iTwDa65ZSW91BHLHINpVlyDXd7PscfOup/IHqWgX3hjUpLHULWeyu7dtskMyFHQ/Q/5NPt4FZufuiv6Bv2/f+CL3g/8AaD0651DS7GPTtYwWjmgGxwfr0P0NfjT+07+wJ4+/ZZ8SXFvq2k3VxpkTHZexRllC5ON47cfhU7bh6HjsYw3+eKmaVlkXb/8ArqOKPy3ULUuzYcdKALMO1UwT83YCnQxFVBXPSoVXJ3fh+NTRBnm5G7cOlAE1uNrN6/qKtxBnDYK+5NVYJDblsqOf0qzaqXyx/irQmRMZ2ICqpz0961tMfKKnsM//AFqo6dEvmqem3v61espUs7jOB9D0oM5MveJI2isI1XAOMgDvWFFCsrBR1IGcH3rVd21e4TnB6s2elQpbJCztG/yL0OKrlJKk9utksildrSAcnrXc/sqaX/a/7QvgWFlBjXUZbtsjk+VbSsD+Dba4XWNtzCp5JXgDHJr279hTQf7U/aR8PRqo/wBF0+4k6fxu8MX6B2/OpmtDShrNH6laXCLXRLOMf8s4VUj8K6r4KWZvfilZj/njbvJ06ZZR/jXM7Wt5TGPurwPpXoH7N2nGbxxf3H/PKCOPPuSxP9K0ewt5Hq3jZPMtrGH/AJ6XKD8sn+ldFaWmIFHtisPxDF9q8Q6TD1Cu0h/ID+tdfBZ/uc4+761mM8k8f2+z4m6XEOkxLn/gIx/UVvfE3TptQ8FT29vG800gARF/iPbPt0rY13wva6j4kt752/fWqlV/EjP8qyfHXxCh8LTR26wyXMxTzGCDiNPU/kfyoA8ltPA3irTpNsNuPtkjHfck8RqcYCj2H8q5/wCLuj+K9I+HuuX2q3Ei2un6ZcSZ3fLkrgdO/Ne5WPxN0m8ht/8ASIvOum2JHn5mPPb8DXjP/BQP4rR6D+zN42hjVldbNYS54Hz88fgKDM8p/wCDdDV/CMtz481a5t4bfXlvQkl5OQu4NkqFJ7AAD659a8b/AODtH456brS+FfCVnfw3EskkRmSN9wjQAuSefVl/yK9q/wCCFP8AwT8g8S/BG98ZeLbW8jXXrtpLOJbgxhogAEchT3yx59QK/NX/AIOMPDun6R+2pHpWjzTGG2MqbXlLlVDADr9Me+KnmM62kT5C8GRx2ulzvCMgcAgfjX7/AP8AwR1+Hv8AwhX7IOgK0e2SaJWf3IVR/MGvwV+HWhE6daW+DvvJ0iBPqzBf69K/pG/Ye8HDwh+zX4XtcbWFjG7A+rc1yx1k2efk+0592emaofJs5HPG1STn6V8S/Ea5/tDxpdv1+c/1r7Q+IFyNP8I6hMfl2wtXxFrE32vXLiTJ+aQ1100etIgjj4+gFWETnGD69OtEce6p412f561qSEcYxT7eIj3pyLkZ4qxFHyuPpQARw7R/vV5j+1l4gPh74P6xMPvLAQp/D/GvU1G2P096+b/+CjXihdC+DFxGzbWmz9Meh/Ws6jsjSjG80j8ePi7e/wBreO9QlyW3SHqc55orL8STfatZuX9ZD+FFcyPqqcEkfe8v7bfxiu3/AHnjXVpEbHIZVBB+gHvWbqnxP8TePr1bzxBql5qk6/caZ8hM9cDpzx+lYOkaU0bruRmGM4bg9f8APStuy02THCdG7VycqWxxU4pPQ1tM1BrqI87f/wBdbul6hLEoX+tZGl6dttxu+9nOBW5pFuBMpClm69OBQdtOWp0MUrXFov3lBHI7ipdP2wScM2ORkGkT57VQOvHI9KnisVjg+XHPFRys9KFRWKWrDzFbbI2Dkn3rl7+PBzt3L1x/Sur1DTWQddwYdc1z2p22fbsM/XpVxCtJOJzWpPliw9eAaxb4+YzN79fWt7Vv3PTg5xisK/Z2DccDk4HWuqOx81XeplXdzuhZdvfOc9BXjHxMkB1hvUk8ivabxf3LE+nAz0rxn4oRqdUBA4x+daROQ4O8bBP+cVnyKQMsBx1rQvhg+/FUZhtHrVARE7V/Snxrt601Thsd/wCtOiXL/jxx0oJkWF+6PrmnJ8tNA5/+v1pynkD+dBm0Wo5sKo/h/lRo77/Eig9Nh/lUaOV/GnaKB/wkWR2Q0RiCidhZSkWmFXOQBTPh2MrrDcgNdAE+uEFNgnCWPH8C8+9J8PZd2l3jdM3TAe/yrVWNi1rVx5bfL93P5V6T/wAE/wBDqf7d3wfh+8reLdPJx2Cyhz/6DXmWswl3b5TxzwK9a/4Jt2fn/wDBQP4O8cL4lgkbPQKqux/lWdT4TSj8a9UftX8b/EzaHqt1N91mJK1+cH/BTr9qrxtb+Mvh14L8N6hHpdv4muJ/tlwRlnwY0UBj90Dexz9Onf6Y/wCCqn7WNn+zvpOnXse3UJtSuGgWGFwSgClix9gB/wCPCvyr+Jv7XX/DS37QXhLWHtRa2fh5fLhjJzvdpAzse3OFH0FeTTo31PpMyxzT9mn2Pob42f8ABPD4hWC2103ja41CGYCRx8y7Dj/x7+leT6z+xh4sgZfM1n7QVIwrZP8AWvoU/tbX6XVvDua505gCYZT8y55O1u341v614u0rxlBbvpd5F580fnSR9Hj9mH+HpWMpTTPPXLI9A/4Jd/sd+P8A40WVj4St2tLOztp3nnvHJcBMDGB16ljgd296+rvjd/wTr+IXwb0C/wBU+zw6toukQmaW4jYRuqDJY7T6da8P/wCCaH7T938C/wBonw/Dc3CQ6TfXaW92ZDhQrMFZic446/8AAcV+vX7YfxU8OeEv2VPFWqahqNn/AGZqGnPawOJFZblpAVVV9c8n6AntXRRqO2p52Iprn0PxnTxPZ6v8PddgjmXzPKQge4YH+ldRbKt/8R7dflMeqaEEJx1Iz/jXzT408UWejX12bG6ZFkdwRn7y5qPSP20W8Kazor3NvJMLI/Z5Zj8yxw85b1z7V2U6l1qcUou57rpkXk+D9FufuSW181pMT2+Y4/UYrs/g3fS6J8VVt5mw3mgtz1BHFeD+D/2ovC3jHwzq+nRX0Udw1yL2LeQoYZzke2cj1r1Sz8XWs/jPSdVtbiORbi3QlkYdRWnNdFRi7nuvxxH2rTGg/wCWcykH8a+K9YurjwlrFxBPuzHMw3H+Lk19o+PtQTWdAtbhGUqyg/pXz38cPhpb+KtMaRT5dxHkg4xv+prPodA79mW8b4t/E3w/4WhmKvrV9HbFwcmFCcyP/wABjDN/wGv1wtbe10+/0mwsIVtdJ0eBLe2hX7qKAFUf8BUAfia/n3+GXxv1z9jD4+aP4qvI5J9P0y4fzWzwEdHjJBPGQGJx7V+wn7HX7cnh39pLwRZ6tpl/b3C3XI2nk4OOnUEHgg9xXZh4qxyYm6dz7Y8Nakvlqv8AD71uT2azpuXvXl/hnxas0KMr+nFcD4u/4KVeBPBvirWPDtnef8JBrXh6JptTgsGEo05FDEmZ87U4Q8E59q6vZnJzHvGo6Ms4Ksoryn43fs1aB8W9HmtNV06C4WVSm4oMj8ah/ZG/aim/azbVdY0+waDw9aOsMNyX3LJJtBKehIzk4yBkDqa9kuhC7+XlS2OmazlHozSM+p+I/wC3X/wQvSyvL7XPAoWzcAv9mRP3Ln3Ufd+o4r81fif8IPEHwf8AEkmneIdNnsbiPhSwPly+6t3r+rrxP4Rh1CNsqpFfLf7W/wDwTx8IftDeHbq3vtLtluJlwH8sc+n0OecisXTaNOdM/nJVNq8L8x6iprfn7v3hxX05+3D/AME1fFH7J2rzXUMM19oJYnfjc9uC3y5/vL79RjnPWvmmD9xwV7+lSEtxkBxJz+tW4JNi9PlBqFlV1HY5zwKvafbmVSmR1wM960RnJkqS+YflTqeSRzVqzgMjbiDSpEImZRjngEHvUgt3hB2fNj171USGTPtiR0zgMMk+tUVfyp9zN8q9F7Gri2hnj3SNukbooqjfJ+9O7G0HGKogLy5MyttVcsMevFfTH/BMPw3/AGn+0dJcSMzLZ2NvEB/dLSs5/wDRX618zwSK2oxptJ3sMn2FfaP/AASi8MqnxQ8RXqncvmxxDjoI4Sf5yms6h0Yf4r+TPvC6UNOW969P/ZZsd/8AbF0c5e4EY57Ko/xrzaVQzk+tex/sw6d9n8EtMf8Al4uJH/8AHiB+gFaSehEdztBGLnx7bx/88oM/iWP+FeieKEs/A/hcXF5JHvaPeQTwnHevPdCdZfHV/L/zxjRP0z/WrXxSmXxB4bkSTEgjw+1j1xWZZxejePZvE2qXDS+XDtbdEiHO5f8AJqx4n+Hy+MJFma6kgWaMRyhOrr6Z7Vk+HYFufM1FoPKeZRHCpX5igzzj35Nc9qPxE1PSb+O4aVpDvI+yIv8Aqoxxkn8qmISOh0T9n3T9E1eG+WaWRrdtyBui5r5x/wCCx9xb+E/2T9RaP/XapdJEcdSApH+FfRfhX4r3Pi2HUJHt2tLW1jBWQ/ebgkmvij/grh4oj1f4feB9F1e+FnZ6tqP7+4YEiGMuAW/AD6VRmetf8EpP20/Fngf9kTQ7L/hCPEviKGxgdmv44gsRALY288rtUc+2e9fiT/wU/wD2h9Q+OX7cHiDVtSsZbG4jPkJbSD/U8szE++WP5V/Td8C/Cnhn4E/sPwQaDJG+n6f4ezG7EZYeQAufzFfyz/tda9Z/ET9r/wAbaqrL5S6i8CMMYfadpI9uP1rO5z4uVqbOq/Z38Ot4j+JPg+zZeZ7+FsY7glv6V/Sd8JNFGh/DvSLVePJtYkx9FAr+fb/gnv4bj8dftbeCNPt9sqx3Ku+05AAwv9TX9FWj2qwaXCuP4c1jRjucuUxccPd9Wzh/2gtR/sv4b3xDbTJhefxr42i/ezu3XcT1r6m/a+1ZbTwNHCDzI5P5Cvluxj+X8e/auyOiPSLEcfP3anhTJ+7SRJuH+0O1WIocv3qgBYuamgjzSeXz9fap4Iwp/wDrUWAjePAb5fpXw/8A8FZ/F62Hg+Kz3dRuOeg6c/qOK+5Lv5Yfw9K/Mv8A4K7+K/tXiRrRZAyqgxjtyf8ADFZVvhOzL481VH5+3afaZ2Y9SSaKc6kv04+lFcylY+tjBWPvqPR4rd+Pm29MjgYrc0m0SW3+UEFeOe1VbZFvIgzsq9+tT/bRaAqu35xnPXiudJnixJLeFre/3eWfLB6+lbLaharC2yP6kmqyalC1oF2/Ow9O/wDnFUV1FbZfu9DzkYzxRI6IM3bOfcg9Ac9OlXodSbyTGB82cgd6ydP1SGRPm2gnjnnFaMF3GHz6HaTUnTGRpQ7rmBvMXduGBnvWHqlruikAVhwcYrorOdXTjBUVS1q7hSJiygN0HvVRQTm7HmutIIp2y2fbBrDvSw3H5Ru44FdF4ljErsynnPftXP3TbIsZGfTHSuiOx4tZ6mDdxsUkz9361438Tyyalt9CeTXtGpXKojehzkf4V4v8TpN2p5/Dnqa0iYnE3akH1781n3C5cfy9a0roeYD/AE71Rnj2nj5qoCug39aFXP549KkVc/jTliw+eSKCZD9oI4pcsCv5UFG2457U+NNqrnj2oJHqvTgHv9KNJVRrzYbhYzk/hTpFUYwe3SodMbPiCTv+7PHpTiB00LE2Bx97Her3w2tfN8OXTDk/a2x/3ytZsaE2oX0HWtz4aER+Hpl3fL9pc/oKpmh9O/8ABO34e6H4pv8Ax1eeILW1ay03Q5JDcXDfLGdrvtAxz9zceRwuOc14X8A9fn8J+LtU1qwnmtNS0nQNSu7K4jO2S3mFs4R1PZhnNfSn7M/7LcPir9mnUPEWoatfW8WuSPEtlDMyxNGhKBnUEbiTu4OeAK+c7vw//wAIX4n8dafbyHbp+i30ZOOoMZGPxyK86njqdaUoQ3i7M9CpgqlGMZz+0ro6XRPC/iT9qj4Y/btS1q91S6t45YzLdTmTyScjgduAPrXyv4Bf/hH9UaXYW8mXB9sGvtr/AIJ9eOtJ8BfBXW5tVkU3F1M3koeMqkZJx+LV8N6RriyWNwrfLLcTl/oCadOV20c9boz6C0/xUvim3imS62qqj5c/dNdB8Mre4g+JGhyW8kkkkl9DFtVj+9DuFKH2OcYrxTwXezRJ5Y5EmBkV77+y7Z/2n8bvBkA+82tWibfU+coqKkdCqWp9kaT8OmttOaC6QR3fnSknPJHmttP4jB/GszxV4Z1KC2jjkkuJraE7lVnLBT0yB64r1PxLbq3jKRRtb95t4oa3ju4RHJGu0nHIrP2OgpVNT5p1vwT56yPIG9Rz3riNc+H0gfbDG8rMcYA/n6V9t33wf0HQfB8esas0e68J8mM+g4zj8DVDR/Bdutot1DpKxRsMq7oBmhQaI03Pz58Y/AybXmaSy86xvogAsiZTP8qqx/E3x98HoIbZbq5uLeFsx+YxZh0zg19w658ILfULmWQy7GLbgqAYBrm/G/wRjhmtbVrWNlntRO8kiD93uJAX1zgZP1raL7iZwXwo/wCCsUOm+G49M8TWlwskHyq6qW49z1/Ssj4v/wDBVXTbjTZovD+kzXVw2drzDy4xx1J6/gB2rl/jL+xdZ6iLq60eWRrojIi9Mfzr5W8c+BdU8C3jW+pWc1uwOBuHBNaxaZEro0fir8evEPxYvWm1K8Pl8/uIuI8nkn1//VXVfsjftq+Kv2RPHcOoaPczT6VJIrXmnmQhJB3ZP7r+/Q459vHZJSD2qo8+1mIFbx02MXruf0j/ALCP/BRjQv2nfAdveaZqC/aGUJJGWxJC4H3WXse9fIX/AAUZ0HXP2QYP+EL+GVjG3/C+NTZNSu7eF2ulw0YZXcZIEm7BPdUl65Nfld+zt+0r4m/Zn8e2+v8Ah28kidWHn2xYiK7X0Yevo3av2y/4J+/t4eAP2zo9F1DUI7P/AISLRQVa3vMGW1kdGQ8HgjDNhh6/WuynWvozllT5XdH2mP2jPBv/AATx/YQ8LyaLp9zqdva6ZDHpdhbJ/pOpyOAzzsoyRvLGRjzjdj0Fcp+yl8YPil488KSePtUvG1KfWpzNLpAhEf8AZ8Y4CKOoxyMNzx65Nec/Gnx3N8OP2rdO1vxc9vdfCsaE3lK8GRpV5HsAYMP4GTdlSOoXHoYf+CHXxG134ufF/wDaC8dQ6fqen/DPVtfjh8KQ3cLQLcBDIryxo4BG6NIWbgDdJjqpxtFpmWu5+kOmRzXWj20l1H5c0sStIh/gJGSPw6fhVHVtEW4jb5e9fLH7Qf7a/jT4TeO9J8Jx6fY3XiTxNKWsbGKQs4jZ9kYwOSWbIHThGNfUmn6s3hfwzosPiK4tbfVr6NVkjWUFTNty6oeNwXpnHp61DiNSPO/ix8B9H+KXh2bT9Vso7iN1IGVyV+lfkH/wUU/4JA33w71u817wXY7rdsytaoNsb9Sdo/hb26Gv3Sv7BQv3evSuU8beALfxNp00FxbxzxyKVZXXIIrCVPqaKXc/lOvdCm0rU5ra5hltpoXKPHIpVlI7EGrFtAquArf/AK6/WX/gpx/wSct9ftLrxR4XhW1volLsAvysAPuvjr7HtX5Wa/4UvvCWszabqFvJa3lq+yWORcEEH+XoanyCRCIC8Q5x6k8VJHGzFQpPy9SKbEVjPzE7VPc9aSGVmZ2XhM4wO9WmYyfUdO8kU+ImxxgsKzZ90rFfmXBwMda2UtvNJf8AhUZz6U0W6+TvVemefSmZykZ+lQh7tVXcrNjAPav0G/4JMaMp0jXr/b9+4mKkDrykY/8ARRr4L0K0N1rkG0bmz0A71+kX/BLHQ/7P+BL3O0qbjMmfXfLI/wDJhWUviRvh5e7J+R9IXEvlRszfwjNe/fATTza/DPTdwCs8Ic/8CGf618/6sc2M3HzbSBX074Asf7M8GWUf/PGBQc+wqp7CjITwUfO1TVJsfeuGUH1A4/pWP408Z6baXd5FJeJALUDzS5wvJwB+NbfgKDGiPL0852f8yTXn3jL4EzfEfVLqbVLoRxyXKSIkJwoVTwD+A/U1kyuY6DwNqum6vcJ5Ev2mSRdy/wCyuSB+eDXUL4OsWaR/ssO6Tljs+9WF8MfhLb+AnuZI5Gle4bOT/Co6KPYf1rs3ZUT0qog5GWfDdqkLKsESqwwQFGDX5b/8F8fh345+IfizwppvgPQpNVOnorzrGnCZLEe1fqhcX8a7v3ij8az5bXT72fzGhtpZR/EyhmFOWwrrqfhRqHxU/bv8S+D7vw39nmg0K+hFu1usKqVXjuDx0/8A114voP8AwSJ+M2tWF7PfaHI2pXZLA5Bwx5yT9Sa/o7SPTkmaNYbVWXGVCDip0itweI41HsoFR7NkSjGW5+NX/BGv/glZ8Qf2e/2kovEHi+zmWCFNyHB2oBuPJx13EDAr9nIrdY4FX+6oH1p1vCh+ZVX8qstHtWtI07Bolyo+af22dW2pZ2nTjJH1NeCWUeV4r1n9svUft3j5Yc/LHhenpXl1kmxFB571oVfQsQxAD/69WIo+O+P602FNy9/oKsRLlatIkaq4NTxx5bI/AURx4PH61PAgX8vSmBn6xL9nsWkyF2gnPpX5Af8ABTjxW2s/Fe6j3blUhF456kkf+PV+u/xCuV03wveXDY2xxEnJ46V+I/7a2uf238XtQbdnbKwHGNvJP9fyxXLiNEe1k0LzbPFTBlvxGaKm24j+aiuO59Vyn3GuoeWrDeQx757+lMXWJFdmOSu7nJxVBj5gHf0HXFSSTKi+Xu5I6A5rE8SMTbtNY8wp1I6Yq9HPDcybioVT1weP8965+1haUM0ZO0DOcentVqKTyseYQcE8g9KdzVRsbUbLLfgQsPJQdfX/AD1rpLS32wrht27qCK5azu44R8rduPatzRdVDFd3zdzx3plHT6ZJsjXtxwT61m+JrpSnGN3Wr0N3GLdSzL0rF1uVWG3IbviqRNSWhx2s3TXFww7+3rXOarcFj/D05FdZ9h3u3PoawPFWmNGc4x3z9f8APetonk1DmLxvMiZm6+meleRfE0KL/ruYHpXq9++2Fg3yn2NeQ/EYA6hxj2IPStImZyVwMrnv3qpOmF+narzoHP8AiKqyq2e/4VQFUcY+uKdyT3+aneUdh9jzSlcDA6+uKAFjQg805m54PbqO9Ivz4/Wklhx1zQLlFi9G+n40zTju8Qzdv3fpUkKfz/KotOVjrtx7xZ9cVUdyDprZ1bTm/wBlcA1p+AGx4XZs5b7Q+f0rFik22+3k5XOMZzWt4Et2bwwozw0shPvyactjQ9K8I/tTeJfAXguTQLS8X+zwzGLcDuiycnBz0zk/U1N+x38NLn9p34+yeC/tLQ/8JRZXKXV0fvJEoEshB9SqFR/vCvL7nSGUsWOVznjvX09/wRi0lbr9vbR2/wCeGj6k/A7eQR/X9a4pUYU4ylBWb1Z3Ua06tSEKjulZfI0/i1+yKv7NmiWOg2t1cag80dxNuI6HsP8Ax018Er8Or7w94ph0e7tZotSmUbYGX5+Tgce9fvp8VPh3pviHXTqE1rDcXFspSLcoIAJ5498V+TH7WUA0H/gpJN5McUckaWzbUUBQ5jJzjpnoa5aNa90zqx2EUJXWxhfD/wCFE3hmKFdXt1V0xkbgea9d/Zasra0/af8ABMca8LrUEoBOOFJbj/vkn8K5nX5Zrm/TzJGbcxJz6967P9lDTY5P2xvAqyNmFbpnIz1IglKj/voD9apybepz8iSPtu/l83xTKzL828tirrQpczNsX5UOF/Kq2p8+L7hV+XMjAccd66CHTYFF0yt81vIEVQep28n9DXVFaHBLc5v4lJJrXjz4d6PKx+xzSASLngquW5/Kui+IHiC++KXxxh8D+H41trOzQNM6jlYlwo/4EzEAfie1ZfjvTWk8feBbxc7YWZTgfd4Ofz5H4VN8EZLjRPjz468RfdbAggf0IEpOPplT+IqZREpB40s9N8H6+PD2lRtqurIQsuwllQjrn+VR+JPCM15BAuqbbbd8oCvhmPpV79nC803wF8B/EXxI1rbPqmqXczxGQ/MBvdI157BVLfVzTvhf4VvPiZ4ck8feKJmtdLkXz7WN/lWOE8ox93xuA/ukVk00bRdzg9X8GTxC6h0u3zHaqGlmYcAk4Az6/wCFeU/Gj9nrQfH9gLfVV8/UGwymNeU/yf5V9JaH4iHiyOa502zMOkTHZbyMMNdY4LAemcjNZtx8PobK5e7mhWIt8zO3JNZcz3Noxuflf8cf2OfEPw/vb64s7WS4023HmeYqEjGcD9SBj3rw68jks5ZI5FMciNhlI5Wv2R8cmwv7Z7aKGOaNhiQsOGr89/2/vgfZ+CfEFjq+kwmO3vyyyqo4Rhzj6AD9a66NVvRnPVo8quj5rWbnPPHrXSfDD4m678KPF9prXh/UbjS9Ss3DxzRNjODnDDoyn0PFcu7bWxyeadA5x8w9xiuk5mftZ/wTN/4K5aT+0ysHgX4lWFquqKvySkfubkZ6rnleoGCTyR1r9Uvh94z8O+Avh9u01Lez0exge5KWy8BACzEAdWPPuTX8lfw08eX3w48Z6frNhJJHNZTLIQr48xQwJU+xxX7bfsU/tyf8JF8PtNe6uft2m3sKLIGbd5eRyreo68mj2/I9TmqRPbf+CO3hfxP+1J+0X8Sf2mvidY3NjqF9q02ieEtIuhkaTbRYR2UdDsTZCrDqwuG6tmvcdE+Ldn+2h/wUl1Hw7a3TTeGfguoN40co8prtGHmKT6tMRGQeq20g9am+Dnxk0bQ/A3/EnEK21pG9wlvFxuY7nIA9WYn6k1+cf/BPTw98bvFPj3xd8J9Dt7nw7qnjbxPL4o+IXjOQHEens5EVpbnq5ctK5JIIMrDGM57o1FJGR+z3/DTPh3VPiqfD9vcLJDCNkt4D+583vHn1Hr0r06XRVden4V8E/CmXw342/bmi+FPh840H4P2kOo6/cSMN1xcAJJhm/i3SNGrA9kl9K+rvA/7Xfhv4ueObjR/Ccja7HYTm3u7qA/u4nGd2D0KjH3geSeM0Sj2HGT6mt48+HNvr9lJDNGGVxggjqPevze/4KS/8EmrP4mRT+IfD1utnqNuhI8pPbOCO6+3av1O1KCe7v4UjVfIAJkYnknsBWd4m8HRanZMrIGBHIrnlDW5rGXRn8qHxH+HWr/C/xVNpetWklrdW5+6ejj+8p7isq12Rjcq9c4Br91P+Cin/AAS40X9oHQLm802zjt9WjBdHiXDhvVf8Ohr8Yvjf8Atf/Z88VT6TrlnJH5MhSK42lY5sZ6HsfbrWal0MKkXHXocXLMy24bOPX2pNPuSH2t9xhjB4xUls+wYZdy9fl7VYWyjuUaT7p7Ad60TOWUh3hqb7NezTQ4BhjZl+uDX6jf8ABPvQG0P9m3S4yMN5USH6rEgP6g1+YVlpfk6PdSBSfNAhTB7uQoH/AI9X67/szaKujfA/Rogu3zFaT82OP0ArN6zRvSlalJ+aOsNq11eW0I+YzXEUePq4r6hkjOm+EpGH/LO3Pb/Zr548Kab9v8aaPD63YY8ddoJ/pX0X4tj8vwlMg+9IFj/MgUVJake0sihDcNonw+luFUCSK3LDjoccV80+Mvih4sQRra6pN5lxMECovPLYr6p1YW+leD2ku4vMt1jAZMZ3+1cAnxA8N6frun2cOgr9ovJQkTeUuFJ759utebXx1KE1CUrN9DzcRnGGo1FSqTSk9kdxpkc2m+DYGcvJMsIJJGSxxXH61ceILjwTcGT/AEe7kcCMJywXcO/0r0fX9Qj0TSWuZvlijXcfYVwvjv4hNp+h291Y232r7QwCr6jGc4+n9K74yuehTrKWqPCtWh8aarryqjah5bNtZhkDdnr/ALoFehfCTQ9a0fWLv7YLiSHAKSSMcn6Cm6b8Zrq4e182yij899jnPCHOMV61pgWSyR8D5hknFam9z55bQ/HUHjPULi1jn8m5lLJubg8k9Ow56961l0f4g6gNpmkiVurYGf8APpXu0KQt02/Wpo4EX+7VJDMvwdps1lo0KXBLTBRuz3PetS4Ty4y3+TU6xKBVTXpvsekXEhOPLjY/kDVEdT4j/aL1X+1vindncW2yH/D+lcvbQkgdAR0q54/uf7U8cXkpOcyHk/Wkt7fCfzqol9CSCLj/AOvVqOHFJDDtX6VYWM4qieYjVQp6dasQJ7U1It3p71ctYW29se4oJPOf2ktY/sf4U6pJ93dEQDnpX4b/AB51L+2fiRfyL90SH371+yf7ffiUeH/g/eDds3oTn6A4/WvxU8W3X27xHdTfMxaQ/hXFipapH1nD9O8HIxjb7Rj9KKsqlFcbPplE+vomWMNu424H1qGctI3TYPUdqsQxxT7WZiN2OB/n2pkxWRyAOOuTUHz8YlmzvGjiUbuoGfepIbuS6bb93jj3NZ0A3Z255IxheMf5/pWhZIZfmU8deOg61SNOU07KMw4Z1ZVxnp/n1rSgkI+7xtxn3rLa/by1jwoHAz2/KprKfY6/NheOtUHKb0d+0MbZbazYFSXs4nXuzAcH0rDu7naV+b5upGaqzanJBESMYHXuCOcUGNRaGnLc+SMHaPYVy3irVnmG09P50251yaWRmP3f51j6vqDXx2929sYrWJ5tQydTYqjKcdz0ryj4gYl1H9K9jHh2XUo2+8R/KvL/AInaR9hvwpOTkkc/hWiMThS2wn5fb61Wc7h/jVuSJgWz1bt6VT24+h6+lWA31/rTSQoGM0rjjpximj/vrd1oAWE8/wBKc/bPfsKTPye3pnrSyncvTpz70AJGdr4z81QaS+zWboekdTJ83b0H0qvpasNZvCQOU7GgTOghP7nPqOPat/wE+/wzH/d8yT8fmNc4bjOn/Qc/Wun8Cw/Z/B1s/GWDsMjrl2o5irDrqTO9m/DPavqD/gijE6/ttNcdofDeod+hPljj86+XblfNV+ua+tf+CJMH/GVurSbflj8MXgHGcEyQ/wCfxrCtL3Trwcf3sfU+9tb8Z29jrc0UjDaXxz0r4x/b68EfDvwN8QrbxRfXFnD4g1TbNtbBk2KNoPrjj/Pf3j46+JF0nWbiNWw7E4y3vXwf4YtvDnxK/wCCoeuR+Mt2raTbwRRbXYSJEwt0+XB42hicgd/xrzIU9bnsYystjmT8S9E8SeKRa2Nx5jKNxJ4716v+yDbve/theDY40kkZpJyoA7i1m5/Wuz+Mv7FHgfwrri6p4WhtxBcKZ0SF+I+v3SO3+ya5P4e3F58NfiTZ69o0lvHrFrDPa2rTr8kEk8TReYfdQ5I9xR7ZXOPlbifaGqRkeI7ltu35iOO3Wr2lQfZ7XcCWeTIPsKyfCt5D4nuZWsJPtirkEp8xwO/FbVghjUR54J9K7Y1FbQ82VN3HXOpQnxbpOn3H/HwqieL1wSRV7w7pLWmoaxIjbo7gSsuP4nZef0AFct8RZPsnxr8HydA0Xk59chv61o+DvEkmi+INcsmVpBYSyXOSPvK3TH4Ct4mMonB+K7S6X9jK00mTfC0l4ts65wy75WU5/P8ACvSf2i9dk8ZyfDn4X6aWtdL1aRrrUWhO0/ZogXZQR0yqhB6Fwain0/TfiT8LZIw4SJ5kuEAbncr5/nUOprcW/wAcfDureVI0NrpM9uZMfKrNJGfzIXp71MkmVF2PddC+HGn6J4WbUJoUhsrNVit4UAXOOAqj0FeVfF0z3thM8MbNJn91An8Z5wv5ZP0Feqa54ibVPBmnwqx8tTvx6nFcJrNvFMXuGb5o8ovtnr+eP0rncTfm0PBptH1DUvDSQ/ZJpdeuplt7awhUma5mkcJHGoGcliQMe9cj8cv2StQ1fwjHB4u0x4IZpn2BfmVhE7KWVv7jOnBHUL6Gv0k/4Jvfstx+IPEdx8StWt90dq72mgoy9ZfuzXY/3AWiQ/3jIeqA19MfHL9kLw78c/Ckmn3VnFHiHy4yi7dnGBjHTA6VtDDTlG6MZ4mKlyn8mH7Q37L+t/B7UZJ/KafTpGJWSMZCj8O1eVK2UAH/AOuv28/bg/YJ1v4K6vfWepWJ1Dw7eOfIlC/6oZ4B9D09j+lfmX+0x+xvP4Mu5NT0GNprHPzKq/xd+P4T1OOhqoVGvcnuZyivihseD2BVFwf8c17f+zB+1LqnwG1FIZDNdaLI3zwq3zRZ6lQeD349TXiCq9pcmORWjkjO1lYYIPoa1tPuMxrn1rSUU9GYbn6rfs1/8FD9I1C6iXT9QZdwO6CQlWT1JXr/AEr7k/Zu/a60zw3c3N7DaW6nUNsk8kQGZmUcAn9PbJr+eXRbmSG5jmhlkhmhIZJI22sh9Qeor6J+A37aHin4drDp95O17ZLwJc7ZVBIzu4IfH0B9SaKcZQ+EwlTtqj7Z/Zj+F3xz+LH7R3jjwjo73Gh/8LQ1258QeNPFfA8iwaUNDZwgYO4PJOD13B1HRTn9AvCf7S/hX9nDV5Pgv8G9I/tnxdp6NFf3UkbLFHIoG+WaUj5jvbAC5GcjjFeMf8E0/wBtDQfH+k/Z4bi0W+l2LK6kb5OOA3fIz0PIzVb/AIKq3eufBjwnpGufCOx1RvGXiq+/s26/sxQ8i20gZCVGD87yyIFPUfMwxjNejTleJhzan0x+x3+3d4x/aO/aW1DwjbrpN7pnh0vFqtxboxhh8olJHV+pzIPLXnDEE4wDj7YaFZFr4k/4Im/s0XX7M/7OGrafq2m/ZfE1/rEsur3RGftciqojSNurRRphQT1dpDgEmvtEX3kty3uaUkbxkijrfhuO/Rtyj24r5F/bv/YI8N/H/wAGah9utLeK6MZxKwCg+5PYjjn2FfaENyl1Hn16V8b/APBTX4z3dvobeG9Hm8u35F5LGfnklHSMf7K559SMdq4cXLkpufUt7aan4O/Hj4NyfBHx5qGn+ZLc6fbzNDFcMuAxH8J+nI98Vw9lNmRQeFbpX1Z+2B8MNUv/AIMNePa3DvYTfaAPvtKMEDJ9Bkt/wH3r5P8ABN7b3gkaeTi3XIXux6AVz4LEzq0+aaszyJcyvzKx3HgyxF3Pp9sSpFzqVqgHqPNUn9BX69/DnT/7N+G2g2+3aVsoiR9VB/rX5S/CTTBqPxA8LW6qgW4vfMAzk/KjH+eK/XizsBb6fbQr92GJEH4AV0xd5stytS+Zu/CDTv7Q+J2mjGVhR5Dnt0Uf+hGvfPEmn/aLS1h/56ToPyyf6V5H+zxpP2j4hzvjiG2AB/3if8K9zvtMbWPEWmafCGLOxkcj+FQBn+ePxrCtJt2R4WYZi6UeWHxOyXzK/iXwPdeOPDbWFiyxGTA81wSFx7DrXKaB+ylcaH4ksdSv9UW+ksTujQxleeff3r6M0PQY9KtVRVGQKku9GhurhZHX5lGKzlk2FqzVWqryXW55mI4FpYqrHHYht1Va2rsremj+48j1vSbfU7ZobqNcAjcjdGrh/GyaLYyLHdyxQmKM4GcbFPf8cCvTPjF4Je4u7WaGVoYVb95t+8Rkf5+leLfF74Qah4u1mN7WaOGONQDu58wjpn6VSbhU9mduXYirTrywtXeJT0Cx8J6heQ2tv5M8kbB1UHcQeufz5rrfHNvdQeEJotNDC4kURxY4xk+vbiuP8HfBJ/C2v2t1HcIqwoEkUDmT/PWvVIYvMjXO1sAV2RPqYyujyG6XxP4N8OW9va7r+6Zd0jMvU5/kK0PhxqHijWteaTU4Wht1UBV6ZPrXqJso8fdFOjtVRsjH4CtiiJIsr+Fc58Wr4ab4C1KTn5YCB9a6sL8vpXm/7T+qf2Z8MLv5sNLhR696APiuZvtes3Enq5/nWtaxfL9Ky9JQyyM/95s/rW9bQcf54qolSEii5q3Gm76/SmrHhuPrVhI/9mqJGxQYHT86sRJiPGO3FEUe4dM+oqZ02x8c5Hegm58X/wDBVrxf/Z3w9ktUb5mQ5Gfx/wAPzr8k7tPPvpGIb5nz161+jH/BXjxn5kxtY2+UcN6cf/rr86xHl+vHv3rzMRO8z9AyGjy4ZPuRfZz9cUVZ2ZHA6ntRWB73KfUVs7MPmwMHj2p0aEuR0Cgc9OKdZW32iMHrk1b+zokQ3Z6E/Q1J86okayr8oVd2R1xVu0u/LfC5IyMDNU4d2Vx+NWra3PzMfvY4/WgtQLkWZgzLtz9OaliiZNrYJA6+hqhD5g+993gYH1q1b3rJbbcHb06cf54quYfsx0158zD+LofWq11d7Ycev+f8KjmZoxuYbeevf2qtPLuk64HXpVI5asSG7LMmB/Djr2+tU4oP34zjgdasXAbYeQq98Cqscnzg8LjitDzKkTqLC02aWxXhgM14D8VDIniBlfkAk498mvaNL1Z4z5eThvvZryv4zWix6grL97PzA1dzmPOL1en61SdMjPp3q/dH5vx/OqXzfNWoFeQAN9acId0LNt+9RMmD/L1qxYRiaL/ZxigCiFwdpz/9alVWcdPenSnDfzGKbGcH+vrQAsXI9lOeap6ZJnU7wf3gKvDl8Y6dTmqOnR/6feN7jjHvQButH5tqqgds12Hhi0kl8OWCL/DGRg9vmNcjp6t9k7dgMV7L8IPCUmu6JpqLG0nmKAgA5c5PT1/CuHFYqNGPPN6HoYXCyrS5YmXYfBrxBq/hC/1630+aTSbBitxOCoEf3c988bl/MV9H/wDBKPxroHwK+IPiXxd4mvoNL0mPTTpgnmbapklljKqPc7T+Ar7R+FP/AASf+KXjv/gmLqWm6L4eabV/FUg1CNLueKzb7KjiSOOIPgne4Dlm2qwwA22vzn+MHw11T4V/so63a6pa3FjqVv4vSwuLaeMpJbvAjBkZTyGDBgQeQQa8eWd0Kk40VJc0rNLq0+q7rzPSo5fKDlNa8u+2j8+wn/BR/wDauvPE3xMutQ8IapcLoVnaoiyRNhZZmYljnuMFQPfNfL37P3xDvJ/i3/aU9xm6vmJmndssc9efU19paf8Aso2/xa/ZLtb6G1YyavYMwcL/AMtUBOPzx0r89fCSvp2ozLyskRKEZwQQcV6WHrQqRaj0OHFQnGacup92eA/ivf8AhTV54g0l/b3WA1uzkr9V9G967i20C1+Jr+ZpQXzhC88yk48tY1LuWx6KDz3OOuRXA/sHeD7z4valb2McTXF0iGNnIztBGM/kfzNffXgz/gnNrXwQ8P8A/CYPc+VprNFb3MDD/WKWEmAfTcig9iMj2r4fMuMMrweZU8sxFVRq1GlGL3beisfQUcnrywn1u3u2OO/4J3fGDTv2VPixJL4y06SXTbqBrc5GWsyTy4H04Irqv21/2y/h/cfFaybwFa+bpIt991cRQeWGkJJZscZ4xXNeMvh5H4nE00sf76TLEjrk814x4w+FUlhNKJF3JgDPfrX1VN2dzw6kbnf+N/2gvDvjLX/Cd7b30fmJdQxYBzglgDx1H4+1ekQ3Kx/tDyIjK1rqmlAgL90kcZ/KvjHxN8LlZi0e4PHh9wP8XbH0/pW5oHxy8TeFfFWlaheyNcrpuVbAAaVD6+447c16dOqcE6Z75oep3Xhv4R640bnzvD2py7lz95PM4/Q5/Cu9tfiFFf2+j2syqsk0XnI4/jBAr5s8I/tT6Xq+peKtMv4ZLOHXYzOHlUjc+0Db6Z74HvXV6d8RNO1/wX4L1SxvI3k02UW04V+VXbgj8Djj6VrzIy9mz68i1Hd4Vs9vzbRj3rifhrbXXxO+KsPhmCby5tY1NoEkYZW3j3HdIR3CRqzH12mtPwp4gj1LwDG275o24Geelc38Ff2jvD/wy+NWnTahF9nuluHt1kP3W39WB9xuUj39DRG19Ryvy6H60fDTTNP8F+GdO0nToRb6fp9vHbW0eeUjQYXJ7k9SepJJ7132k3quq18//Dv4xWPirTILm2uI5Y5FBBU16V4c8XrNs+avVjtoeRK99Tc+MPwX0X4y+GJrDUrWGbzEKhmXPUV+UP7bf/BO26+FGrXlxZWf2jSZmJZDHvVV7Z9vf2r9dtH11ZUwWrP+IvgDT/iDok1rfQxzRyIVyRkrn0rKtRjUXmaU6zgz+Wn9qL9hRLyObVdBjMdxHl5owDuXp/30vfPUfnXyXrXhu/8AB+pNa31vJBJn+IcN9K/oa/ba/YGvfh7qlzq2i2zXGnyEu0aDOwdSV/wr88/2g/2WdL+JkdyslrHbagoJ8wJtyw9fQ+/WvO5pU3yzOzlU1zRPz60zU/JkX73btXZ+GNUjkdd3c1X+Mf7PuufB7U2W5t5GtWJ2OOcD/OOR61z+hakYpFDHqenpXTGSexzyVj3r4N/GbXPgx45tdc8P3UkF1ARuj3fu51/usB1+vUV+13/BPH9uHwz+0/4d0mW+Fq+r6bIjGKbBktplHH4jqD+Nfgn4Y1BTJu3cY/OvS/gX8Zdc+CHxBtPEGg3jQ3ETjzYtxEdymc7GH8j2NdNOVjnlG5/VN4L8Uw3NuvlsOeQPWuiu7xZLfduFfnt/wTx/4KI6R8fvC1nm68rUI8RTwyN88T45U/zz0NfWXxK+POm/C34dXGu3snmRwqFhiB+a4lb7iD6nr6AE9q3lJWuTG97Gf+1J+0LcfDrR00fSp/L1XUIySyH57WLpv9mPIH59q+SdXsLrxvercXzs9rBnYrHqScmoYvG+ofFLxZcalqU/nXGoS+dcP0Cjsq+gAwAOwFdpcJFJaKsagIowAO1eXWfO7s9KnHlR5R8SfAtr4h0ua3mgjmgkTYyFeCvpX5Zftm/s33nwC+ITahaxltDv5d6sF4jPp+Hf39iK/XjxJZMbdgv8QPJrxf46/BXT/i54IutK1KJG85Tsfbnym5G7/Ef/AFq59Yu6OfFUeeN1ufA/7EmpHxl+0h4TsWZmW1Pm9chVMkaf+zGv2MEgc/yr8oP2MfgLq3wX/bda2v4ZfsdnGgglYfLyzuFz9EBB7iv070LxILhx83/1q1o1FJtnj1lamke9/svWam/1e5xwpSPp6Ln+tfQPw70tH1hrogFo4cA/7x/+tXhv7KsYk8LXs+R/pFwwB+nH9K9r+FviOGTWtQs5JFSSMRgKTgngmtKNva6nzUeRZjTVXvp620O/BwlGcihZMr61Hd3kdrEXkYKq8kmu8+7lJJXbPI/2pfF1z4eg0uG0m2zXE6jyQuXnHJIH0AySO1eZ6T4h1DUtNuryadnvFjOLcL8kZ7CvTviP4v07xFrq7LeSf7Cf9Z5X3T6A+9cjc63GkrNDpk3zdcIBmvKknLEOaeh+b4GnOrnFfFRnzQdkuysjxvxPq/iu71KNdGa6kV5B9okcHgc7tv6V7b4MSRdCt/O3CQoN2485rOXUrsE+Vpe36mpIr7WXPy2sUan3rvifbU9jpM8f/WpobFYOzWpv4oY/wzTf7J1aVubpV+grQ2N95Qp968N/bT1tbbwXBAG/1rE8V6n/AMIvfvnzL+Tt04r5y/bMtG07ULWA3UkhCjIJz1zQNbnjGh2/yLW9HHiOs/RLfCr9PyrYjgwPaqiKTCOPPrUwTB/ip0cPy9veplizVGYQruUcDFN1EeRZSM3CqCfpVmKNcCsrx9efYPDF5KPlKxEg/hQVHVn5Lf8ABU3xd/a/xJmt8oyrIT1yRzj8uP518hyRZPTqRXuf7dHiUa78XrzG1isjZx2rxIKUYH5uvORXjVHeTZ+q5bR5cPGPkCQFV5+h9qKspHlenf060VB6agfTloi2w2rtHp7VNEfNf5vmUjH096fFai4kyoI549DV+20rc/zY7YyOlK58/Gk2yOO02x5Xr6e1TWloZIsNlf8AOKmlhaNjt3Mf1qS1ty7c/d6j+tLmOqGHKc1nsP3V29c471BMpQbemOMY61uLZjazbd3GR2rLvLbyz0+bqP600xzoWKE5aPj73fFZd2zKxG7lemK0rhJHJ+VhnoaqtEkZ+b6dK0ieXXgVHZlPzd8ke9VrxlhTd8wPappTljuYHjgVTuWLhflOMjHFaJnkVojU1nyI/uj8O1ee/E+5kvZ/MKnrjnvXbLEZJf7wLfnWV8W9NWDwz5iryzDPH+f84qlucckeRXL/ADfT2zVYEgn5aszHcx/lVd1z9a1iSV51x37/AI06yuPs77gfwPeiQbXzzUJb0PA71QCXB3Slsdf0pu4L83IPU0qen601x849BQBKBjj8eBVLSLgJd3XHO6rYk+X8MfWqGj/NeXnPGQfwz6UAdRpZWOAk9fWvv7/gk74R8N+NP2jvhrpGvNCNN1C7tIJElICkMy5BPqRlQfUivz1hv9lmy7vlUZ617B8OvinP4Q0+wlt5pbe4ggjZJEfY0bDBBBHII9RXzPEmBq4vCSoUt2fSZDioUK3PN2Vj+wzUdQs9A0Ka6mkhtrG1hLs5IWONFHr0AAr+Yn/gpf8AGjT/AIxR+KrvQ45Lyy1jx1ealD5CbjLExkVGxjIyoB/GuE+Kv/BWv45fEX4eTeE7/wCI/iObRLiPyZoRMqPcIeCskigSOpGQQzEHPOa6/wD4JqabB418C/EO61KCO+/suK0W2Ew3iNpJG3kDpkhQM18/LA47F4unjsbTjTdJNRjGTl8Vrttxjb4VZW011d9O7L40MNTqUIT53Utra1rfPzPfde8W2n7OH/BPj4K6clvHJqniK5u55s5BjhXjGffzUx9K/G/yjqPxJ1WSNdsMmoTtgDHymRjX6f8A7WF/qXxAn+HejwQkwaGZk2xjbHDG8keBx04Svgv4QfDG38XePfF95fuUstNvbhAqA/vZPNYKvsO5Pt712cLYOrg8PONeV5OUpX9ZyaXyTSJz6cKtWHs+yX3JH31/wR006Hwr4gOoeUsiTIqMxPT3/U1+p37WnxJh1b4F6PZW8flrf3f70f3VjjbgfUsPyr8c/wBlL4wn4Po9nbqywbSy+oP+ea+ufB/7WGofHbWBpNzKjWfh2zZ4towZWldAWb/v3gexr8QzjgHF47j7C51Nfu6cnJv0i+X/AMmsfXVsVhp5HGCfvR6eu519/pSXJt412q1xKIx+RP8ASsN/hKPEPiBrSRlWMAySyHhUUA81ev8AxB9kktZFPMbM2PQ4xWX428azaN4G8Qal5nlyfZggYdgWFf0PRpyukfndaUbMw9Z+EvhO6uprexha+uIcBip3Y61xfjL4B2cum/6LZxrKGwVYfw+ldpaeNZPhR8MfDej6fbx3XivxdIu6WTGU3csT7D5j9Frc8XHTvhzJp2m6jqE2qeIL8f8AHtENz7sZ5A4GB1r0OVI4ea58t+M/gxEqyWV1ZwLtHOODn6+tfPfxY+F3iz4Q2Ooah4d1S4/s1XE7QKSwjbOd2M56nqK/RjXfB7X1s5vrRYGkX5S+CRXmPjb4TrYwyMrQ3ENxlWUr8rA9jRGpyhy3PAv2Vf8AgqnY+HrRdC8cRvZsF2i4IOwt6H071nftGfty+BV02S70u5XXNQnmfybe3OQmB95m6KMkYzycHjiuP/ap/Yy/tjzdY8Px+XJDGTNAo3FmyeR7dsdf6fG2o2k+nXbwzRtG8ZwQwxXTTjGWqOepOUdGfoJ/wTz/AOC2niL4H/EGKy8eTteeH7yQIt2mSbEHAw69077hyPcdP3G+A/7Yfhb4p+FLXV9N1izls7hFdZBKCrAjPBzzX8mCPmu7+G37RHij4c6fDpNr4g1638P+cJZ7C1vWhRxnJAx0BxyOh/GuuMnE46kE9z+xH4ffEax8VaTFeafeRXdtJ92SNsqfxr0LR9Z+0xDc2VxX4S/8EWP+Cr/gH4Lfsl3Oh+MvFi215o95d30wvp/mt7dm/dxx552KoGAOhJGMYA/ZD4EfGXRviz4WtNS0e+t7y3uIxIrRSB1YHuCOoPrW8ZpnPKm0z0Dxd4YtfEenyQzxLNHIMFWGa+D/ANs//gnt5stxrnhmAI33pYlHD+3196+9oNS2L83K96bf6dBrNsykKysMFSOopVKcZ6SKhJxeh+A/xX+DUGrre6XrGn8qpjYSL88R7kfXH4j2r4b/AGi/2Vrz4X6lJqGmRvNpjNlcD7v19D/kV/RB+2p+wfa/EOyutV0WIW+oRqW2qv3iP5jr/nmvzd+LXwnutBe60rWbHy5ASjxyL8rD1FebOMqT8jo0mj8s9N1prb5W3Kynp3Fdh4R8RLMyxs3XpXpf7R/7HssE1zq2gq20Au8I5I+nqP8APvXz5Y3dxomoeTcLJHMh+ZW4IIrenUUldGE423PpL4K/GzWvgb42tdc0O6aOaN182IE7blAeVP8AQ9q+/PHf7d11+0dofhv7PdmPTNLjU+UTtaW4bh3YeoHygf73941+VfhzxK1ym1m7g9a9G8HfEibwnd28lvI/lKyysgPylhn8O9ayvJaERdpXP1w+Hvi2K3sIwsgLMAWPrXomjeKVljC7uvavin4B/HiLxfoMFxFNuJUbgD0P0r3bwz8QNyRnfn8elZcp1xkez3s63Ktz1Fctq9nlmyOn60zRPGEd0q/Nz71dvJ1uI8+tYTRrueanwdat4xS+kjVLpQdrgYZ+CACfbJx9SK6zQ9TfTbnZJ8vcf41H4k0XzYN6cOvIPvWPLqLT2mW+WeEbCPeuC86dVNbM+dxlOtDERtrCW/kz7U/ZS1Af8K1sGLf63dIffJJ/rXq9tptvBqy6hHCjzbdpP8WK+bP2WviRbX3gy0so5Ns1kgikToRivoDQ9d8+BefSu+MW3zI8fMsr9rJT6rY7m18dfZ4VXaw+tVdV8V3Gpx7Vj2qepb0rDXVSUPcVFNqTM3B/WujmqPRmLw+LnHklLQmlijhRlCruY5PHU1TeNQfu02S6LHnr/Oo5Jd3vVU6dj0sDg40I8qJBjPb8qaQMVGZ6QS5FdB6kUSqMrQBzmoRNg1JHLuoKsSTEBK+O/wBsTVPt/wASGh3Z8v5fpivr+6nCRFuOlfDHx51b+2vinesTkLI386DQz9Egwi9v61qIgHP5VT0hcxCtJE2cirWxhLcIY8Cpo02sP60RR5HzD8Kmii9fzzTJbsEUZx+lcL+0brP9hfDHUpdxGYyOOM8HvXoUKBVxXgf7e3iL+wvhJdLvVd6nJP5f5/Gpk7K5vhY89WMe7R+Ov7QustrnxN1Cb7/7wgH1Ocf0ri442NavjO6bUPE95N/fkOOOgqpChBX8jXin7HQp2gkAixj2oqZOnP6UUHX7M+qNLSOBfmUf4df8/jVx7oSE7FHzAc4xVeOy8zDfy4rRtLMtFvbd27VmeJRiVo7Uv1/PPetHT7IvtwF6YBPOaWCPzCFC4UH8a2ILZYI92Pmx0pO5304oz57AiLpjd+VZOo2IUnK/NjvwK6fG3O5fl9cVmapEPMJX7o5+lNBVSscnfrsYAqOlZd1GS+W55A4HFdJqFirDG0LjkewrJvISDjg1rE8LExMFrb5sdR0qrcweWq/LgE/5/rWtew+Up/DvWTfH97xyFHPFaxPGrRKvmYlGOfm4FY/xgkx4U5O396p9+9bC8zeoyBnPf61kfGRQvhTb/wBNFwO1aI82Z49Lkt/9fpVeY7KsTNj8arSHaTWy2MyCY7z0+XpzUY5PrUsh3Db96mAYHNAEJztyPWjHH9MUo/L+tIjY/CgAQjyj+HQ1m6SGke8K/wB70rRRvLU5Xv17VQ0eQ+TeL0BcHPrQBekk8i3b/ZA6V1lxqHl2cI/vQocD3UVx964jtGzW4bgyJFnjbEgJ9PlFS4mkZBc3pYflg192f8Ek4Vm+EvxKkZv9Zc6fD9cea1fAN9d7pdq/LzX15/wS/wDi3qltF4i8E6HoN1rGoaoU1WV4vuxRRAr8x7csMH1471x4qP7t2PQwM/3qPqPx/wCHmtoJJY03MoJFfIPwJ+BWseC7DxLFqVuy3N9dtcxDqXBZiT+Z719p6pp/jTULBo5PCdxG5x1fP6ivIfEOk/EXwh4la6Xw3auinIjklHI9+a8uN0rHqV+VyueLaKnk6vMrfu2X5SCMEH0r2j9iy4lt9T8TzNIWJtrZM/3cvIcfpXmOteAfEWo32ta5q1rb6aW3TeWh3c+gOa9G/YnmWbQfE1wefMuLaLr/AHVkJH/jwrKnT/eK5Far+6aPo9dQNzDb/Nyw/rWX8S7c6t8P7qzTLC71GCI8csm45/TJoOpLaCFBtLNGPw5NZ95rXkazpNpJuZb6ZnAz02csfyr1oRR4lSWha8PzNrn7R/2q4C/ZfC2n7VHRVY//AFhJWX8GPHdtb3Hjj4seIh9o8m4kg04SnK7FOMrns0hbOP8AnmKnmuUsPDnizUoWMl5q1q5jC8kliVUAfQk/jXGfE3wyyfDT4f8Aw9tmYDXLhZL8oesa5aVv/QyPrW/LoZxbPTPhvcXXj3wfN8RfHWoHTdJuAZrS1LbESE8oSP7zLhsDoCKbaeII/FaLPp+nzR2MozE0q4Z17HHpiuI+JniFvil8ddH8Fru/4RvwfaLe38KH91NMTtjjIHHLAkj0jI4r6J8O6BZ+DvC8d9dIj3VwNsEWMBFHU/yrlnGx0RZ4b4l+H97q93I0Nlt8zCjjFfMv7Uf/AATzufH1l9s0S0itL21DM6L/AMtOOMcfp79q+0PF3xdstKuFUSK00z7FjQbmJPQADv1/KpLO21TUrWR5LOdgeXIU/L7GpjNxd0XKmpKzPw68f/D7VPhp4gm03VLZra4hJBBHXBrnJXwa+8v+CtHgvSo/Duk6wqLHqw1D7C2BjzV2MxJGOcbMZ9xnPFfCEsfzN39K9KnPmjc8ypHldmFvKYz6H1r7d/4I+/8ABWXxP+wn8c9E0vWtaurj4a6lKtneWs7GRdKDN8s0WT8qBj8yjjaSQMjn4dClDTt2Mf5xW0TI/s2+EP7SHh34yaPDdaNqlreCWJZf3cgYEEZyCOtdxZeIzaSjDdT61/M5/wAEEf25PDf7IfxM8bTeJ9Wu7WPUtKD20Ek5FsVgDyy7VPy+cwVAD12oQM54/bL/AIJ7/t02v7bP7Nuk+P47K40pbyWW2ktrgYaOWJtkgB6MofcobvtJ46VtF3MpRtqj7QYw6xa7uM4r56/ax/Yo0X43aJcSrALfUlQlHjGDu5xj/OK9N8M+NNgQs3Bx3612lrcxatbqeMkCqlFSVmTGTTuj8Lvjh8Hta+DPiefTtXtJFVXKRylPllA/zz+NfK/7Tf7Jdv490+XWvDcSw6hEpeSFQPnx6Dt9K/oq/aX/AGO9D+O/h+aK5tYvtUkbBZSnQkdfY89a/K39o/8AY68S/sueI5JJraa60rccSKhOxf8Aa9vevDxWHq0ffpjxFRyp3jufjf8AabvwxqklvdRvb3ELbXRxjFdX4c8V+bbjcxwp65r6m/ay/ZCs/jBpL+IfDqpBq0KkyxKuPN4yRiviqa1vfButTWOoQy2t1bth0YbTmtMDjoV1ZaSW6ODDYuNbTaS3R9N/s9/GZvAniGOJpG+x3jDJz9w/T0r7a8BfEOPULWGRZAyOAw5x+NflbovifzYlTcRnpz0r6U/Zw/aBaG3TT7ydmaLGHY5z6V3SZ6EJH6G+HPEm9FkV8rwcZruND8TCZVWRuccV83/C74jx30Kr5ob057V6toeseYFZW/Ed6wkdUWenyXq3kJXrXKeIrYwyNKn0OONwp2la1tO1m9+tWtRlSS3Kjb81c8ohOmpLUrfD34h3PgbxFHeW7nCsBIgP31r7N+FXxMg8V6Nb3UMissigkZ6GvgS9mbS9R+X5lY5GK9L+Bnxck8C61GrSMbG4YBlz9w+tbUZdDjq0FbQ+8LXVPOj61L9rriPCXi2PVrCOSORXjkUEEHtXRQ3u9c/0rtRy+ztoan2jHej7Vkdaz2uM0C4Dd60BQL7y4Pru7U3zSze1UjPkfl+NKtypoK5S6JealjlH4VnCX3qaG4z3NBRH4r1P7DoN3NyPLiZv0r4M8Q6j/a3ji8lb+KQ/zr7O+Mutf2b8PNTlzj90QK+HdMn+2axLLn77k/rQM7PTBiIfh1rRjOW+lZ2mthFHpV5CR+daGEi1Gvf2qzCmcVWjkLKfzwKtxSYQYquUzkShNsXvXxr/AMFUfFf9l+AXtw2NyHn04/8Ar/rX2Y37uBv7vSvzd/4K5eL/AN5Ja+ZujYbSFPf/ADxXPidKZ62Q0faYyC8z867tmubt5Cv3nJ/WpIIc4we+aWJP6dulTCEsF2gewrx5H7FTgMVPNlz8u3jmirdvEEGev1FFLU6FTPrG1t44Rlssc5we1XoZgR90+3tVGyt95+ZunYcVrQRKEwvbHQfepHzVKVh1mm59zbRu68dK0JIPNXj8cVVtAegGM9PrWgYP3XXPr7UHXGokiCBFETBuW/KqV/EFTP6DtWg0Soc/KenGaq3MYlThThv1quUzqVtDmtUgCL3z9Ov+f61hXKF3ZuFJOa6TV7fLE5K8jAzjNZckCBMBQzfStInk1pXMG6Xn6DnNY+rWxC8Y5JLY7fhXTS6a3LcAMeCR0rPu9LdwfugfT361R5dU5dSzTpxt5xkdqyvjIhHhDo3+sU5H411suibZoyv3Vx3rm/jYgg8KFeu6Re3StIvU82rE8VbcOKrumBhvr9auSfKDn6Yqrcj/ADitkznIAnpz7+lRM3BqcqQn6dajkQ4+9z3NUBA/J7/j6U1kwf7vv6U5ztpBw3P4UE8wxEBX/E9KzdJHlR3DK2V38Y7VqMvBH481l6RGZUmG7aPM49aaBli+Bht2LY3Y4HXmtjzjHArP/dH51z+sNvjYqzHPANa04/0fy1bJ4602iireSASbh/EcdOtfod/wS2uJPhJ+zJrHiLR5Ft9a8S6qLO7uQgLiCFdyRrnOBuck+ua/O24Tey+ua/RD9gqF3/YqthGu5v7buWOB2CJXHjP4eh6WW61lc9S+If7WWu/DzwnqmvX19dXkOmwtOYhj5yO3oOa+dfCH7XnxU/bWvtVuPBnh+O3g0mMtc7pd5QD34/AVxf7Vn7Weiaj8PNZ0TT/MmnvM2e8jC5zhiPwzis3/AIJn/HvUP2dLDWLi3QXWn64QL2LA3EKTtKnsRk1xqi/Z8z3NsVik6vLB6HXXvwv+L3iKxZtW1SGBZTkxFu2fTGP616j+yr4T1b4X+FdQs9UZJJby7E28d1CADj866298YWvxDshq+my+ZbzHLIB80Z7gjsR6f0qjp9/9pvFjDsvOPxrh9o07mnLeJ6QdUW+aMqy7owAfam3dzv8AHegyM2Y7DTru5Ye5KgcfnW78Pfgk3iZIStwytMRn0FcZ461eLwrr3iKz81PtGn6fJZR7uCCSefzI/Ku6jXjI461FxM7TvEVxB4P8G7irz+Irt0AHGIlV3B/75C/jW/pXiK1u/Hf9oSHzpNBRrDg5EeACU/8AQc//AK6wbNYP+FmeDbFdv2Xw3osl0STkB22RjP8AwEMa4ey8Tz2/wb/taFxBfeLvE+yE9cRy3BTj1ykYb/gR+tdXNoc6iepfs4eBbqbxVqV9eYe/13UWu5m/uxKSI1/AZP8AwKtD9pL9o/7Drw0fT5v3kjLaRsOdozgt9OvT+lanhnWB4I+G2s66vyvDGYoGx/EeMj3Gc1wP/BMv4XN+0t+2t/bWqQ/atF+HdqusMki5in1CaR4rCJvVVKXEzA5BEIBHNT8TsabK59j/ALG3/BOtjJa694mhkbVTEk0iTKd2nBxkRAH/AJbMuCx/gBC8HOfpfXfgpp/hrSZLe1sIVgxhhsG5vqepr1jwdaW+kaLFbx/N/E7n70rnlmPuTzVjWdNW7hPAxVPDoSrNs/LH/gol/wAEz7D9oDw001iGiubPfNAg+6JCOp/IDPbP1r8U/wBoP9nrxD8APGl3pOuWM1u0J+V2TCuM4BB9D61/VP468JCOdmVQVYcivkz9sb9hLwv+0l4burfUNPjF4VKxSgbWQ+x/pWMakqb8gqUlUV1ufzj+Xtb146U1mKDkV9Gftnf8E/fFH7KniSaSSzmutE34iuVQ4HPQ+navncrkkj5q9CE1JXRwyi4uzJNPkYMNvyt7Gvr/APZ1/wCCmvxO+FXwP8P/AAr8M6tZeGdNtr0vJqpUNKkLTtO64b5QCWfJwSwIAx3+QLWILIOvr0rc0s4Hr9e9acwrH9JX/BKX9uS7/ai/ZI0nxl4nWDS7xrq4tnUy5VlhkMXmc8gM6scHOOmT1r7c8D+PI76GNo5VdXAIIPrX8l/w1/aQ8Z2HhbRvh9B4z1Hwx4PGqLczvaOYmhzJvLb1+bCtlguQCx54r9qP2T/+CoGkeH/EWl+FdQ+2Q6PDHDaWeqXjptv2IADbx8u5yeBxk9BkgVvCSejOeUex+ufhnxFHeBI5GX5T371B8U/gzofxZ0GW01K0hmEi4DFQSK8v8IeN49Ts4LiKYMsih0YHqDXoHhv4hsF2zNlRVyt1M9T82v23f+Cc+sfB/WbjxB4UtWm012BktVBO5eSSPQ+3vX5yftg/snWPxl8Ly6xpkQsfEGmglwV27sZyrjrj+tf0tajcaX4w0uS3vI4pYpl2skgyGFfnT/wUm/ZB0HwDp+reLtNmXTre1tnu7gZxuAPCnsck8d8DvXx+dZbUhJYvBu0l0PkeIMnxcpRxeXy5Zxd7d11/4bqfziK02jX8kMwMcsDbHXuCO1dL4U8XyWkyskm1sg5J9DXt37WHwMuPiDZW/iLwxpoVbWI+fbRhd8oJLHGBksB2/Ac9fl+xvvLuP7rK3OR0I9f8K9LL8whiqfMtJLddUz3MszOnjINx0lHSUeqfn+h9nfs1/HOQ38Nncztu4xuPT6V9j/DP4gR38MaM3PGOa/KbwH4yk0e7hnSRtyEHg19g/AL4xfa7O3YSbvlHIbJFdso9T2qcj7hs9S3/AHW7dQa1Ir3z7Pbu+bFeU+B/HyajaR8/N7n2rttF1tXkrnex1RJtUiWW1k4+ZeQfeqWjal8xz93pit2JFvA2APf3rjb2f+ytTeLdj5sjmlGVglA+tv2SfFs9/wCFZEmkaRYZisZJ6KO1e82Gp74xXzJ+ydIbTwDbyE8zOZD+JJr21vFMel2m6Rvp7mu2lK6OOpT1O4GoBf4qVtQ7frXmGl/Edr7XF3OPKkGMemK6WXxpZ2kCySXMKox2hi4wT6fWt0zHlOq+15AFL9vWNSSw45rzcfHrw2z3WNYtGWzXMzB/ljx6msRf2gtN8YM8OlySyx52s5UqvtjNUPlZ61a+Jobm7aJZAWXjrWpBdblrx/wLrElzru4sW3KD+tenWt1iKgVjg/2rfEI034Yzru/1zAAetfJfhkb23f3jxivev21fEHkeHrW3Vsbssf5V4H4UO2Je2aEVbQ7bT5MxqO/vV6OXn/61ZdrNtQcnGKtwS5K5PGB+FbROWSNGGUgduuKu2p3Y7cetZlvLz+NaFo+SPQ9KozaLOqTeTpsjH+FSTivyQ/4KheLG1jx9PBvZtkuBzzjn/A1+rHj3VBpvhe8l3Y8uFiTnpX4vftt+I/7d+Ld18wbaxIJ6jr/jXDjpe6kfWcI4fmxTl2R4tFHuUf1NTwwqq4z+FMt48r82cZq1HBl935V5cj9WpxGwIuOh+tFTRwhsZ9McGipN1A+rJYvLVWye273q5av5icMM9amltYzGqjHzcjI6cc1Jbwx26LgrtXt6daD8/jXJrVPLX096sS3jbcdPakt3EZ3fxfXpTJHDFfu9c/5FVE1+sETq7yd1yKinfy0PyhtvJq3JLsiyw+73qKW1aY7v4eoI/WqMpVzFvbYzSn/aPBPeqE8HlkcDvyf8+9dA1gxBZPugdPwqhfWuMZ79MVUTklO5kSoCOB8vsKjkgDR7do6degBrRSFYT/Du6EDH51Fdxq33Tt7Hj/PFHMcs2c1eWL+aF+8ucZPevP8A46I8Phd933t6/lmvYo7XzZhkcemecV5v+0boDp4ZZ1QbchvwqoS1OOvHS58/xtuDd8H86Zcr8vv61KkLWwLMfvfpUcwJyS3XnArqieeVWX8jzTMYXtT39Op6YJqP+Dk59qoCIryc/ljrTAu0D8+KkZML/eBxmmHk/Nn5aAEA3BumSKxdKP7uX5snzO1bgGUbp9081g6Y4igk7lpOlVECTVgy22T0Y4Fac4kSPA/OszVpciMOW5IH4ZrauJlaQrtwKJGhSjXcevfmvqj4QftH6x8M/hf4W8C6PBbhtXt5bx5WBMhkldlAXtwEH518vRlRNlh8vQCvXtPsZo/iX8OLi3fc32WHCqfuATEAH6ksK561mrM2oylF3ied/tF/D688GWeni+VlkkncYPc9Sa3/AIIeK7fwXoNusy7orhT8v+0eP8a7z/grJYReHvG/he1hG1biKa4bHqCqg/zr568OazNd2VvC2dsP3Tmpj70LszlpOx9W/DP4tT+D/E63VvhrOQDzrcn5XH9D6EV9B6fbL4qsLfWNKbzrefLMV+6pXAbP0Y4/A18U+FriRtI80MyscDj9K+0/2MbC4uP2eWurkq0UmpSwxD+8ANxJP1NeXWpJyuj0qNRqNmeo/D39qi1+F+gNHd2c1xOuQCuO3b19a+dPih8T7zxZ4t1LVhujbUpWkdf7oJ4H0x+ten/EHwKs8DTwJ8u37o6eteK+JdOltGlVl+bOKypx5WaTlzI0/D/xtktby/lu+bi6042Syegwcfnn+Vb9jqFvqSfDXSYZEeHSYZLuRQR99YdiZ9wW3fWvGdbtWjjVvl+7n61U0LxrfeGdZiuI2b9zkLnqoPpn6V1xkzFxR9y/FeT+zv2chbxfemBm6dcAkZ/z2ruf+CKSQeFPg34g1STyxdax4jkLtwG8uGCGOMH2DNMR/vn1rwKH496d8Svg3bxyXMMdxCnlyox+6fcfSsb9jL9q21+BHj688M6hdR/2TqlyZbWTfhQ7NyD/AHeckfjW9OVmTODcbH7Z+DvHiXUCssmVYce9dRP42tLS0aS6uIYYlGWd3CgV8l/Cr40Q6hbxmGVWiwNuDmvzl/4KGftZfEK2vfiVefEnxFeaJo0P/Ev8E+GtMZ4I7l5N4E9y4P70RRlpGUsUZoQNoJUnrUrnLytH7R6b8SvD/wAVLa6OhalZ6ktnK0UjQSCQKynB5HoQR9QaytV8DTamm6OOvlX/AIJb/CrQ/wDgnv8A8E/I/E3ja/j0vVNdtR4m8S3FxIdunqybobULnhooioYAZaVpOvAHsv7JH/BRPwX+1ZpyzaS81iZ5ZFtoryMwyTxo5TeAeoJHUd+OoIGM6d2aRlZGF8fv2cdL+Inhy60zWtOiuredCp3LnqK/Gf8A4KE/8EptW+C2rXmveE7aa70ViXeFQWaH6f57fl/RdqOkQanHtkjRg3XI7V5r8SfgHpnim0mhmgWSGcEOhHBFZxhKDvEmpaS1P5QfsD20rJIrJJGdpDDBB+lXrWFo8bfu1+tn/BRX/gifDqf23xJ4Ij+z3ygymALhZj6HH8/Ye5r8tfGnw/1b4cazcaTrFlNY31uxDxuuM+4Pce4rsjK5yNWMOaQhsLXTad8Ttam8Ir4dbWLyPSTNE+wNuEBRt6so6ja3PBHSuXePy4+eD6U23mKH5T361pFmR/TN+wR+1Fo/xO+EOgR2OpJe/ZbKGBpS+WlKoAWPuTyfevqbRddF0qsGr+X39hn9uXXf2TfHNvIt1cTaDJIDcWwcnys8FlGcfUe1fvV+yB+2Ho/x68G2WoaffQ3K3EasCreta810CR9O+J/iLD4R0ea8uLhLeC3QyPIxwsajkk18JfthfErV/wBqZJ7e4mki8PHaI7YHBnRCSpk9eSWx0GR6Zp/7Xn7UUfxL8b/8Izo95v0XR3KX0kbfLd3AOCoPdUxj0LZ9Aa5Lw54hTULdYmb0C1wYiXNp0OmnRVrs+V/GHh6b4eajdW32bdaSfK0WPlYdiPQ+9fIf7ZHwGs7ZD4p8Pw8SHN9Gg++f7xHZ+ecdRz9f08+MXw6t9e0+RnjG/b8p7ivkn4keEZNAvruzuIvMtbjhl253L6/Uc14VTAKGJWLpaS2faS7P9GfNZjw5T+vRzTDe7UWkrbTj2kutuj3+5W/PPSNXkt7lF9DXtvwE+Ih0jVobV2J84/Lz6c1xn7QfwWk+GfiRrq1Vm0y8YvEwHCn/AA9u1W/2UNI/4Tj466DpbHaLgtGW/u7sLn3xk17vtFKN0etRkpO6Pun4TfEbMqruyuOuele2eHfFSzJG6t970r5LutGvfhB8RLnR74OjQvmNv76Z4Ir2j4feLvOgXDZVjkYPSsZM9KB9FeF9d3ffb5h0Fc78Qoz9oW4T7w4P0rL8J+I8umW/HNdBqoTV7Tpu471nI3jE+hP2fbkW/gXTFXG3yV6euK7XxxqQ/suP5vm8wAV5F+zJ4oN/4LW1kb99YuYiPTH+c12/isXF6E2ZZV4GPU963pTMKlMyPGXiSfSPB+pXVuW86G1leMr94NtO3GPfFfK9tq3xh0bWdP0m9iudS0kQXF8lyM7kcx7Y4299zH16CvtD4b+G01YSSXMayRYCqrjqB3r0G28MWaRqot4cKMD5eldfNfY43HufGngj9mnxfo/wmtLpppNQvPOhuZ7U/KHVfm2+/PrXtngHULyTRYUvtIXS54l+aMEEg9Bkjua9wttLht1Cqqqo6ADpVHWvCkOpR/dVXHIOKpSEzN+GNuz3jSH7qYQfh1/nXo8VxtTqOlcz4Z0iPRbRY1/h/Wtjz8J1puRPKz5u/bS177T4mt7UNny1UY9+teeeFzsVe/FaP7S2vf2x8Tp8HcI3IHtjisnQn8uFffmrgKWx1VvMAuP5dquRT4dfbsKx4J+nParUFxj14/Stkc7RtQT5NaFlMV4HPvWDaT4b+9z69K07WfIBq7ozaOX/AGi/EY0P4bahIT1jKnnt3/SvxR+N2uf298RtQuGbzN0hHC44yf8AP51+sv7e3i3+wfhFdbWx8pJGfvcdM/nX47+JL37Z4gupCclpMkgc5rzMZK8kj7/g6jaMqhGh3rjt9auQttX9OKo23Dc+v51dhXCD5u1cMj9DpllPvenFFNjXLBhn0xnpRUnSk+h9Ytc7Dt/hHPPWiC/DHCr8rdcd6bHGW2lvmzz+FTxWmw/KuPU+9Rc/I/bDo70LKGZucYPt61HLqIeTAbhvbJrO1SYwNgNz/np+tYx1bYT8y5U8DBq0X7Y7ayufMAVm5Y9DWtDb7rUcdPUZrjvDep/aGUSH5c9Se1drYKrwBf4e2O3WtCJVijdKsX3VXpwaxdbjzt65zXVXWngIxHzbRkY71z+tW/lxMW/h45oI9qcrc3RSQMG98+tOaVmT16c+lVbtGS468eg7GrmjsPO2tgnHFBk6hpaVYM7K23ce4HrV74g/DdPE/gW+3fKpjLbtvp7VoaLZLtDLjqDjPetLx7raaT4KvI+nmRFQAOeaiTdyOe58FeIbBtO1KaFv+WLlc9+DWVcrtGfXtXbfEPwzcabO95IrbLh+Cwxg1xdwnybq7oSurnDLRlP756fWkXGwcdsfSnZyOnemOQW46Y5961JGNxz681Efmbp1HcVNn5zz+FRg8/w9OOetADXf90xPYfnXPaf80B46vzmuhuV/0Zm+bGPSsPTo/wDQj/eZjzQA/UAJfLI6KRye9ad6uPvHnvWVO3lPCv8AecVsXNi8rtn19alyRtGNyo0+1/XtgV9afCL9n268b3XgbXIb1IIbWGG3VMfPM6tvxjBwCXA/Ovl648KX2jw2E1zazQw6gnnWzyJtE6Btpdc9RnjPSvvv4W3n/CuvA3gm5lUK1mfPCkZ48uPBx+NcOKrWkoo9LB4bnjJs+aP+CovhLUtQ8WeG76QyTRW+muZZP4EJncAZ/CvBvhJ4Q1DxxcR29mu9tu/2Cjuf896+1/8Agpr8T9J8Y/CW20/RrZRZ6bY2toJSv7y4nLM8rZ6/ecjHoK+Zf2atEvdP0uWaGORVMYjZ8Y69RVKpy07mE8PJ1eXudloPhttB0JYJo1afOWI55r7Z/ZWh8r9lzw+u3b513dSYH+/t/kK+Y/BPw5vvFVwscMMs0jMFAVSxbJ4xX2z8IvhLqHgT4WaDo9/Y3FncW8TTGKZCrbZGLq2D6gg/jXi/2ph5V/Ycy5rXtfWx6s8trQoqpyu3cztYtRGBCy8Mozx0zXC+Pvh7o+maGNS1SbyUmYiKPPLnt7//AKq9U1XS/O1a6jC8Wz7GPpxj+led+PtJXxb8Z/Dek3B3WNlaSXkqfwnnaP1Irti02cPK0jx/W9PtuWh0wxxYwGYdfzrzHxbofm3MssbpGo/hFe1XUFz8cfEOvagsiaT4V8Pu8KlTt8zZwSTn6D0yT6V5ZdJH4luZl0GzkurKGQobph8rFTg/59a1uB5xfSzR7oo2mjyeWB2muO1u4uor7zGmkbBBVi3IIr1PxNpSyylGkVHx91MVxeu6ESnEMjJ3bHFaRkTJM9z/AGM/2/NU+F+tW2m69eSXGnnEccruTsyeA3t/tdsc8dPpn9pv4C6T/wAFDNX+HlxJq0dtovh+5kurpYseZOrqp2k+5jVP9kSORX5j6hpUljNuU+49q9e/Zm/a11z4K6nDCbiWTTQ2WjZvufT29RW0Z2OeSufdn7Teky/theKtK+Af/CRX9nH4IsbfWL2SRvLbV5THtWcHkNy0nyn7rMTjhTXff8Es/Fvgj42fB+813UbO30iD4M6u+nm4glP2eaO2UyJIGPJVlKMw5znBznNfOfiIWH7XU8OveFfE03hrxTNZ/wBnzXVvJ5crwnqmeSOg5HI4r6u/Y9+EngH9hb9j7UNEvbuFtDsI59f8R31yNy3DKitJIw7qkcKIqjqEHGTW0ZXJ2PoG6/4KifDPU9U0zRNJ8QaddeINYlWKzsnuVSSUsxUDHJyWBUAjk8DmvbdK8TXGoz+RcRlWUcsehNflV/wSQ+EKfta/tI+LP2lPEOjQ6bosepyWXgzSmQbIXjAj8/rgmCMLGG6GZp24KCvo39gb9tTxP+2J+1X8Xruzjt1+FPhG4j07Rrsfeu5RlBg9GDiOSfI5USxA5DCnyh0PsnW9Bj1W3YbVbIxyK+HP+Civ/BK7QP2jvDl1f6baJZ69GpeKWMYYt+Hr3HSvs7wR8U9F8az3kel6ja37WU728picMqupKsoPswIPoQa3LuzS+Q/KDupSMZRufyyftA/s8eJP2e/F8+keILGS3MbERz7CElXOBg9j7V548ewdvw7V/Sj+2R+wb4V/ab8J3VnqWnwfapEby5dmMNg9SOfxHSvw4/bl/wCCeXiz9kLxHM81vNeaCz4juFXJhHbdjt/tDiiNXXlluc8o8r1PnVLkwHHqc17h+y3+214w/Zot9QtdBv3jtdShMPJObRm6yJ6NgnHYE5rwdz+9x045qa0uzBNyee1bEn6Pfs5ftGQ+MNJhZ5v9IACkZ5c/59a+k/AHjD7c0Plsd3p71+RXwf8Aipd+BtZjkjkPks2GAPI96++v2aPj3HrWkm48yOSZUVFywzz3/IfrXLUjY7KNS+jPsj7fH4g0RopP9Zt45614x8aPhousadNIqhZIwSM10vgb4grdyRrIw5xXSeKdL/tOxaRRuVl6CsJG7jzKx8DfEzwbb63pFzpOpRq0MmVjc/8ALNu2PT615d+wd4GuNA/bEs7WeMn7Ccg44YAs3/sor6s+PHw580yzQx7W5Jx/WvP/ANl7Rbez+PVpeXG1bry3Ukj7+FwP0J/L61jF8rsup5yw/s53R67+3j4DS78N2fii1jAutNlWO4bu0Z6H88fpXk3wl8fK5iVmb5SF2jvX0l8fbr7T8Idbt/KaZrq38hVAzjcQM/gDn8K+FPBGuXHhbxO1rcq0DRy4Ifqo7V07o6Is+yfDfiErLHhuDjmvSNH1TzY1G4/4V8/+BPEC6jBG6yKwxnI4wK9S8L67gKrMfxOaxludtM9S+CvjRvCvxXSz4W11SPn0Eg/xH/oJr6bsHWdQG5B9e9fE2ram1neW93EcTWriVCvUYOf1/rX1v8M/FkfivwrY30TblmjBP5UU5ahVh1PSdA8u1jUJ8o9MV0VvNx9K43SrwhVwa6CyvSep5rshI4KkTYWbD8nr2qQXGKoLc5FKbjnj9a25jHlLouMMP7uaNS1L7JYSyH+BC35CqQuTv+90rH+IOr/2d4O1GXPSFh17mjmFZnyb8QNU/tfx7dSnDZc9D71oaQ2yJSv41ybXX2zxDcSdf3hJwK6bTZMQrt4HWtqbIkjcjmx3qxDcmsuCb17GrUdxtH8P1rbmMXE1rWfC/jWpbS/LmsC2nxWnDd4h/DIo5iOU+Tf+CovjY6d4K+yh9qsvbvz/APrr8v3mMt07HCmRic/jX3F/wVb8dedqv2NZN23nA/z7n9a+E4Z2Zv8AZ6fQV5mId5n6bwzT5MKn3Na2fO0YxV5V3N8v54rMtWy/v2x3rQgkXHOTn26VzSPsKLLajbx/nNFNhKlRn1496Kk7I7H19awKiqW/XsKsNbAldqj0LdAfwp1tagNgj5WxkHtVy55Rtu3gDkDrU8p+G+0OT8T2ZWNn2txzgCuNuJgsqnr06V3PihnaLG1lb1Pb2xXB6jH5VwzYXPTmtootVDd8OXO+VYx1bqa9B0iLZEpHPTjNeXeHZ8Xo+YfNxnNejeHJzLEOTu2jkgVXKKVQ3AGcbRuX/PasnxBa77cqMncAc1r+a5i/ujHUDmq15b7o9zFumeaOUn2jPM9ZVreRs7T83U9aNHmWOXc3rn09a0PF1v5cp/hPqB/n/IrL0O3WaTczbcEbaXKTzHonhiRZ4x33Y6Va8X6P9s0KbaC3GRx/jWD4V1ZY9sYZW2nHP8NeiaRbx6hZ7W7jkGoki4PU+UPi/oUmq6PJD5eDb5ZcdjXgl9uRyvfOMY7191fFL4YQ6hazFFCSYyGHf+lfGPxL8ON4b8R3Fux/iyDitsO9LEVu6OUcbee/Tk1EeW+978VJOeentUfG/sa6omIkhxn8ifSoSuX49alkJ3EdutQtyeKoLhc5+zSe49Kx7Jdtqvb5vzrYlObRue35Vk2wUWyr97BoKiTWtr9s1i1HbzF4r2f4Gfs7+IP2hfiRpPhfwvo93rms6xcrbWtlbLuedyensMZJYkKqgkkAE145pLeTqtsRj5ZB+ea/dL/g1N8CeE7rxh498XahJaf8JBo1nBY2AlIzCtwzmaQZ6HESIGHZ3GfmwfnOIMyjg6cJTmoKUlHmbslzOybvp5Lu7HuZXRhKFSpNX5Ve3fy/z8jw/wD4Ko/8Ecvix8GPhL4V+ImpaT4fbw74N0O207VYdNvfMm08+acyMmxVMYaRFJRmxySNoLD511T4uWHiLwToyxLIssKMsibeExtUAH/gOfxr90P+DgT9qLw18F/+Cb/jLTbq/s5NW8aRrommW6uGaZ5CPMIA/uRb2J7fLnqM/jJ8AfCGlzfCDQrkWNq0tzAZ3kMYZmZmJJz/AJ6Vw8MU55jja9KnWVSnTaSkrPeKbjdaNpu11ts9U2eFxdxlDIcrhi6lL3qkmklpt1118jya8vYNfZEk0ya+jU7lQxlhn1x7U3RNLvre7Wzt9DktYJWz/qyo569a+i7jToY3KrGq4GAQoGKxtSsVx91R+HWv0X/VuPLZyPxmp45YqUrwoRS9WfVP/BM34A6HpHiLS9X1qG2kVpFUCQAqM9WP8vpXtP7XfiXTfF37QOttZmNobFYbLchyMpGoYD6EkfhXx/8AAn48XHhSy/s2SbaV/wBS5OBx0BrvPCvxCttZimkW4+1XHms1y+7J8xiWwT64IP41/MdHgLMst4yxOZ4ublGUOWHazknp92x/UOT8YZbn+T0MbhJapcso/wAr638/0Mye8il17WMH71259sbj/hXmXiYrZ/EDWNW422+iBR/sjc7H89g/IV2B1Hztcvtu3PnOxwepJNcP4l1WK8svE1nuZZIrYQs56kupCgew3N+Jr9mpnhS2PE/iFqF3pP7L/h/RLGRorzxZeRK7jqTNIWHHU48wfl9Kk+MevR+CdK8LfDLwXDGuratCiyzZ5hTaSSx68D5j6kjrmtL4g6Gp8SfD/TIcyw6S8sjHGB+6iCqfxbbj/wDVXJ/DXUkm/ai8aeKrtRLb+GbYQQlhlRgEtz9Il/M10RIasR/E7wFo/wADoLHSpGm1fxRfIu2AfM/TJZ/TPXjpj6muJuvDWqSxsk9qqSS/MFQfKntXof7MGhzfGPxFrHjbVc3Wq+IrySG0EgyLe3VscA92bP4Kte4fFfw1pPw80BbWGFZr7biWRuxP8I/rU8zTsUopo+M5/hPcXDNJP+7U9mHJrA1/4dCxtmaOQGT0FemfETxpNby3CW8eZEGC2eFP+f5V5n4KvdW8efENdHhRpjKkjHjdsCgsSfYCtoz01MKkUtEc74P+JWtfCzXftOnXktvNG4JTcdrY7EV9b+Cf2zbH9qf4Qal8OfEl42l3GtQpBIGbAuArBwAe+WVc/wCBr5e+N/wN8QfDDWXm1CzlFvdHfFIV4Pt+Fedxs0UyshZGQ7gQfmB9R3rojJNXRySunqfsx8QPi9p/7HH/AATO1qw8HyJFH4Y8LHTNMljOG+0TAQic/wC2ZZWlY92J9a+XP2N/jP4w8S/s/wDhf9nn4ISGx8QeJI317x54oQbRo63B2eQrDlXjgWBCwIbcu1cMWKeLfBL9r5rvwrJ4N8dSTX+g3wVPPZvubeV3/QgHP5+tfV3wxh8K/swfsKfEa4+H6xTa5rGl3cz3cS7pp5pUMMWD/dj3jaOxDHua2jLuG+x3X/BDvQjpHxH+K3iey8Q3rfCzwvcNpWmteTjytQu/vy3zZ4VjCFkOCAfto67Rj7y/ZX/ba8EftbQ6xN4N1KPVLHRbk20twoKqSOhwwB+YcjsRyMjBr8bf2TtW8X/tefDXwf8As3+BGuNB8G6bu1bx5rKgr58s8xkMZI6pGuyFUP8ArHiyfkT5vuzxj+yP4++E03g/wn8F9c0/wZ4K0ePzNRZreOe51OTB3PKzcmRmIH4A9sVUgUUz9Ar4x3q4GMtXmfxw+AOifGfwvcaVrVlFdW9wjICyBmTIIOM/yrwv/glr+29eftT33jvwzqflz6t8Ob4afc3cLbob5S8iJOh9HMUnHbacEjFfYFxCs0WMc46Vy1F0YToqSsz8B/8Agov/AMEhvEH7PusX2veE7OTUtAkkaT7NEMtCpOfl/Xj8vSvhSWB7a5KMrRsp2kEYYe1f1b+MfBtj4lsJrS+t47q2mXa8brkHNfl3/wAFK/8Agi7D4jW+8W+AY47W9U75IVXbHIech1UdfRx+OciuVZh7B8tb4e/b1Pn8ZiXgpXr/AAd+3r/mfknDdGF+/rxXrX7OPxhm8E+IVjkl228xA+Y/drzPxl4P1PwH4jutK1azlsL+zYpJFKuMH29R6HuKr2N40GGDYYdMe1eqpKcbrVM7qNRSSnB3R+n3ww+J0erwW7xzLubGBnrXvng/xs7WIhb95E4wc9RX5h/s9fHKXTpYLW4m2mPgbu9fdXwu8cx63pUEyycSqD9TXFUi4s9ajJSR2fxM8Ox38EhTDLIMEEetfK3xG0+8+HfjRb61ZoXjYSI4HIPP5g819dRyf2jZbWPOOuOtePftCeAV1PSpJFjDPGNy+1c7HUpXV0bug/H/AEzWfAWl6jcMm66lFvIv9x8ZPHtj8a+bf2xbOztviXb61psLR2uqRDe4XarSjII+uMH8ap+A/FUngLx9Ha3O37K0vmATHbGjYwT9cD8wK9i+IfgXU/jV8C9UmurWK1ntwbnT0Ay2xRkZ9264HYCuinK5yqPKzzH4IePS6LbszblOQMV734X1zzPLbt0NfF/ws8StYazHuZlZW2kf3SD/AEr6e8BeI1vYI23cHrnucVNSNjro6ns0c32mDLEE45r279jnxc0uiXmjyN89lKXQf7Lc/pyK+fPDWppMFVm49/61337Pnio6B8ZreDdtj1CNoiM9SOR/Ws4vU6JRvE+xNOvNuK3tLvS61x9jd4Iz69+1bmnXmWwprqjI4akTphdbR2py3asvvWZFcZXkk08T4H3vrWnMc7iaIuNzZrhvj/r/ANg+H91820ykCusS5wp+teOftW680Ph2OFeA+eD37Uc2pPKeFaLL5t0zNnczHPauqtJgi+vT865DQmxt+auitp8r1P4V0wloZTRt28+1cdfxqxHdeYeev86yYpuPSrUVxmT154rVSMmjXt7jDbe9Xbm+8jT2LdNpJ9qybWceZ7/SqvjzWRpPhC+uCT+7hLfXiq5iVHU/MX/go34wbXPiXcQ+Z8qyHgd+f8f6183Wb5PX9a9B/au8RLrfxPvHWTeoc5Oc87jXnFoCwzk15tTV3P1TK48lCMfJGvan8eK0rZtvX071k2jsy7fbpWpbkce56DmsZH0VHYtxvvOTn/CiiFsBuporNndHY+1YHR09eODipBaAqzYyvqRVfTWyin3+nNWBcMzFemeOK0R+AqRzuuWbSN/Ft6da4PWrR2ujnI5zgd69O1Zd8ZyPpx1ri/EGmP8AaGbr1PStImkZHP6UGilUDqeM+tel+DW3xorfNxg89681+0i1ulB5bPPPQV23gnUlSVV3cj0HOeKuwOR38VuGgDH6nFV7qBmVtuf6CiG6O1fm3MMduadPcM8bc5xxjOcf5/rSDmOP8W2KCNmZfl5xiuF1W/e0VkRtq/SvRPEyebC2M/MM/h7V5d4gVvtXCr1z0ppXJ5jW8Ma40c6/Md5OM+leqaD4jkitFC/Q4PFeJaSuJ1+9z+tei+GNQ/cqpLKWx+VKUUHM1sdTqmryXqbW/iGMV8x/tSeDPIuhfRr32kgdQa+kGmDJ8o2jg8CvP/jZ4fGveHLqPafu5/3aqnow5n1Pjmc4b/69V3KluPb86u63YNYXjxyDBRsGs+VsZ+97YroiEhXfAz+P4VX8zzD1PrnHWpJWAj5P41Xabb0GPrVEoluZdlpLj0PFYkU/+joP4mNalxKv2R9x7dfX/PFZfC2asMfMTzQaDobpob6356OOh61658Fv2p/Gf7PWujVvBviLUvDuo7djTWkuwupPRh0I6cEGvFzOf7VhXleavXMrFe/XiuPHZfh8ZTdHEwU4PRpq6a809Gd2FxlXDy56Ts+6PWv2g/2ufH37UOu2+peOPFWseJr61i8i2a8m3rbJnO2NeFQE8nA5PJzX0f8AC/8AaW8L+B/hboFjdagv2i3tEjkRUPykdQeOK+CzftGV6sQcj2qzeeLbmSGNN20gVtk+Ho5bBUcFCMIpWSSSS9EtEfN8XZLTz+EIY2b91303Z9xeJP24vD9mpNrHcXEjcYI2j69a848Vft53bJItjp9vGB91nYn17cV8rnWLh2/1jdulMuLpgPvE17EsyrvqfJYXw1ySlvBy9Wz23Xv20fEWoIqxzR27ZyWjG0/geor0n9kn9unUdK1oaNqCma3uJDI8gHzlmIBY/kK+O5ZPmye/vXoX7Mlt9o+I0P8AsbcZ7fOK4K1FYlpVdT6KOHoZLhJ1cDFRsr2XX1P1C0HxJDqt01xDIrRzLuyD61x/jvUzZWPjq4VdzJ9nVRnqcIK5nw9rMmjbdrHbwMZ6gcVa8Yat/angnWlhU/atQkib/vkqP6Vy4rKZ0PeWqI4e48wmZWpVPcqdns/RmP4t1yTTfG1rZ7VaU2P2kN7b8Y/SvPNUH9jfC3xhNp2Z73XjJMGU/fZ2VdoPoAB+ZrsfGE6f8Ldu52P7u08PhF9Ml2PX8P1rz7w7qbaV4A8Fwsu6TWJDvJH3VCtJ/LH+ennbH30ZXR7v+xz4V/4RjT7G3OPK0WyRG9DIqgHH1bmnftM+LZNOtI13A3F7KVQ91RQDI35lR/wP2rsP2fNKFp8Oprnbg3Uu0ZzyBzXgf7RmtzXv7Rt3p8kha1s9Pt9ifwpnc5/Es35AVNrs0OD8cLGNMZuOmT7mvtr/AIJB/wDBNoeIfB118RvEVqyz68gSxgkX/V2YYMGx6zOFb2jjX+/Xkf7F37H037UHj2K71K3ZfCOlTAyl1+S/kB5jHqgx83qfl9cfsl8M9NtvCnh+1sbOFIbeBFRUUbQBjHA7fTtTUb6MUtD5D/af/Y90vxtoc1le2EbLGmFJTdj0565r8sf2mP2HtU+FGvzzWsLTWgbd04Qf1+tf0JeOPCNv4nsW+Vd2OuK+Wv2g/wBny31+zkhntlLchW2560+WVPWJz1KakfgxqsZ0G+W3mVlZuOa9B+Cf7R2r/By6+ybmvtBuD/pFm5yuP9nPT/63avoX9qz9h+G/1W4ubGMW9xGd20L970AHb/61fKviPwLf+GL8291bSRvH8p3CuinWjNabnI4uLPv74K/tJaf8Mv2dtcvvg/pOnTeJNSuPtDpKNoaQ4BeQD5jsQbVUY7Hua5X4EfED4/8A7Z8lzp+qfEe38JyzTeRJDYJFG6xH77clpFbA4wQcsOO9fF/gf4jax8LfEEV7pNxJBIjDfHu+SUe4/rX2J+yl8ZvBnxY+JGh61dySaD4m06VJriOFvKF9t5wcYDIWC5/kK15rI0pyu7H6af8ABPT9j7wr+xH8LbjQ/D+6e+1i4W81W/lP728lVdqD/cQZCj1ZjjLGvpKK6V+d3avl/wAB/HNZxGAxfcM7gcg1614T+JkOpxIJJPmBA69a5pVLnZ7M77UoVljr5i/au/a3b4Ta1D4d0Wzi1bW5XH2qFj8ltEVzl+Oc5HH1r1P46ftB2nwq8GNcxtHcareHybC3znfIeNxH91ep/L3r44v7RtRv77UrpmuNS1OXzrm4c5eVj7+g7CuHEQjUjysipgadeDhWV12PlD9vP9mxfjxo83iezjW31q0DzSwxjcCWO5sDqV9uoxn2r899U0e60LU5LS6jMc0LlWGOn0r9pG8Ki4tn4wx6Eda+P/22/wBjWHXLSbXtFt1gvoRvmiRMK4HUj+o/H6bZao4en7FfD08jyqOS08HS9nhvhXTsfEWiarNpWoRPGzfKQW96+0f2T/jRHqHhxLeSTMsJ2/M3T0/OvivUbGTSb+SGZTFJExRlIxzXWfBr4gTeEPEEfzN5chwVzwa9KpHmRdGfJI/UzwX4uWW2XLn5sfQVL4wiTVLRh2YenavH/gf4+PiDRY28wsY1B3EdPavVba8W6sz/ADNebsevHVXPmD9o3wa2j6kt9CNqj51YDoa93/Y98fL8QfhszTSedcW7mGZWb5v8449cCuf+OfhRda8KXC7dzRjcq4ryP9jj4gSfDP46vol0/l2OuAxIjHCiUfd/EjIrSm9TixFOzueX/GDw7J8K/jn4h0lFZY7e6LxnsUb5h/M1658G/Fn2uNFZj93HHSs7/gpb4LOh/EvS/EcSny9Vt/Jkb0kj4A/75xXHfA/xF5tuoLfMCASp5/z0reeqHQlqfVnhnXdzKu7uDj0FdRouutpnirTdSX5fsdxHIT/sg8/pmvIfA2rSXEzbmG1cAH1rvre48626feHT0rkPQjqfoFoeoLqGnW8ykbZEVhj3FbFhIYnUr16Z9a8t/Zl8R/8ACU/CLTJNzPJbp9nck55XivTLc7R/9euiMtLnDONtDoLa6yv481I8+S30456VnWU2B6mrHnKyZ3fSr5jFxLn2pY05avAP2sNc86+t7fd91eles+ILyZHCxthepJr5y+PGtvqvi107qcdfSnGXvEyjpcwdGl2p6fhW5bXA6HHX8q57TW2x9fxrTilww57da64yOWSNmC4+fr8vrVqG4+b8sVk28vy1btpc4br2q+YzNqwn5GOp9a4v9pXxL/wjnwo1KUvs3JtHtmurtJfTp9K8I/4KA+NB4f8AhPLGWwZwVA/vHn/9f4U+bQ0w1PmqqPmfmF8T9U/tHxneNu+XzDx1x+NZVo+4L93C8mq+qzfadUmkb+Js9OtS6e3zY42+grjlsfp+G0SRr2rbSuP4q0rYiRQKzLQkbf0rTt32nHHPSspHt0C9Ed44529TRTY2x7cfnRWUj0I7H2fZ3G6PIJ2nrk9aswBiN2SVz26/596ztPSTYv3lJHT6Vq2ttcSOF2tjjgAnFaxP59KWqgHON3SuL8aar/Z0DKv3iO3SvST4WuLuJj5b7m9f8/yrmfEXwqvNTk24jTecgn3rSLRoeKzapJJdb26g4PNdZ4G1Fnm35I5GOK3n+BcdvMrXWoWsa45JI446/pWhp/hrwz4bmH2jXIDt4Kqwx71pzJhqbWlXkjxLxu7j/ZP+f51pLHI/8J9xj61mv8Y/AfhqH5r5JzgcBu/44/wrB1v9tLwRoiMI41kKjjc4FJRbA6DVNKmvEbash3DOQM5rldQ+GepalcqYrOTacZz2PvXJeJf+CkWh6azLaQ2igdDnJxXBeJP+CnjyuRa7V9Aif1qlCT2A96sPghqKFGlVI1x/GeldJpngOLR4QtxcQocj+Ic18P8Aib/gov4j1hpBDNcKrHozlQB9BXC6x+1/4m1IlhOV3c9T3PNP2MuoH6O3up+H9IYrcatax8ZIMg6VzPin4o+CbSzuI5bxLhlGCBu+b9Pavzq/4XF4q8WX8dtDczSzXDgIqA7mJr6A+Gv/AATV+L/xc0y3vpCtnb3YDL5jksVPfA/lVeztuTqcP8afFWl6r44uptL2iFuSB69/6Vxc2qbhx9a+kviV/wAEpPEvwf8AhvfazdarHeXlpA05gRdvCgluvsDXyi05UEYZTnBB7VpEo1zffI3TdmoFvcn8euao/aNh+p/Kkik8x+o9wKopo0ribMDN2xVSNg0UZ+Y7T1A6VJeu3kjsqjgetRmQLZRlfl3VUQuRx7X1u3ZgdvoP61buNqrgckms62LNq8fPY/h71euh5jD8M0SNImhpfg1bh4ZrqdYbdlMrnPIUf1rC1h42n3RjardB6CtnxpqCxeFYI42+fABx+tctfyb4k6/dH41y4WbndvudGMpqDUV2Et78JOB7/pXY6botvqlivlLubaCTXn1ovn3iR7tu5wM+1eoaS8eg2Cqpxk456mutnCcHrOlT6dfyIyN14x3r039kuHPj5mk+UKqgkj/aB/pWRqmt284y0atgYBNb/wCzmyvruqyIOiLj861w/wAaPD4k/wCRdVXkfYttqEMy/K3y4HQ9KvW67P4vlrx/RdXu4rtCHbHGea9c0QNd6dDJ0baM+n419JTamtUfzfjKcsNJOL1PIfj98a7b4efEz+z5i0a6ppRR5WxgAkge9VdF1G18RL4HW2kSaPT7ebJXsfK2D/61eRf8FA7ov8Z7eLPMOmxj82Y1598IfijqPhHXLXbMz2tuSPLJ+6D1xXyOOwqVWXJ3P6d4Tx1SpldCVZ3bitT9afhiq6Z8J9NZiu3yjISPxP6Dj8K8I/Z3+BGpftqftQ+IlgeW2023uI/7Tvsf8e1uo2pEh/56PsIHpyx6AHW+Cf7W3h/xl8K1sZr63sb63iaIxyNtOMdefXNaX/BPH9qfRfg94/vvD0d7b+TrF3JdO4xl5WIXLH/dVQPp2ryYxa0Z9c5prQ/TT4T/AAx0n4VeF7DR9HtY7WysY1hjRR0UDj6/U9a9a8MXatCPrXkHgjx/beJYEktp45BJg5BzXpPhfUN/yjjB/OtUQ2doZiiLzn1rk/iFDp9zp0kl3JDCsYyWchcdv614T/wUg/a28Z/sw/Cy1vPA/hoa9qV07CaeWQrBYoBgMQASxydxAxhVzmvzg8V/FL4qftvftR+Dfhl4V+Il3q17eQjU/EGoWL+Xp+kpuVmYbSCywps4Jy0kqJwwrTluiebU+7f2gPg7HczC6hTzI5gTkfNXyD+0B+zrB4ngbdCqzdmCYr9Av2hvin4H/Zq+Fej6XrmpYnkji0/TopnEl3dlQFMjdyR95m7knua8L1mXSviLp5utPkhmUrvO3BIH4VwVaTT5olSipI/Jz4ufCi/8Ca3JHJGWjySrjuvrXF2mp3Gk3q3FtJJDPC26OSNyrIR3HpX6D/Hr4Lw61bXBaDhTtHy8HPWvjX4r/Bi68L3UkkcZaJSTuUVvRr83uz3OCpFxZ9Gfscf8FFJLWW30LxVMFm4SG5+6sp9D2U8fQk196fDf4xQ61BHJb3CtGwGCG7n3r8M5lktX+bKlTivoD9lP9svVPhwTpOpXEk9kyFYJHf5o27An+tXVp31Rvh8VZ8sz9CPFfxci+I3xUvrpZvtFrpYFjbsTkMVyXYexLEA+1alnfrdMvPHHQ18k/Cb43QvqM1u0g8uWUlGDdcn619EeE/Ey3Vusisrcjp3rl5Gj0o1FLY9M0+1Voc9RWH4z8KLqVo+F5xkYFbHhfWY7u327hntxVzUrbfCenzVQSPza/bp/ZEfSZpvEmj25WFWzPEBwueePY/oeK+Rtz206tjaye3Tmv2g8b+GYNZspoZoY5o5V2ujrlWB6g1+cv7Z37KNx8M9cm1bS7eSTSrhy2FG7ys84Pv1+uM8dK66NW/us83E4blfPE6z9lnxs1n4as5PtPyzfKR1zjIP5f1r6h8I+KItStV+YcqM4PWvzV+E3jabwdrkeJGWGVsOmePY/hX2l8FvHK6xp0MyNzjjn9frWdanZ3NsPU0sz2HxLDHf6c6V8m/GvSJvh58RLPVrdNrWdwl3Cc/KSrA4+nH619RLffa7Qt1DdPevKP2jPCcet+EZpP+W0KkhiDnB4Nc0XZmlaN0df+19ptr8bv2R49fso1la1SLUYm6kL0fH+e1fHfwq17+zdagUttWRgCfUGvqT9h7xF/wALD+AvijwXdFmks/MtYwzZ/dzL8uPo2a+Q30ebwl4wv9OmDLcabdPbsPdGx/SuyOqOGOjPrDwDrXnGNfu+YR0xkmvT9GuFuIGH8S8LXgXwY8Rebaw+bu3D16+v/wBavafD94zOh6Kw4rlqHqU3dH1b+wjrbSeEtasWP/HrdiQAdgy5/nn6179HdqoBJ79a+Sf2NtWurLxTrlrbt8s8EUjH+6QSB/n2FfQEks53Ga427jjriqhLQwrfEdyNZjtz80i4HXkVFJ4ztYm/1mcf3RmuV0vSY7x/9aZPX5s/nW3a6FBHjK81pzGHKRaz4vWaNmjhkbAPtmvmrx3qzap4tuJO+48CvpfxGkOm6JdSbVG2M/y4r5V1y4W41+du27BAq6e5nI0bSVSF+mOtX4ZQpHP6Vi2k/A59hV61uCfzrqicskbNvLkf0z1q7byYb3rJjudh5/WrVtNj07cir5jNxNq1n2rzxxxXxt/wU+8amPS4bMNnjkZ5HB6fiR+lfXQusQtX51f8FLfGy6j4tktldd0LYx3APf8Az3qZy0PQyuneumfKCzeZKzN/eJ5rTs2244zwMDHQ1jWkm9v0rYsCzKv3evftWTPvMPLY1rU5C/e9MVo2r/N6fSs2zb8OK0rQkbevaspHuUNi9BhvX/H2opsLkEcYOevvRWMtzuUtD6M1f9u7wN4f3G32zAd84DVx/iP/AIKdaRaMfsNrHjtk5NfAP2p3HzOzDsM00sT9etepHCx6n4KfY/iP/gqRqs+4WqtGOnCDH+favPvEH/BQPxNqjttmmG4k5J6V88scY5pprSOHggPV9Y/a+8Was/8Ax9Mg6AAmuZ1L45eJNV5k1GbnsDiuNbJpw5H8VaKnFAbM/jfVr3/WX1wd3q9Z82p3E/LzSN/vNVfPJ603OO+PrVcqAkLknk9eDTguU/zxUSsIz704PuXpQ7AP3cd/SiJwSRmnQ2s05+WNiO3HWrVv4avJzxC/1qQPXP2DtHh1n9oHSI51WRVkXhhkfer+hbwT4estK+G2lyQ28at9kQqMcjgV/Pb+yTb3fw7+LGn6nKu0Qup5+ua/W7R/+CitjH4Fs7WSaNZo4lXBzkn0zWE5K4dTpvi9DqnjTVrizbT4zZJIY23fdlB6/hzX40ftCfDC4+FHxm1vRZo1jENy7xBTldhY4wfbpX6U+Mv26ob55Bbm4yw4IUDB575r4L/ayvJPGPjp9akX55BhifrnrUKZUTxWaPYmc+1Lbr+8VsemMVZkh+Xtj606O3xt/wAgVomEht05NtjPqTUcku2KNf4fWpLpP9Hb6cn0qjc8iPOMAdRWkSQgmZ9aUr2HH5VpRtn5W9ay7FsaovX7p7d60422yZ/u05bGsdzoPif4dt7fwFpbwktdSAF1Hp/9auB1D5VA9FH1r0S61CC+skkupl/dJtCk9B/jXAaod8uQMf1rhwMJxi4z7nbmVSE5qVPsvwMvT1ZNWhA/vg/rXbfPMq7m5rkdJtfM1aEf7Yrurq1aGXbjHQc13nmmbcpwRz09K9E/Zhtd8+pMy90HTr1rirqzKWxbbXpP7LNl56ak2D/rUGcexrfD6zR87xRNRy6bfl+Z69pWm7rmM/NjI6CvZdEsT/ZsQ244GAK880LTVSSMsu7mvWNJtP8AiXR+y84r6PBxP5rzyveaSPgb9vqfd+0HfL/zytIEA9Plz/WvJvCab9QLfN8o/KvTP247n7R+0Zr4/wCeZhT6YjX/ABrgfh5p76ne3G3kRJk49a+ZxetWXqz+nOGI8uVYdf3I/kbAkkhPysyjHGKlsNYuNOv47i3mkimiPysp+YUTw7C67e5FRNDj16+lcZ9EmfYH7In7f/iL4Yw29vNfNdKSAIpXPIHAx/nAxX6X/sl/8FCPDvxhmjsJ5vsuoKozHLwW7EjsR9Olfgg1zNCiyRP5bJypHY17J+z/APHRkvbeJ7iSz1W1I8qZDgsR0/P0rnqU7O6OinVezP6Avj14Fk+MvwP8RaBp9xFDda1p0tnFcdWg8xCpdT2cKxwexxXxN8Gf2ItF/wCCQ3w31P4ralqt9rF9Y6R5OqRQQ5M8klwuzAHRYlPOOu0sewrzX4L/APBUvxV8OfJt9cC6jaR4G+MYYjHcdCc9xj6V9YeFf2r/AAH+2F8Nrrw7q00DQ6pD5c8Dnk9M5B7ex6g1lzM6PM+Iv2tLLWIILH9pnxJrUHiHT9Yu7R9J0ppSkSQSlmiSNTyv7ob8EfeyWHevsjwzpngn4WfCPS/F0qyWk3jqxtZ4IGU7lDxeaPl7HDgt74FcSf8AgkL4d8e67o8XiLxNq2teC9DkElloTTt9lQAYVNufu4JHHOBjvVz/AIKxftNaZ8Dfhtpvgvw7Yw6v8RvGA/s7QtPgjEk1nG/7syhOx6KnT5ueimrklJFRkcTonxE0T42eONa03Qd11FpCBp5gh8vLEgYPpkHB/wBk15f8YPg/DqltN5MKyRlsA4z/AJ9a79PCMP8AwTr/AGHNYj1iaJvFN9pwkvr1Oj6hcZijiQ/3YVyQe/ls3BYisuLWLL4D/sgeFNa8Y38k2t69EtxHCy/vnE3zoCvUCOJlDHsR7iuKpR6ompFS3PiT4u/AuSxmmmt12spyy7en0ryG8sJtMudrAq2e4xX6Ha34Osfir4HXXdLVJrW43CKRBlSQcHnuAQR9Qa+avi/8DXt55G8nbIOMkctSp12vdmcNSm4s4f4SeNJLS4WFmO5SCM8E19e/Ar4qiaFLW4k64ClvXv8A59q+E7jTLzwlrG47l8tvwNe4/BD4ix6jHGFcRyLj5e5NbVNdjfDVrOzPv/wdqqjY0cnBwcetdyt559p83/6hXzx8KfGUl3ZxKzZZcZzjJr2PRNa8222sTt6ViemtSfVo1uELKfl6Zrg/iT4FsPGOgz2d7BHPBMpBVh/nB75r0CZFitVWP7o965nX8pu+X3IqOZ7mluh+Z/7QH7L198NPiA0drC0mn3RZ7aRR8p9vr/L6c11H7L3i1rcNazFg0LFcE4Ir7G8X+GrTXJ7dry3SaO3nWcBhnBBr47/aG0SP4C/tVahDZLt0zVmS9ttn3dr/AHuM9M8/Q1vGtzrlZyyoqD5kfTnhnUVu7RVzkkdD3qn4+09L/SJFdd+5eATjNc38OfFC3unRSL90dWAxn/Oa6nULr7fbHv6e1Zctmabo4D/gnNptraftkT+H76VobfWrV9iZKiSWNg6j3IUsfoDXG/8ABTr4S2vwW/bJ1K3sVWO01m2h1NVB4VmyGx+K/rVPWNb1H4Z/tVeENc0lliuo9WgCYO1XEj+Uw/EOQfr7V23/AAWP8L6lovxr8H6lqDtK+oaS8Qc/xbJW69/4h24xXTTOCUbM87+GF0yRwSKMnIyA2c1794Wn88Rr9DjvXzL8INWy8SsxUrzzjDema+gPAd20MaNkMHxjnt61lVO2g9D274EeIbjR/H00ds0gkvIPLAHJJU5/kTXrv/CP+LvEutMLhmjt2O4EHp2rxb9nzV4NH+Lek3Fw+yHLq7N0GUY/0r7M8N6nZa/ZLNatHJCwypXoaiGwVlqVfhr4buPD2lRxXMhklAyzE9Sa62N8f/rqsg2DC4bH6U6JzgjdmqkznMP4q6kLTwlddtwwCK+W3uvMvpm68n8q+hfj5qP2Xwky7lXzDjmvm+KTL7jzz0ransZ1DVgm2qo+b5fxq9Bck/dP41jwSlcDOfercEu5s/NXRGRzyRrwTk7ffjGavW12Q1Y8MuF/HAq1DcED+Lniq5mTympqWoLa6ZNJ2jUsR+FflP8AtteKv7c+KN3hsjzDnnP8RBP44Br9L/ijrS6T4E1K4ZvL8u3YZ9OMV+R3x18Qtrvj68mbc37w5PeluetlUbScjnbEgN6evPetqxLOq+uMVi6eyvt/yTWxpzcZU88c0mfWYZmvZDcef0HWtW15PzDDL0rJs2Kjb61pWhZSv19OorGR71B6GlbucY7e9FNiBY8nt+dFZvc9COx8uIox/j2pCVzn8q7jT/gxdThfM3BfpWpZ/AzYRvZmU4+tex7RI/BTzLO4f3qcsTP0Vm5xwK9js/gzaxEBo60rT4W2cAC+Uv5f59an26K5TxCPSbmX7sLt+HWrVr4Pv7jpEy57ele72/gCBAD5X3fQdavW3hOGIf6tfy6VLxHYOU8LtPhlfXBH9Oa1tN+DNxP9/cfbpXtCaBHG33VxxirkGlJs+7yfQdKzddhynk9h8EY9o3g84+prY0/4NWsRH7tTzzkV6VFpuAPlxUqWJBzjHrWbrSHZHGWXw1tIBt8tT7EcVoWngm3hbHlqO/I611kWn4H3fvD8qcum5bGOOPWo9oxaGXpOixWk67UVRkdua6aHUGiULluv44qvZ6HNJMvlwyybiMYUmtj/AIQjUorbzHsrlY8csUKgf/WqLhdFJtTZlJzyPXtiuc+IGlf27pjLtG5RkfXrXSf2QzfeXaP50yXRDNCysfr34qouzDmPni+tGt5WVhgqcdKjt4y8TN/d6V1nxI8Pf2Rqzja2JDuBx6+1c1bhY1ZcbmJ546V1x11EylfKEs5D09azpB5qq2T059q1dWbbZMPXistnX7N/ujJNaxEN0qIS6k2Pm2oT0q2oO057nuaq6GWF1NtP/LOp3fBxkYUVRSY27mLJ82ev6VUmtmuH4zyMcV0/w+8MR+LfGWl6dNuWO8uEiPrgnmv0F8I/sW+B/DsMf/ErjuHUD5pRuz/nNdmFwNSv8B8XxZxxgchUFik3KWyXkfnJ4X8IXl5qsLQ2txKFYH5Yif1ruIfBOq6pe/u9NvZHP92I1+kGk/CXw/4ehH2TS7OHAwNsSr/Kr1n4K061HyWdurLwNqAYr0o5HPrI/M63jlR/5d4d/N/8A/PaL9nvxZrURW30e46cFl4r279nn9mLUPh14ZaTUub68k3vGp4jA/hr6kOmwwo3yrjqDioJLGNjtC9eBXZQyiFN8zdz5HPPFXHZnR+rxgoR3dtWzzbT/AnkTqx4ZTxzXSx2v2eBV6lcda1nslQ9uOTmqMybWOPveg7YrvjTUNj4uWOnWknI/NP9rqZr79oPxU+7dtuwv5Io/pXNfCnVF0/U5FbAEhwc96v/ALQup/bPjR4ok3blbUZQD64Nc34WlWISSMPmyOtfEV3ebfmf2dk8PZ4GjDtGP5I9I8Q6GVJuI1zG2Ce+Kx2hUnleRXReBdZj8QWLW8n3sdPTiqGs6K2n3W1l6dD61ynrKRjS2w9/yrPubWW2mW4hZo3iIZWXqCK3ZIMD3pjWe8H5c9qDQ6vwD+0HAFitNebbIo2icjjjpn0r1/wl48jgvre+0XUfLk4aNo3wfX+lfJfi7Q2EZaMfd9OlYfh/xbf+Fb5ZrO4mhdOwPB/Csp0E9UaRxDW5+037J/8AwUam8O2sel+KJm4Kok7D5WB9fQ19IeFvhP8AD/4sfHKx+KQht9S8SWtn9ns55SG+zBhgsoPRgvygjoCfU1+Lvwi+N8PxD0RYJnWG+tkAdT/GfX6cV9Cfs8/tZa5+z/rMLLNNdaazhXhLcoO5Un+Rrm1TszpVRPU9C/4LhfEHWPE3x3+Hvg2LQdS1PwnpcyX17FbIxOr3UjbRbfKOnljbnkjzm46Vxf7TnhvxZ4Z+D0nj74oI0njvx1cx6N4U8Mp80ekxuRkbf+egT5OPutIvc5H1t8M/20fBfxZ8U6ddX1vaSXdsR5U0sY3I5BBxnn/9deYf8FFP2W/Hn7U3x28F+IPBuo28en6HD5dkkj/u7GR8s90AP+WgOwDqfkXGMcUmmX5nP+PvGEngDwV4N+Bvw5S31rxpZW8I1WeL57e0bO6Ys3YGQszHHyrjglqv/Gzw74b0HQbG3vdTtZr6bbbqQyq00nAOBnp9K93/AGfP2MfCH7J/wr1ea6vBc6pqFu0+t6/eMFmlG0l2LH7iDLHAPcnrXyT+yn8D7H9s39rbUvF+mWN5D8K/BN0IdNlnLZ1O5j5TGeSA2JGHQfIh6nHPUo8wSjdWPMvi/wDBNreVkkhZu6sFGQK8Q1bQdS+GOtCaHf5echl6Gv1j+N37Ndtq1lI0MW3C54Qc18N/tE/CO68I2V59oi/0ZVY7m7ADNcsZShLlexx1MPKLuiT9nP8AaGt9SeG3uJFWbjPPX1r6o8H/ABJhnjjjDBsjIPpX5ZaXq02hamtxbyNGyNlSpr6X+AP7RP2yzihuZFEkOBjPLV0VKbtdHVh8R9mR94Qa2twi+/SqOtwebHu3H1x615/4G+IcesWcG18F+xNdl/a3mxYJ6+tc7Z6cddTm9chyG3cjOK+Vf+Cg/gy41TSfDuvQq8n9kF7WRh2jJ3Ln9Rz6CvrnVbfz/Y5zXnnxT8IQ+LvCuoaXcIPLvIWQMR9w54OPrRCXK7jqR542Pm34C+NlXR4YpJCvC4BHPf8Axr2+xvFmty2d3y8cdvWvlTwTHP4S8XXWj3G5HtZmj59jX0B4Q8QfaLVVXKlV6Z5/z/hXTJdjmj2OD/aLvW8O+IdF1WHBk026S7QsuV3pIHGf++elb3/BU74m3XxTsPhxqk8y3G60l+dVwqltjYHvXNftPgyeDXmIJZZBt7Z4P/1zx6VZ/bPvtAvP2dPAMdrqMN7rFpN5c4jP+rXyRx/316d61p9Dlrbnlfwov3MkRH+7wO31r6Z8A3gj0yNflHPXr+FfK3wzH2aZd27bncTmvor4cX3mogLKFXBxiprLQ0w8j2Dw1bLrPiCwtpZlt47mZY2cnhAeM19S+GfjL4M+CvhsWs+s2scMK8fvA1fEnxO1RtJ+F+uXySFJLaxllRgcbCFJBBr89vEPxr8QeK7oG61a7mYdMyGpo0XNXNcRUUbJn9EPwm+MukfGPRP7S0eZbi03lFcNndg4P65H4V1zfJ29/pXyn/wSP0CfQ/2TPD8lyXaS8iNwxbuWJbOfx/nX1UX49qlrWxjI8p/aX1LGmwRbvvAk14arHGP5V6l+0rqbS6skQP3QBj0PevKtx+6v8utbU9jnnuW41wfr6mrdu2Af4vfFUomz83tjmrVufl+nIH0rQkvQPu2jt1q5HwR7dqz4G3//AF6uQT4FBmeb/tbeI/7D+Ed/j/lsu3PpX5S+Lb9r7xFcS5Y7m4zX6I/8FFfFn9k+AIbc4BkJOPTg9vyr82rif7TeSSFi2Xz+taQPay+No3NTTgFH4da2LAgnj/vmsGwfcOtbmmtsK888Z4okfSYU3LPgKa0beTcijnr3rKsmBC/rWpZHkY3egrGR71A0IzvVV555+tFJCdqg7eKKk9COxqW2iqD8yrUi6QFblfxI7+tbNnpZkONrbu+TVtNI2ngfQCtLs/Czn30dQ3dvoOv+felOk5ZcqcZBzXRxaMznHHPb/Cp4tG3k7h36HsMf5/KgDl10raM7WIA4yOtSR6UxHC9RjivYvgj8JNP8a63Gl9JthBBI3YH+c4r6u8EfstfDvQLVJplsWYgE+Y4b+dTKVgPz5tPDV1eDENrcSc/wxk/56Us3h+axm8uaGSNh1VhzX6L+NtV+GPwx0SSZpNJi2IQACuT/AJzXxx8WfEGk+ONWm1DRYwltu2nAAGfoKadxN2PMo9Mdj06HjNW4tI8xegy3WtWO0/2cN/Onx2/zKOfQe9Mi5QttCUyop9cZ/wA/54r3T4J+CPBtpZiXWmttx7Sn5v8APavIbeEo27OSBx2rxv8Aae8Y6x4b0+F7W4kjWOTBweufaqjHmdgP0Ub4l/CvwJAdraarR/3FDZrg/iR+1L4L8VxPp2mrFIZMLwBtyf8AJ/Kvyvk+IevazJta7updx6Amu2+DsWujxRbsy3Kox6v3rb6q1qQ6iR9aazpy218+1fkY5Xj1qimn/vK6D7JJe+H7K4kTDbArdsYqFbJc/wC19KwejsUnc8o+NnhAyaU9yq7jFznHb/P8q8atI9nmE59j619YeJvD8eq6RPGwHzLjIHFfLvinTG0DWp7Vuqt6V00ZaWGc7rUmIWXqOlZMj5A/u4z061ra6R5DberdeKyDKQPyroiBJpM/lXM3+7gVYjIlf0PrVPS4fNuJm5+Vea+//wDglb/wQn8Z/wDBQ/wPN44vdQ/4RnwX57W1nMV/fam6HDsmQQqKeM4OT0wOaoD5F/Z4i+1fGnw3H/CL2PJ/Gv1Jto8Rr13YHGK+oP2d/wDg2P8Ahf8ACXxJY6xqmqarrF5Zv5i+ZKdufoMD9K+z/B//AAT7+GvgwoY9AtJpVxh5lDNmvWy/HRw8Wmtz8n8QeBcVn+KpVKM1GMVZ3v1Z+T+n+GNS1mTy7PT766ZsABIWbJ7dBXbeGv2TfiB4tmjWx8M6hhujSIEH681+rx8GeCfhv5cP2XR7CTHyJtVWIJ7Dr1q147+Ifhr4T6VZ3GqXNvZf2hMlvbRkfPM7EAADrxnk9q6pZ3P7MT5nBeB+HWuKxDf+FJfnc/OLwl/wS4+IniLa159h09WPJYliBz24zXpvhP8A4I77wv8AbHiCZmx8ywJgZ/GvtLxX8SLLwp418M6HIjG88SSyxwAfwiNN7E/p+dZHiH4qPpnx60jwnHEDHeaVPqUrj7w2Oqgfqa5KmaYiXWx9hgfCvIcNq6bm/wC83+Ssjw3wt/wSr+Hvh9g11b3GoNjH75//ANdeDf8ABUL9lvwr8EvhjpOraFZJYzyXTWzBOAV2MefyH5V9V/Db4seKvFn7YuueH9WjWz0ex0Vby0tlA+XdLtDMe7EdewJ46V4R/wAFzdV/s74K+H4vW7mlIJ7LE3+IpYfEVJVFds34g4byzDZZUdChGLVrWSvuup/Mt8Vbn7f8Qtbm6rLfTMSf99qv/DnSoZ9Imkkj3Nv4NYPia4a81i6nPWaZ5CM9MsTXafDLSZJPCLSL/wA9SMetePU1P0DDx5KUY9kvyLOk340PUleNBtDc44rvbqwj8X6L9oi2+dGOR68VycXhKRrd5mjO1R3Fa3wx8RJpOptbzNiOQ7etY8jN1UMeXSWhk2spHal+wYX6V6L428FeQ63US7opOeBXLtpfzHK4po0vc5m+0RLyFlZfvVwfiLwMY7ltoO0+levnTdtVL3Q0mXLLz06damUmtgPI9Ft9S8J6lHeWbsjxnII7j0Ne6fDf4nf8JrZpDdL5N5EPn44b3qjoXgy31t/JeFemARxit+H4J3XhqUXNuvmL1DAc159XERvaW5tTutDo9M1O40e4S6t5GSWMhht5/GvqX9lf9tC9064trPVJ9qq4TLt8re+e3/1/bn5M02/a1+WZenGGGOavaZrMNtJtjfa3UD0qoyujaM7M/T744eELP9sT4NS+F01q503T9SeM3jW5xJIgOSh6f/rAr1L4KfCnw/8ABf4d6X4Z8OWMOn6VpMAhghQdh1JP8TE5JJ5JJNfm38AP2q9V+GWtW8c0rXVmxUMCSdo7/Wvvz4U/HfSvHGjQ3FrdQt5iBsB84FVc6Iu+x6JrVvEYCjLkdK+Cf+Cq/izR/DngldFsdr61qhy6p/yxiUjJP16Ae5+le1ftR/tpW/gb7Ro+gvFd6sBtklB3JASP1Nfnv8Wpr7xvrV1qGo3E11dTMWMkh3E5/wA9BUSjdlTvy2PAQ3lHy3x061o+Htak0C+SaNmXad2BUHjHSH0+8f5SDms2xvRNwW5xjGetbHn2sfanwa8aXGjPZi6kyLiBXUs3QHB/+tX0H4Z8SR6mi7XVu3BzmvgTwZ8ZjPZ6el1I3nWYWHIPVRgD9Bivpb4YfED7RFBLHITG4BGD1rhrU2merha3MrHvV6WIBXnPWsHxDB5kH+0f0qbStZOoW2d3XpTdTcFPl+ZcdKxO1M+U/wBo7wEnh3xzb67Euxb87JcDA3jqfx6/jWp4KvN9pGwOQwGD7V3/AMevCP8Awk/hS6jGfMj2zIQP4hn+lePeBNQlgtfLYsvlnb154rqhqjnmrMh/ac1CM+BnVshVYOCB0wDj9RXybpvia61S68uaaSURt8oY5xX0Z+1j4kjtPh5cDdtkkOB8vJ64/nXzF4JUyzqz7t3U13UY+7c8zES9+yPa/h2fPCHPPG7ivfPh/N5McO1t2Bn3zXgXw5AhePphsHHXFe+/D2JVjRtpPHU1z1jfD7mj+09rn9i/s8+JZCy4ay8nOeMuQv581+dWgI13qMMWNxeQAe+TX23+3t4pXTfgR9hXaJNQuUjxnghQWP8AIV8hfBrSv7T+JGh2+FKyXsQYnpjcOvtW2GVoNixWs0j+gD9iHwsPCH7OXhexx/q9OhGMf7NevOwx746e1eT/AA6+KvhvwV8OtPhm1K1jS2t1DAODjArn/GH7cfhvR0eOzZrqboMY6/rXH1NfZsyvj3qn23xa/wA3yq2MiuEQruz1759Kk1nxm3jW8+2sNvmHOPrVe3bDLn6DPFdMdjlluXrdvmz/ABe/arcK/J/hVGA/P3O7k5HWrcfYdfxpkly3HH19KtgZUfTAPtVOCT5e3bNTrNiMnJxnigXU+Kf+Cnvi/wD02OxVt22LGM+/P+favh+BW3ls5z6mvo7/AIKG+Lv7a+JN1DuO2N9qnj5hz/nFfONqC7/hWkD3MJG0Eamm9c/3Rj2rc059oyf1/pWPpZ2rjb9a17Ic+nfHpSlse9hTXsWO4fhnitaz/vYGR0JFZNtJt2/4VqWMnyqvr+lZSPdw+xpxcdOaKbFtUZyMfzorGW56Mdj3v4jWOmQ+KLhtJ+awdj5bdc81gC13OG28dfpUHw4kGofDfS59zMxVgWb1zzxWns8xR97r19a3bsz8LRFHb5THyr396d9l4ywA28euKmhtCg5Vqmjj29eMkZ596XMM5P4n+KtS8G6BJc6fM0MkeDuU4x/n/PpXjviP9rTxtNatH/a115eMEM5OBXs3xktVk8EXa7RuCHt7HtXyNquq/aJDyBXVRpqWrJkWvFnxs8TeI5AtzqNy6qem84P619I/ss6k+veArqGR2aRIxLySfr/OvlFmjZs7cntjtX0t+xbdzO7W8x/dvGy4xxzV1oJR0Ivqemm18tvfvn1pVtvl/wB04rSubMpMylujbfpioWg8s9B1/wA8VxdRkMaZ4X8jXDfGj4fp4t0GSMx7vf07/wBK9DS2XA/iPHfkVX8QWofSJvl3fKRitKUkpImW2h89+BPh3pujzqZgvyn5hgdvevVNL1DQ9L8uRRBGy4xxzXzf8RfiFfad4surCFiohk2celUv+EuvreyJaZ9xOc5r6CFaEVax5c8PUm73PuvwZrVr4t0SWO3dXaH5lI6cVN9kKkAd+QBXgf7FHxHabXlt7iT5Wbaxbpg//rr6N1Kz+z30i/LweP6V4mItzux6FNNRszNmstyHjdnnrXz3+0l4O/s3WVvUXKvw3p+f1r6RlGBzxkZHPWuF+N3g4eIPCNwAm6RRuU/3SKinK0jY+RdZXNsfXisl129K3PFEDWkLK38LYOO9YLyFwtd0dgJrAjZN1+5X9cH/AASA8HW3gz/gnF8KrG3hSGNNGibaowCT1r+R/Romlkmx8w2civ7BP+Ca8As/2GfhrGf4NGiBx261pED2jWNVtfDulXF9ezx2tnZxNNPM52rEiglmP0Ar5R8DftVaj8T/ANtfSbJr2Oz8M3Gl3M2n6eH+eXbt2ySDu7ckDsOPWvo74veC7H4neBr7QdQmljsdSQRz+W+xiuQcZ98YrwHRf2YPhx8JPj5p3jZtTt7ObQ9Ll0+1hmufljLkbpCSeW2rj259TVAcf8QfD2veEPif47+KGvalbXGnrqVvb6Xp3LNHDHsjRRzgMznOAM5ru/2yvh2niXw34Q1RrWaTVpdd0yKJACzQK0gLLgdMc5x6Vg+Ov2g/g94R1uO81jxBaXkdjcm7jgebdEsoz8wHCkjnGc815X8cv+C7/wAGfBk0Yj1C0vWtX3rukVipGeQFz7jIpXRFkfS/x60jULX44eAfEltZy3tpoJu1nWMZK+bGFB/Sj4feGNS8XftA6p471iKPT7O30waRpdoW3PsL73lkPYkgAD0r8wvjX/wc66PdQyR6DpbSEAbD5e39Wz/L0r5S+LP/AAcTfFLxUkkOlKunQyZABlPy56cLjPepchctz97hb6D4K+OeueMtR1qzt2utNi05YpJVQRIjFieT1JNfl3/wcG/8FDfCviBbDwfoN7DezWNtN58iv90yALkDr249efSvy4+I3/BTX4ufEN5PtXiq+jjkbO2Jyrf99dTXiHibxVq3jbUZrq+uLq+urht0skjFmdqI1pLYxxGChXh7OqtNNPR3MXV7hbm5kPTBz+te4/ADw8t14Dt5HAPmSlsY6jP+T+NePad4A1bVJcR2UpJ9RjNfSvwo8GyeEvBNnZyLumQbnx2JrnqTOpR0sUvifq1l4Q8MyBmVTINqLjnIr5t1b4hXEeqs8JKbWyuK+l/iL8M/+E0t1jZmz229z6V5t44/ZSk8M+Fl1hvMELNjrn/P/wCqlGpFLUnlPRvg/wCMp/F/wyj+2Qs/GAzDOeOvr+NQy6Szynavfsa+mP2FvBngvXPgjDb332IzFMMJCA54x069v19uHfHb9mrR9Pgku/DrlWXkwltyt9D1/OoUtStj5jbR8jGOneoTpIydy8A454rpLmxa0nMbrt2nBBGKiltlmQZGPQAdKdrlJmZ4f09YNUj/AIUVgW56gVN8Y/2iLfwrrdraw/LGhww2/fHfP+NWVtghbGORgsK8n+OvgSfVIWuo9zPCOw4xXPUwkKj95GnO1sd7D8TdH8cKrRtHDPgAkHHP9ayPEDSWbb0bceodTXzpDq13oN18sjKVOa9K+HvxSXVEFveycHj5j1rGWElT1WwRqX3O4034nXmjzqLhvMjXHIGDW9aftc6/4Rv9uj3U9tZyECQIxVmH1/CuJ8Safm28yH5kIzjrXIzzeXJtPr37VUV3NIzktj6v0DxyvjSFbzzzM03zOxbJJ96XVUZ1bdtrwr4OeOG8OatHDI5aCbjDHha92trlL62Vh93GR71XLY7KdS6PNPiL4dFwzMAPmGTxXk2pq2k3zfexnGa+g/FGmme3246cjivFviXpjQXL8kdxxVR3Ma0epQ06+Ztrr6ivXvg18b5tN1iG0lbbHkbQTwPp+lfP+n6x9iG2Rz1xj0rUs9bNtcxzRsVdWDA+mKuVNSVmYxqOEro/Sb4a+M/7VtFVpB8wyOf8/wD667jPnQ/N83c5r47+EHxVuUgs5mkYrgE55xntX1F4N8awa3pMW0/vCoBG72ryqlNxZ7lGqpoj8XWn2m1kU7ZAwxgnqK+dbm1/sLxDeQt8sccpKYz931r6S1hAYW549B6V4L8araPRtR+1tlY3UlyfUd/rWlF62KrL3bnzh+2H4le+ksbNW/dDLOc/n/SvK/BAF1efL9BV/wCOnjqPxTr5jhYlUc/MfTPA/Co/hvaETR8c554r1YxtGx4M5c07ns3w8gyI93Ydq968AW+yFWxuOAcCvHfh5o+/acZHv+texeD5f7OXcx+VhgZ7VxVNTuo6HnX7XHgS6+J2qaLo9vIyeSrTOCeBvOBx/wAB/WmfDj9gO40e7s9RW68xo9rr8pGM+/r/AJ967Tw+f+Er+JjTN+8VZRGAW42jgfyr6Q0i0WOzj+70HPfNVGTSshys5XZwvh74VXUVrDHcXdxMsY6Bjtx6V1mjfDexslVmiVyp4BHetxDnp+QqxA2HwPl6DBo5UW6kiezt1trcKowvA4PSrMTFj6c81XQbP6gHipoAT2LZqjmkXIPlYfN6DpVqNtxH3scZqnG2wdatRyfNxj3FBBcgLEru78fWmeIL6PTtFuJmYKsUTOT9AaSJsvwen+cVyvxy8QjQPhvqc7ME/cEKTwM4/wD10DW5+Y/7U/iBtf8AiXeP5nmDzmyQMZ5PavOrV23r/nNa/wAUNUbV/Gt4+4n94QDnPesm27dc+9bR2PdobGxp5yV9eMDNa9lyO23p61k2IyeenFbOn8P2/lWcj3MKalmu0Dj25NadryQeg6dOlZlodw6fd9O9adrkALnvWcj26BoxHI+6ox0NFNgHPrj86KylqejDY9P+A7tdfBzSWOON3PrnB/xrqWtduMfwjg1zP7MsXnfAPTm6BZCCvoMAYFdl9nCtk4VRzWstz8JKYgD7vlx2x15pyJu6/NkcYFWlgyS2M9M8cZoSz284GSccd/8ACpNEc98RLVb3wbdL975MbTXw1fRML2aPcPkcj8ATX354hsVudDuF42mMgZHSvgnx5aTWfjLVIVibCXLhcD34ruwr0JkQ2s0VsytJg+2K9s/ZU+JMVl4xht1ZV3MO2O9eDWnhjUNRfCxtzXdfA/wnfaH45tZ5OF3AHiuirblZHLdn3Dr1js1CTCr8x/LPP9azTahW579h610OswLcW1lccET26E4HfGKoLB8xU4Zu9eSamesWxcY9MGm3lv59iykbsjFXJrYDDdOOB70ySPd8oUAN60AfHnxw8Ix6D8RpriReLgbhkdxkfyxXA6/qPmYXj14r6I/a48GrHZW98iksrDJ9AeP51843tgwkPTOa9KnO8bmfLY7z9nfxafDvjW1bdjJA59c19630y6rptjqCci6iDN6Zr80/D+pNo+r28ynHluDX6E/AnxGvjP4QWrbhJLZ4H3skqea58TumJxNQp83bI68dKh1SH7Zp8ke3duXBIq40IQ53DGMdKV4lZ+g+p5rn5hnxT+0F4Zbwr4ouodv7t3DKfY8158vzD2OK+mP2zvAbXujQahbx7mjkCuAP8+/5V82yWMsTBfLkVh/s16FOV4gaXheeG1uF8wfeILfTNfqX8Ff+Di/WPgb8C9M8K2NnNO+lW4t42woxgAdxx36cCvyoGkXvkmRLebZ3O3gVRN6QdrfeH6Vrctq5+jHxf/4OH/ix49aVbG4ezhY8ZmZuP93gA9Oa+cPiH/wU3+LXxE3C68VX8If7xibYT+Ir5zEqjq2f61JvUsPm/wA5p3IOv1/41eIvFMryahrOpXTSdfNmZs/rXN3Gr3Fw+Wkd+epPJqujqp7fSka9jj74qeYBG8xnyWIU9OetCIXf71V7jVIwOvI/WobbVGFwrAHqM4781MpAfWnwF/4J+6h8RvhzH4i8sTqx3BG4BGAeP/r1ry/s/Wng26aG50xbeaPAwU5P4/lXY/shft8x+C/Alrod5Zb0jwFYkD0r2zxl4n0X436AZLZYluFUOu3/AFkZ64P1/rXn1KrvuWj5vtfDkFsMLEuM1bFsoA2r90Y+laup2LaZfSxybhJG2D9aohlUcq3UZNTzMZFBBtlX5V29M4xisT4+eJPO8GCx2ny9oUdNo9/w5roEbP3SuG9q534q6K2teGpo1/1m3I+ood2B4fB8UNW8F24isr2aNU6ID8qmvYf2Zv2q7+/19dP1q4aW3mIUbyW218+atp0kN4yzKyurYYN1qGwvm0i8jmiba0ZGK6adMxkfaXxp8Ew2866nZ/6m6AJA6LnkGvN7uIwuVz90Vu/CD48weNvBq6beOrTRx7Vz39c1yvjK/wDsGoSLu+Ungj0rZ6DjruJcXKr/ALQHXJrK16aO6hZcBtwwM9qy5teVifmXcPWsy98QYzz79aEbWZ5L8V/B39nag80S/u2OSPQ1w9tdvp9wGUlWBr2jxdJHrNuwbByMfWvLdU8IT/aG8tdw/nWsWtmTynoHw5+I66raC1umBbHHrT/Euh5kaaH7vXHpXAaL4Vu7W5WT5gVIzgdK9C03U3j0wJLztHOa5pQSehpEydP1VrWUK3yspr274M+O5NSsvs9xID5e3a1eS6F4Ql8V62sMK/e5Zs5Cj1NenaNo1v4NeGBP9Y2CcmsJHRTdj0nVU8yBmGG4AFeTfFDSFkidtvOM5r1DTrn7ZZrtPbgmuN+JFlvspm/h5Aojuby1ifOupOLW/YHG0GiDVGmlXbwOv0FR+M3FvfN65xxVfQ1bG7+97V1W0PNPefgjrTTaCse/c8L4PbAzX0h8MPF/2OC3AkVmBAK4xkev618pfBWV7e2kPQM2BjjIr27wZqUkE0X93I6968/Ex1PSwcrH1ANSjvLES5+ZhxivAP277ubR/gneXtr/AKxZlUt/dB6/zr1HwVrn2q1SNpFyB69a89/bWsl1D4Ca71/dqjjnvvA/rXNQ+NHp1taT9D897C1e7ut8hLZOSTXqXw90dsw7R1I5xXIeFNEN5Mq7dwz0r2n4b+GWYQ/L93AzjrXrVJaHgxhqeneAtMSGzj3DngjI/Stfxx4sXwtpB8tgt1MNkQ/QnHtUFlPDoFh5szbUjXcxPYV5n4i8WSeMPExmY4jGFRf7oH+fzrktqdXNZHsn7Nli13qfmsv3mz8yk557fnX0pHxCre35da8L/Zs0pfs8bhfu4wffvXukB4C7ffGakcdiQfw4I/xFSxPgk84yKg3b1/hx6etTRNk7cfT3rRFFqB/mAPTjFWImyT7e386qK+V289Ouasx/w5254FBmy3AxKlTkZNWYX3bdxGc8+1U4ThPmbk1ciZge4oMy1AcyA9vpXj/7bXiZdC+ENx82xrpxH+hJr12E7R7DrXyz/wAFI/Fv2DwpbWPmfeUy7T69P60GlNXkj4A1a7+1axNJwdzk/rU1gchct6VRjw7N03Zzir1ku1lHaug9yibFjhnA68ZrYszuK/L71k2EeFGfTkVrWR+dR/D296xke5hjVsHKDLc+laNsuD93IznOKzbQ+WR/eIxjNX7bL89OnFZPc9qiaMQ2fic0UsEeR82fpRWfU9GGx7X8ANNXTfgzHCMlYrojr04rpEi4HHX261nfBONZvhVMfl+WZWPPXg/4itcxgFe2AMe1X1PwghSAlP4frnoacsW1sdvbtzUyL/CMEelOWJm+bpgfnRctbELWiy2rg8q4Ixivkn4teDYbb4n36rGPnkDk49RX2Fa2+/G0/e/nXzj+0Vp66V8S3crhZolY4HXk1tRk7mvQw/C/gm3Flu2r0qzZaWun6rHMq/Krj5Rxin+EdfjljZRt6YH/AOqrkq/bJm8s7jngelbXZmz6U0y4XU/h3pNwD91THnHYVTzk4UZbPp0rP+Fmptf/AA2jtGBV45QTxg8jn8OK2obaONT64446VxS0dgKb2rS7t3IByPUelNa0y6/4jjmtFo/vLtbHcAf1qIWvzcEZXA+lTzAec/tB+F/7c8BXSqu5vLJ6ck4yP5V8c6jps1uzBo5AynB46V+hF/oq6hb+XIN3qBzWh8P/ANi/RfH1lc319axw2yqTll3En8/8/rXTRrKKswPzLuW2XHv619kfsKeKry38Lz2s8DJbzIQGcfe615X4P+B2i+JP2uZfDok8zSIdQMWdwAIBwTnp/nvX6XeJP2J9N8I6RDceHmVYYol+VR2x6dP5VpXkmrEyPD5oSzKfvfj0pyQsDwNpxn0wK0tZ0CbSL1oJlKvGcE/jUKQAoO4zXJckzdV8NW+u2bQ3MfmRkYPHWubg+BWgQXRk/s+AyHnJUEV3gjwOn0FSNGoyq9e/PSrUmtgKfh34AeG5fDd9e6pHbw28aEj5Rt6H86/N/wCMVzaW3xO1pdP/AOPJbp/JA7LngV9a/tsfETW/DHhGNNPnkhhdtjqvoe/518RTxfaJmeVmZmOWJPUmuuje12aEkeqFsYye1WI7uWRvlU+3FO023gRug+prUW6t7YdV5rZsCqkVxMMgdu9RzaVK4yzYqw2uwxntjtVefxOCdqgc8ZNK7J0Ft9MUNlzu/HpWzYW0MO35V4PNc22rMX/Wp49X8uMZaplFsLnf2HiCHTV++qqvp2r1D4B/tIt4c8Uw2/mNIkhA5PJ6dK+ZLvW3kb71S6FqkttqEUisw2MG6+lc/wBU1uxcx+jXxD8nUYYdUtfLMN0oYkep7n61x8l6p6fKM1zvwZ+Msfib4bLp9xlpI48DPSqNx4pma5KhWbBwMD734Vn7NofMdbJqQiHzMPlOM1UvfEEJhaMt2xk9q5cyX2pNhclm4HvVj/hE7p7ZpJN24clfSrUSrnlfxfsf+Jy1xbqxMrciuQt9Du7/AI8uRfTINfQJ+HMd7B5kkfmMPXmnWHw9jgib90N3pjBrpjojNo8e8HaBqXh+/SaNmj9cV2uo3U2r7Q3JUcnFdsfB0Nnb/Mo+h7fSsG4sI7JpuFDZ6f4UXKijg9ahkt2689zWLd+YWVefm6n0rpPFcsbP8236CubvdWhVxjb7UGxBcRs54/WopLdG3fKMnnkc1Dca+gGEHftUP26e7P7uNugPTtQBOu2IsW71Bczq5wo3EDGMVY07w/c3Z3PnnpxXSeHvB6G+t0Zd26RRz9amWwHpXwi8ADw14BbVLiNfNlj83kc4xwOa5k3Emo6u8sh+Z39eMegr6F+IHhUab8FI5YY/4FHH8IPY/wAq8HsNP2XAbbtHUk1z81zQ7Hw5OVsxHt+vHSsb4kqP7OZmJUoCSB61r6FD5cGelcf8bfEcei6NM8jfw547miO5vf3T5z8YN9r8QNGOm81btWW0iVVGXOAAO5rn5NRm1HUHZFxuPHtXYeDfDb3VykkgJbg89K7XotTgPS/hdZsmnRtj5mxnjj3r1jwseB/eyPauH8K6c1nZRj2/Ouz8NriZWzuZa86u7nfh9Gj1PwXcixgj+Zt3X6Vz37Xmp4+Cl7b5LSXk8UWD/Fhtx/8AQa1fC8m1clhv429s1yH7SF5/bkGm6buYtGxmkHYdh+PX865qa1uenUl7ljwb4d+CzcTrhWz1wR0r2rw5oUekWBlk/dqo53e1VfA/haHRtOa4m2xrgE57VleLvE7aqGt4Dttx1I/jx61181zz/Z2Oe+J3xQl1S9+zQsVs1OB/ec+pqn4KRbzUI8fNk5+nemXnhRtUG7buPQccmtbwV4TutO1OEtG231waDOUWfVP7P+l+ToMbHvzx/SvUkQgf7o5x/KuP+DemLb+HICFwSucenNdg5Zeg3Hr06Cs7msdh5JY8DoB35qeI7jnlffNVVJde2fepojk9ecjBqlIZaiO8DK4z61Yj59OeOtU4yQB8ylWqyjqijGfpiqMy7E3GPcVZSb93wTx19qpK427T1yOoqdDtIyKnmMy8riOMc/NjBr4K/wCCmHi7z/F32UN/qlCk+/H+fxr7rll227Nu2hQe9fmN+3N4r/4ST4pXhDbv3hx6gAkf4VUNzow6948Xtvv4HzE1p2gy+OPqazrFs49z6dK1LNP8RXQe1RRqWK8gcmtazOD90+tZtio6/QDmtKAKSOM+vqaxke3h0alt8x6//WrQteVU1n2zjC/TvWjZbWbkdsCspbntUS/akYX1yKKSFGU5U4x60VlLc9COx7r+zlcBvhvqULN80Uide+Sen8q6YxfJx/DgVxvwL0C+8K+E7iG63RyXzrIV6naM/wBa7aNcuQcLz1B5IolLU/CA8vovfHp0p3kMZG/Pjv8A55pAR16etOjfA2qvDHNBoh8KbT1zxk7e1eW/Gn4NSfEPVYriKZVkQFOn3u/9a9TiTfx+fvXZ/Bzwhp+q+JYbnU5FW1gYMSx2j9fxq4ysaI+Kvit8AvEnwW8Mx63LGxsXwPMHQZ6d69l/4Jyfsuy/tI6bq2r3MhZrTAjjP3Sa7X/gqP8AHfw34m8K6f4T0GSGcI6vI0RDKgXt9a4T/gnz+1xD+zFLeW7qHt7v5ivqc/4V0e84XFKx7R4w+BurfCqWSO6stsKH7yjAxXP7F8vn5WxjB6mvZNQ/bG0X9oWKSxWNUmkXapJHU56c15LqNgLW9mh3D92SDx0HauV36mfMVVRU+7xkgnFDwb13dm5UA1NHbbXPO3dzn1qxHDk7m+YDrz160iblfT4MygNx0xx2/wA/yrk/2jf2mtY+HHhddD0yQ263sDAso5PPPP8AnrXbWyhMHDZ44z/n/Irx39sDw0smh29/977O+GOezf8A18VpSs5ajifMOh+KLzw14uOrxzMt0spkLnuT1r6S8K/8FTPFEENvp91MzxqQpzyAOPWvmPWxGCxXvz7iuZu5jFcBl+8pFeg6SluEj9RrXxSnxQ8FWWuxqFMy4l29j/nt71RMID9R0rzf/gn940/4S74WXels6eZAgdcn5iRx0/KvUGjIJXHua8+onF2JIGyHGOuOcmnycj6DgU4RZO7+LvzxUhjZOvXtx9anmA8q/ae8AHxn8Ob2MLl/L+XtyOR+tfnbqTyWV7LDIpV4WKsD2Ir9Wdc0ldX0ua2ZQ6yIRtPfg1+bn7UHw/l8AfFi+haMxx3TmZBjpknNd2Dkn7rKbOC/tB8/eprXkjn7xqIKcVd03Q7jU3xDEzZ9BXdZEldXZz3NWoIQgDGum8P/AAd1PUyu6MxrnqRXtn7OX7Dl58S/EcbXSyNZwyDfgfLjPrWcqkVqB4Dp3hHUtdG62s7iRf7wQ4xTpfh/qnnJD9lmZmPQKeK/RXxh8FdB+G1hDpVvDG0nl/MQeQPauKt/hjY/b1YrGij5q5/rBXKfJfhT9mzWNbf95GY8AHGOa9A8N/srCC5jjmXzH3YOT0r6o0W00fQ4lX9yJFTggDiqVxrOl213I6tHnP1xWft2w5TzzwR8El8Mxi3j28n+HOOtdtbfDC3hVmaP5wcexPvTrj4gWYl+WPdjvjGagvPiJcTofJj2rnjJ+9U8xJd0vwdb6a+5lXPXJ70arbW7hlZgoGO/UVyeoeLNWuzlFPTsOKzJLfVL123SS+4B4FCkOx082r2NiuGkj+XjGc4rIvfHdhDu2Pu28dKyLbwNeX7/ADCTHv8Azqx/wq1z9/5ckcdeKu6Hysy9d+JaSxsIw2McACuG1rxjdXYbC/d6cV6DefDqNHb2HII/zmsPU/B6RBgF59DT5zSMWeU6ol9qs+7c209xUdr4InuTukU9K9Et/CwluNwX5f61oroARB8vA68daPaGnKzz6y+Hyjl+Olbmn+C44gD5fQ9BxXVR6D93jHIPtWgmh5ULgAZwcVLqFcjOYt9CVyAq444GKu2ukm0mik6eW4PT0NdFa6J5Ue7cCfWpW00yL93t09ahyHyH1N4X8IJ8T/gh5cO1na3GzIzyB/n6V8vaj4Rm8P65cWky7JoX2nHFfQH7HPxah0SQaFfSKiknyS3cdSP613/7R/7NUPi3T5Ne0WEPdKhd40AzLx1B96x2ZqonyRdMuk6a8kreWsffOOcV86/GbxNN471lreDLWkLcAZ+b3r074mahq1/qUmmzQzWwhYqVK4b8a5iw8CCEbipLls7vWumnZaszm76I4Lw14I8rblfrxnNeheFvDfluvykDPcVqaZ4ZSIr8qq3061v2OmeW6jb830zgds0TmZxgT6dp7R7VVfu9Oen0rqvD1riRV+83GSeRWfpummJIzt4bGFzyK6bwnoVxf3g8tGbbySBXLUeh3UY6m1bvHpdoZpG2og3HI6nsBXBa5ff2vrM915byM7fLnrgCvWLr4Z3fiNVhG6K36kMeT9a29A+AVhaurTbpCQDkr3/HtWUdDqmeCnSdQ11lijjkKei+nXrW94d+BOoag6s0ZUNyCRwRX0JpXw80/S0Ux28ash645rWFlFGFUIFxjGKbmZ8vc8j8Ofs7wW6H7Sytu/hVa3tX+HFhpGlxxxwxIxYAHb8xxXfMvB/h/rXOeMLjN1axDc+ST+VRzMGlY6DwNZix0GONVbr0FbbPsX5sFm7Dk1R0Vfs1iiLt6dB3qxLJz6HoAa0izEfE3zD5ucjtU8PyDr15BqnbhgfXbzmrEbgt6fQ81YpbFiNtrLnGP6Vai5xnnuKpxvknouOgqxE+1jz8uec0EF1Tjng845qeJgGHr1GOlUUfcm3+LtVm2dQv0qbk8pU8bawum+Gb+43KqwwM5J6cA1+Tvx51ttc+IF9JvZ/3zYLdepr9Nf2lPEA8O/CXVJAWVpYvLBHbPX9M1+Vni/UP7T1+6kPdzWtE6sNHqVbA7Fx/IdK2LMbcbvb8KyrZVVhtrWtRnb1NbyPYw5rWh+Tk81qWgBx19fxrKtB8q+me9aVrtwvPpn3rOR7lA1bNtw4zj1q/bf6xcd/yrPtj83HHAq/a8t+IyT3rE9eiX7bJX6H1op0TfP0Of5UVnLVnow2PuT45/s7XXwdvvMWUS2bNhCB93rwfpXm7Qvu6Y74FZv7KX7ZmtftU+HPEGn+IG+0XWnw+ekjY2nt9c859K2Zvmmwfoc1jyuLtI/CUMgUJt6/lTo42KHaPmzxj8adBJtPIX5RtyfwqYFUP91jWkWUMtY2A2n73p6iuZ/aN8T3nhL4OXU9tNJC6sod1OOCcf5+tdap3HA257E9q439pvTf7X+BGurtz5duZRjtt5/pWtP4kVfQ+MfE/j1tWn8xpmkk6knkn86xT44miXG/6Vz1zend1981UkvOepr1lFGVz3z9lj4y3GnfFjSlkkZY3mVSSenP+frX3R41tvsuuTMq/LKA4II5yK/Lj4Za9/Y3jfTbgMf3c6E8e9fqXq97Hq/hfQdQRQTfWKEn3AH+NcGKilK4jFwyvjjoMn1p44j+Xo3vzT4oyI8pjkdu3+f6U2CD/AGv/AK1cl0BNbw5XuOnYZriv2jvDTa98KNRRF3OsRcc9xz/MCu5WVVbcPl9c+3vVfVrGPVdFuoXX5ZUPBq4O0kwPzQ1HXyz7T/Dxisy7v/OXdjPatP4u6C3hb4iavYbT/o904AxjgnisiG7jjtvmweO9ezHYD6S/4JufEr+wfilHYTSbYbr5Dnnr/nr719reIbT7JqsyjcFzlfy/z+tflr8FPGB8J/EnTbyJmXbMoOD154r9TL7U18SeFdJ1VMMt5bo+R3OP/wBdedjFaVwMwxgLz+p4NSbShH05qFnPGV6D8qeZQ7Dd9c9q4+YrlBjgcsvT0r5U/wCChXwvGraVHrka7pLN8MAOdp3E/l/WvqsvtT/Z6Vxfxq8HR+N/BV5YMOZYiOR1rWjU5ZXKtc/NGysVMy/Lu56AV658LdIi+zofJ9OgzXNnwguj+IJrWVfmhkKEke9fR3wI8AWepacjfuw/Bxxgdq7alZ2uHIVfBvhSXWrq3gtoMtI4QEDua/Qj4OfCCy+GXwhjuDGsc/2fzGYD+LH614X8Lfh9Z2OvWLeSnyuuB05zX1z8Q7Jrf4WXEarhFt8cDOfX/wDXWKk5K5z1NGkfCHxCstS8ReM766WSRkaQhPpk8CsZ/B2oSt/y1x/CPX2r22Lw0lzctuXHOen5VYPhiNTjaO3Irn5mdCseFwfDDU7t924gMQvOeta2nfA24nGZGkORxgHrXuWkaHBGg3Ivv71fh0yMNtwvPQAY4qeZgeJWfwTjQsZNp569a1rT4PQ7VHk7V9v89a9aj0aJRkqvHr3p0oggj/hBX0q4yZXKeQ3fw4SxTasZG3vjrUdp8PxK3zRqB2yOB/nmvSrl4VLH+LvzVGVoZOV+XtjtVXZUYo5KTwfHbIAsa8ewz+FUrvw2skZ+T5v6f5711GqS4bp6Hp1qm/z2zALhj3znOafMXyo87v8Awztl9s9cVyOt+HS9y2Vbbxz616zqOnMIGZse+OlclqOnBmZuP54o5mXE8+GjRwH3zg8U69ijgAyPce9bOpadtbjkk9PWsq8snc/N930pXZorFMzRqqluPxxVlbqHy1/u4zn8O9VzpBlc7m+XIqdNPhjHzMG989adySKTVo44ztj3ep9az5/EEn3VA98elaZsI2z36YwM/wCelMTQvNm+621uANvQUcwGVaaveWd+l1DJJHJCQVIOCDX1f+zN+19HPbR6TrbKrgKodj8rdq+c7PwLeXzKEgdueBtrodH+CGtSv5ix+Vg7t2Mc1MpIqMWz6t+KX7K/hT462h1CzWGHUHG7zEGN1fMvxQ/Y18QfD6aRktjc2sfIKDOeSK9O+Duq+Lfh9JHHJdNJbIOQxJwPQelfQ3hr4xWOt2sUOpQxuzABiR0NZxqdDT2LPzfuPB13aXG2S3kjkzghkK8V0HhP4Z6prl5stbK6nk5PyJ/XpX6M3/7P3hH4kRRTWtrH5sp42gcV7D8Pv2btB8JaXBHb2MMflJhSEAIqlJy0RcaKW5+Xekfs/wCqf2h5d/G9quOVYZ/L+VereFfAVn4csUhjjC7RlieWP419RftP/Byz0ywk1WBVikjwCAMFv8/0r53eTypBnPrUuL6m8bdBscS2+dqr6DFAuSQR74I9e/8An6U0ybB7N0702SbaSeOMYAPegBX3MOvbAPp/kVEcAnPOcHGabJLhBnOMdCKjYk/NtPTBFTIBWkXaT7fmK5DUZGv/ABgkYb/VgAf1zXVONxbjPfiuU0VTe+MJH+YbXAJPGOv/ANapJkeg2oEcS5VvlGPpTXkYycdvfpR5ipb5H3cDPt/nioS4OduR0OO1UmYlhJSE3NxnpkU8yBV9PwqorsD97p606Jif73tz6VQF6GY/w/Q/41aSbBC+vB9u1UYGK47np9asRyY+bp6A0XMy/A+cdM+1TxOrYb+LNUIHAP8AnmrcLfL82OBzmpcgPC/2/PFn9h/CtLVWCm5Yh+edor837iUy3JY9WPWvtb/gpX4pxbWdjGf9WpLjpjOD/hXxKmTNu5O411Yde7c7aKsjRsVOM478VqWg3P8AzrM09d341q2iYkGG5raR6uHNO1GQPXNaViMt1rMto/k2/wAXXitGy+R8klvasT2qBqwLz7/zrQtCxX5v0FZluvzf7PXp2rQtiN68/Tms2etRNKA5I596KIuSp25AOaKxZ6MZWRof8EpbtU8a+LYW53aUXAPTrj8f/rV9KTQ+W25WDfTv+FfLP/BLC92fGTXLdcnz9Ik49cEV9Ub9kpU9mx17571pi9KrPwxAEbPI7fn/AI1MiZP6YqON8thsehOOBUsb4PbgjHv71zqQ0rku9mX/AGcAnPFUPiBpa698PNatd2Vms5AAe/yn/P41d83EWN244+gNWHg+06dcxluJIivrjj0rWEtblW0Py01D91K6n7yEg81nu5HHPrXV+MvCjaf4z1a3b5fJvJUH4Of6VVj8LpIq4U4r24yRlymDY3LQXCOuflYNxX6nfAnXD42/Zg8M3rbi1vmEn07/ANa/OHTvB0bON645x0r78/YqvhqH7OF5p4+9p8wcLu6ZH/1q48a7pNAkdkZPLJH8WMDA60Q5Vv4s59KI42kl243Y4yKsGPGzr7Z6ivNDlI/LZRu/vHrmnqWZto79QBSoPnX5T8v5ZxQvO4qA3t0rTqSfHP7YfwjWH4pyXixkLfRhifVhwea8B8SeGW09m2q3B7V94ftZ+HY7nwjbagyqzQy7TxyQw/8ArCvlLxhp0NxE2Ap69K9TDybiB5JYk2V3G4+8rA4r9N/2QPHQ+I/7PVorPvuNNAVvVV/zmvzO1+0+w3eFxjPpX1//AMEr/iUE1rUPD80gK3ceUQnoRz/9aoxkLw5gPp+Qc/eHJxnHUU0D5V9evympryBobuaPG1o3596ryr6ZHoK8Y0FdgF+vX3qKWPzUOSD6GiRFdQ3Tj86PN+VV554A7AVaZXKfF37W3hD/AIQz4myXSrti1AeZn/a/z/I1N8C/jZ/wjd7HHIymPIDDvj2r1X9ub4fP4j+HR1S3RWuNOO8n+Igdfwr4ng8QTWc6sjMGX3rvpx54lH6b/Cz4q2d1qllcecqoCAx69f8AP6V9Y3vxCtfEngJolKyLcW+wHPTj/wCtX4o+AvjvqGjzxxrO6x5BIJ/pX2F8AP2vI59CWxvrrazLhcvwTWkaLSszjrXvc9a1nx/DompSRzMq4Yge/JxTZPihYwwLIsgZs9PTivF/ih4uXUNca8WTC9CCc1x2rfG610uLbv8Am7jr+VZexKjLQ+lYvjFCm4+W23jAzzSf8LhVZfMyqp6ZxmvkW/8A2hLi5Pl2scjs3cLnOal03W/Ffi/57eGZY2HHykD/AAqHTsaJs+trj442rg7p4UAHPsf61nXPx00pWxJdrxwNrZ3f596+drL4XeItTcNeXEyh+QC1dZ4b+DOza1xIzN3x60tDRXPZtK+KGmaw22ORpG/vYwDV6bxNDs+UdT6VxXh/w1b6KMLtz1BWtSRl2YXk9QBSKiyfU/FeW+Ud+O4rJn8bNGWUKq9uB0/zzUV/ubj5gOCPesqfRpLj7sfGc4poq7JrzxpJKOpXA9ev4Vk3evs+OOV9DWjF4OuLpl/dttJwOK2NO+D99fsrR2szK3HzLjHqaehUbnnV9eyvO3fnqBnH+NZ93BczkFV4bnPSvc9H/ZrupCGuJBGrc7VXdn8a3rP9n3T7b/j4V5OmecD64rOU0jeMGz5qt/Dt7fzYVGY57Cui0L4Ranq7r+5lUcclTzX0Xp3w/wBO0hf3cEfy4wSoLZrTS0hjf5Y1+XpgYzWcq3Y1VNbs8Y8Pfs7zblNwwx97p0H0rsdE+Cen6Vt3RhmBB+bnpXeKfLBwvQdAaaRn5iDt9TUcze5VkjL07wfZ6cuUhVdvQ4q/9kijT5VC8ccVK3Bz37ZHSo2nPpzxTsVFldowWPC+uKjjXMkah9iswyfSpGkzluf8Kr7wrfpwf6VPKaH1F+zu9naWcK+cJSMd/wA6+jtNvLbUbBWjZQ2Ohr87vBfxDv8AwdepJDIzDjgk/wCf8mvTj+2BfWVgqQAK+MZ3d8VpTlyky1Z0P7a/xHiOoR6PbMG8s7pNpyM+n+fWvm9pcN8vPI4rQ8WeKbjxXq815cs3mTMTk8/WskSbo265yDn+7zVuV9SkOztPc+4/ShjsXJb3z9KjU8t8xDdh04pGlwfu56dKQCPJnqOQcnPaml1Y59+nrTXlXcwzntmmPL8oxjg9M4IrMAvLhYbeR8DG0/jxXOfD1Wu9Ulnb7zNx7/8A6q1vENx5WjXDDbuANZvwvty1uZNo3N39f84oIkdlK+z5uev8JqMvt/vdgabM+Og9h9KgR8ktlSepoI5SyJd+PTHAwKkSTb97rVYPg+49afA/PPXr0/WgkuLJu+Ycd/p3qeOT5M/yqnHIMD5WPv71YjcEevQ89qDMuI2xP5+1WHnATjHy9aqRyKyHI75zTb+4W3spJN33ULE+mOaBrc+Bv+ChXiz+2fiTJCJF/cYUYOcj/P8AKvnWHDH5a9D/AGo/ETeIPijqEm7dukIIHTPtXnduGH0zXo0Y2gdtM1bCXYtadm20+7Vk2Qx68fpWpaHGPl447U5HqYc1LZtxXnaM9TWpb8uv1GeetZMM25lwM8dq0rJxuXDHp6Vie1QZqW7YX2z0q9anyiAOBnP1rPtTk/wnaehrQtZcn9B7Csz1qJowN34/Kio4mXjPqAKKyPQjsSf8EzLA6L+0MM4Pn6dcJj1+XP8ATNfU9yzR3Deu/ByBg+tfNf8AwT/lhtv2hdNDFVZra4T3/wBWT/SvpfVY9moSc7j5hGT3yaWJbdS7PxDoNJJmDL+QqSNc7e+OrUiLtbjOB2zipFmJi5B65OKxGPzkbvlZewqzaSBn4GN3t0BqnFJlvl2lfWrEU21+ec9RTRXKfCPx90hdD+M/iG3/AOnpnGT1B5z+tc5ZXEMZ+b9a7X9tiA6b8fNQZN2LqKOXJ/iyMf0rymK4mA3ele1T1gmYysmdPNfqg4/PFfVX/BOvxcuovr2ju3+stSyKT/n/ACK+Kn1aQHHf+Ve8/wDBPLxk2jftA2MDuvl3yNBg8ZyCMfr+lRiI3gSnqfZhTy32/Mvb0HenpuYrgcnoex/Gptbt/sOs3MI/hcj86hVzx/d6HivLKBAfqcZ6Yo3hk6kNjvjHXtQmHJX8fpzTlVWGPm4HXFAHJ/HbRz4i+FWsQquZvIZ4+OjAZ6V+eur+PWQtGzfMpKn2NfppcWa39lNGyjEiEYOea/MX4y+BpvB3xQ1yykVlSO6cx5HVSxI/SvSwUr3TJkc5qeq/bnbr83evS/2OfHEnw9+NOk3nmNGkkoQn8f1rzyx0tWbnBxWvpcJ0y+hlj+Vo3VgR1BFdlRJxsSfqp4iijfU1uo28y3u4w6lffv8AyrNmlUlgW47c5Nc78LfiXb+L/gLod9Ky+fDGInwfT/PWqmoeOYLdGzIgGO7V4Uo2djRHSPeKM/Nn1FV31VD97bt6/WuC1P4n28HyrJuPGcf59qxZ/iBdX0e2GGQ9Occf5NHKXc7jx49r4g8L3lpMyOs8TLjOfXpX5x/ETwpdeFfE93aNGVjjlPllRwVzxX28I9a1xSNxjTvk/dNZt9+ztZ67cGW9XzJD7fKf88104esqe4PU+G7G1umnBijkZs9l716R8PfCniy6ZWtLK6Vc8MVwCPavrbwx+z/oOhx/u7KFW+n9a7Gw8J2dnsMdvGu0DGF6VtLGReyIlA8U8I/CvX9V01Ev5TlgCcnnFdBon7K1rc3ZkvCzluobpXskVkqINi7eO3NXYbfcNuGbpXPKuyeRHCeHvgLoulEeXbplONxUYJrrtP8ACdnpyfuYVHc8c/nW1YaFdXO5Vjbb16da2NP8D3Eo/vFj0Azms3UuaRRyk2nKU2hV6+mKij0pixxHuPqK9O0T4QXl8oKQyNyOduK7LQ/gJNtDyRrD3+fqKnmKseEweGLi6/hx/tVr2Hw+uLh1AVmLcYUV9C6Z8G9N03748w+hUVqQ+GtP0xf3cKbvU+v+c1V2Uo9zwfSvgVdagvzQFQcfNiuk0z9ni3jk3T/Jgg/L16V6o86xjCKAvr0qCW9Zm4b/AOtVamiSRy1l8LdL0fay28bFcZLDNWJtOtbT/VxqFHoOlal67OB64yfasy+xsHJ470nEtFKRlPyqv6VkanJn/wDXWlPJt5JbpWVqEhI9cdKiUdDWLKErbvX8e9Q/LIeQemabPJh/73PPtUZk+fI6Z4P1rPlNbkrTKW44H0ppcbwvdhioQ4Ppz696Tc2Ooz3GKpIUiR51G7Hf+dRNLkHr6VHuLD09QT0NNLYP8Q6EcVXKEQllyOfXgVCX2L1P1x+VDuQTu6fXNQyNk7l9cijlNEyRpMfmMZpgbacdd3t0qIzHPHrnPaml+hyrNnFPlRRKW3f40zzOQoX05HbHSo2JG5QSrse3b2pqtz0CrnH40wJWOWZhz2PNMeTYi/e44pvm5A9eMDrUckpI6/dH60AStIrt8zH/AAqIz8tu56n9KhlkYoAOP5H/ADmgttfLbgByeOvpUsCh4sfdo0u5m6Dkdal8CxeRpWeBu5z/AI+lZPjK5LW6L/fbnHJPGa6Dw6nlaPHxtYqOe5qTOT1NCaTaB83GeMevpUavuHykqy4/LrUUr4Xb972BpkcgYZDN2xgdPbHegC0jb1Hzdxj3qWM7WP3vxHSqobdt6BulSpKHkDAtt6k5oIe5cgbnac+uQOKtBgmGz161Th+Zc8HPPPepRJwfmXoM4oEXYpfkwelYXxQ1waJ4J1G4DhfLgbBHXp2rXjl2r8zfNjHFeW/tceJV0P4R3o3bPOAQHPTqf1xRHWVhx3Pzt+JWqHWvF17cbtxaVjx061k2v3ufzzRqF21zqEsh53OeM+9Otjl9p6+tetFaHVAv23C9uO9X7WTB9Kz7dtw/wPWr0BxjDYOfpUS2PRos1LL5/m3CtSyba2enuBWNaPlfb0rTsW7+34VlI9ahI2LNsY/ixx9a0oDkDO761k2UuE6fUda0LN8Ln9AetYs9ijI1oSAq47daKZC3Tk44orCR6UZaGF+wZ4iaT9qPw1HuO2Z3jbnsUavtHVY2XV5iFVdsjAKOQOTXwR+xFdra/tReDW8zZm+UfjtOP1r798RSbdZucbk/et2561rjafLU0PxKLuisr/e2/wAJAyeR60ImVDFgcjjFN3bfvfn/AI0gcHcMYyecd6472GSpHkBeCD7UkRaPjO3dzwajkbao42/y5zUkbiNcsc9uKEWj5c/bk8P+X8TdNuWjx9osgM4+9tbFeMTWUccbbRjgce1fRf7fNssFj4bvTt3ZlibPccEf1r5hu/Esccf3gG9DXuYXWmjmluUdVtfKl3flXSfs++NV8IfGHQLzftWG8jDE+ma4nUNc+05C/ia6T4NfCDxD8TvEdo2l2c7QR3C+Zc7T5cXOevrx0rapFcjuKO5+qHjxI31RJ49uy8iWbPXr/n9axgcIxPyjtx1pdMtNQuNLsrcpJM9rbxwlsZ6LitXTvh5qGoybpI/KXg8mvn+bU15TGZvm/maZ5mT8qnriu0h+FMNmvmXV0qr3BbHH86W5vfCfhk/vLiGaTpgHdn8KLi5WcrDplzOdqxswbA9a4vxl+xJp3xa1dry9tljuJcbnx1/D6V6Xqfxw020zHZ2ZkLcZOACa568+LusXqnyZIrfJz8if/rrSNSUXdBynzD+2p+wJD8A/hYPF2j3ZkhinSCWAj5vnOARz/Lp+tfNfgnwVrfjK/jhhtZtkhyZGXCiv0R8f6ncfEbQV03WJmvLNW37JOVLD2rC0fwbpuhgfZrOCMR8YCAe9dUcc1Gz3GqR5j8N/CmteFPBkOlw+ZtjG4k8bv6V0tt8O7zUH/wBIupHUDJ+bpXdEhlKqv3RwQKWOLBXa2O2M9K5ZVG3c09mjnbH4dWdmQWXd7tzmty10K1tPuxRkLwCBkVoRWss4AjDNkkZA6fWtK08J3Vyy7Y9oYhmPr+H9KnmYcqM+0toygXZjkdKcbZ5JNqrnBz9K7TQPhpNdqAytJ0+6Oldr4d+BN1eN8tmzehYc/malsk8itNJuLkhYlyyj5gR39K2tI8BXEx/eIwUkEZ71794c/ZykQBrpo0A59xXXaX8I9J0lF8zErKe9VG5Op8+aF8JJZXXy4JH3deM122h/AO8mKk26xhvm+YdfSvabWystPGI4I17Ahanlv9w+VcDgHjpTsx8qOE0L4DWtqqtcOR3IXAxXSWHgHSdHGFhDN6t97FaE1w77fmzz0FRyPuP16ZNXyjFzBAMRptxwOMVBc3JDFV9aSTCDj6c1Unl49M9cU7GiY24nLKQc59qqyNuQjP8A9anOVjz/AI9TVaaQr3wvtVoCC5GFPHbtVcvzTppAG+93xg1Xknw38XpVANu2/dnufTFZepSnGF4b1q+8n3d2M/XrWVqHI+lBoihPIfM/l7Vlag4Gee3pV+eTnk4waztQVdrfdbjAx3rM0iZVxxJ19x7CoPMYv/FlelOupPLZuPwqF2BI98cEdveszVEzS89T+VJ5ny7R6ce1QtPt2gd/8aSQjap+mcnoOaqJVhzS+oHXIJ6UjyBBt3HA6kdjUZkyDwecHFIrbV7nnj1HNUMjlJLn+9jOPaoQzZ2r8w6nHOKUys7n1PPFQO4DZ9R244oAsD5l298c/L09ai3qpA4LDrimSNzu6MRjio1l2p1C9gcf59qC0TNKpXp96o3lYN0ZVxySetRs20Z/AAHjNQPMHcqepGMZ70mMmaVgN27Bx0PQ1G0u723dKgxg4x1OAaGYCPnPXP0oiBN5qtu3cqOOfT/P8qbIcpw3f5j1quHO7vnJOTz+dKLlT91tw68UwZj+Jt0+o26r2OQT+FdTaqqWSc5bA6Ln6f5965G8lFz4jjT7wCg5rqo90duP9oDn0qeUwe5JJIZJPvD8uQaSN1j579ePeoJHULw+7v15z/nFORsEbsfUc5qh7ljzfl9NuCcVNBgH8uvcVVR1bpwOv1qaF2I/XrzWYSL0TN1+XbipYyTGNygDHHr3qmh2r/D0yAKl3yED5sfh+lJ7Elonjb+pr5v/AOCgPic6f4Ghs920uSxx9MD9M/nX0LNceVHu+8xr40/4KJ+J/P8AEENnuy0ca7vY9ePzq8PG8zSB8tgN5jDH41atkwRx1HQ1WjXcSevHHNW4Dx9a9Y6IFy3BzVxOCPzqnbMAnuR6Vahlyy84rNndTZet38vptz71o2bndj+8azLd8N1AyeeKvQS4Udx9KyZ6VGRsWUu5h29a1LOcAj+6Dj8aw7SYKV+vrWrZzlUz3rCR61CRs253BaKr6fcEn2orM9SE9DzH9lO5+x/tEeDpNxXbqsHzDt82K/RPxOi2XiC6jP3lkP055r84v2afMHx68J+WsjbdThdtgyQobLH6AZNfolrd6dR1Oacbi0jn8Rzitcy/iL0PxeOxEZc7stu98+lKjl16r83J560ltp093gLHuJ4GAc5rX074calfBf3QVWwfmOMjNecaXM1pEA+Y544PpRbhmYKoxu7AfrXZWfwiS3h8y7uF28EgcY/HpV7yvDPh2PdLc27yRjoH3EYpXJbPGfi/8C4/jfoMWn3BkXyXLRMq7mDHH5V5Pe/8Endc1nTJpdMvmluAhaOJv4jjgfj719ZXPxe0XTZStnatM3QFUCgD+dJo/wC0dqOm3EptbOGL5Sq7juz1HI/Xiumlipw0RMop6n5LS+GZrDxc2k3C7biG8+xyAdmD7D+tftBB+zv4M/Zw+Gnhuzs2sY4EsIjuKgSPIVBZj3+Y5NfH+n/st+HYvGF1rFxbrc3t5cNcs8hPLsxJ4zgcn6161Pe3WrRQx3F1NcC3UKgdywQAcY+lbYrFKrZIlaHo158atL0+LZZWckxHQgbQPrWDqXxp1jVZQtvFHbr7ck/jXMxQKkX3fmxge9SAeWPlVdrc9ea41uVzBquu6lrPzXF9NJuOMA/0rOOm84YswHGWJya0TA7n5VJbgcCrlrok8y/LGe2D6dv/AK1UHMYKaa0rqR8qq3Pt2q3HaeX8uxsEZ56k11dj4DuLp18xdqsefb/9VdBpfwx3uoaOSTdj8aCuc8yGkTXEg2qzMxyBV3T/AALeXXVWUE46dq9w8N/A+6udvl2nlrxz612mlfAZbZV+1TL0xhe1QPmZ842vwmuptu48nHG3OBW94f8AgjeXLqqwSSLkdsZr6V0z4daTpYU+X5pBzzW7bpbWK7YbeNPYAU+UXPY8O8O/s3XWFZoljX3/AErvfC/7OWn2EfmX0nmOx5Ht6V2wvHJ+XG3PIB6GhpmI5bABwMHpWsYk8zI9N8F6NoKKIbaNtvOWHSrpu1i+WNFUZ9KrRn/OetDMqJ6bueKvlRNySe6kc7ecZ4qrJktz17ZpxfPP/wBao5D5p57GqsBGyd/4Vpd2Dt7nmmbwh6nnvio2m45PpQaIlLfL16c5qNn2j+9zjg0xpRn73zeo9KhY7jnPfH40AOmkwo5UKe1U5n69sVJLJnp09KqyS7lOBjngg0FRIZpt77eMA8VXJwx+Un29akkYE/MeDgj2qu8mOece5rQohlffntVOVyG/2s9R0FWJZdi/ws3v2qrcN9eKAGzTZU7fw71m3jr/AJ71cllOevXsfSs+9PB/iwOaCombcPvJ4/HFZt3Jhsfjmrl3Io3Yx2Oaz7zD59TWZtEzbqTJz7/lVQ/Lu9Wbr6VLfkg4Y9+egqkzbX+Ur17Vmbx2Jmkwcj0/P/P9KZJNjjd2HFR+Z+829+w6U0y5B+VSrd+5NAyRX2Z3fjzTXkAXGc5/Wmuyu393k9OKjebyww+7zwPWq5gGyN8vzfe7DtUUvDf3twxkDoKSZyo/vf3qimky3zfM3GKOYrlFkuNxbAK89KaMN977315pomyOOMcn0FRmTbF6A9h3o5ihzyM7Nu4wOQD+FNaTnONzc4HpUbfujwD3PufSkNz/ALTfWqAlRtg55781C83HHO3kDIGaaJwPv+vWoTJk7c5449qBMkEgK+w/8d+tNZ9g5+YHHy9iOc4quZQFZl5CjA5/xqG5udsRZV46gZ64/wA/pQJmfoD/AG3xJIzfMo6nv9K7KR884O30J6/hXF/DtTNfyz/Lt35JJ611V1IWb368UGJIzZ4+6PQHp+FBkJ2rjB67sZ/z/wDWqAvkHB9O2OOTj/Oaesmedp6jk/jQVEsQy/Mw7en+f89asCQM2G5UjGQKpwnaOxX1xwcVa6L2ZT1JrMJFlZGVew6cnPNSREg53E/yqks2Uz6dOODzz/8Ar9qkiXc+7n1HtQyR17cYHPGfU1+fn7avig+Ifi3dKuGWEhc5znHHH8/xr7x8V6k1hol1KW+ZImOfTjivzX+NOrDV/iBfSru+aTP0/Gt8IveuaxRy8DBz365xirMPJHSq9qCJP61bh4HbFeibwLEIyfmqxD17dKrLyfX61PD19uKzOymXbWT5dq/e49qu2zsijjPc1n27Y46+pq5bvtIxz9KzZ3UpGlaSYI/LFaVrNlQQelY9tLkcbevPtWjaTbcHJbGO9YyPSoyNu1k2qvy/maKrW1xk9ffpRWJ6UKmh9i/B39gHw18AFDRySXmrFdk95KMN2yF/ugkH/Irv30Xw74dI+1XcO+NucvuJP86848Q/ELWvFd7NNcXjRiVidqcKo9B1rP8AIyFZ23Fepz1HNc9SUpvmZ+QrQ9Hvfi/oujI0Wn2bTFRgYUY/P/GsTV/jbrF9lLNVtI+gIUM31rkYmCylV+Xb+X0pwZWQqO56g8H3xUcpXMy5qOvalrZ/0m+uJNx3EZx/KoIrNQB1bdxknOaVJVjAAHHfHvU8VrJMW2K20j0oJbHeQuVO3b05z07VKsioBt+8pwD2xWlp/hO6uhgxsvY+tbmkfDZ2wZO2Mr3qeZAczCNzBl4OMEde/Wr0WjSTnKxyMcg57V6R4c+EE14E8m0ZmzkZBA/Gu/0P9nm9lCvMqwr1PHNDmidTwyx8GXF0MsNvoD/n+lb+kfDJpvvL5gz2U/rX0HovwK0uxRWum8zaeh/lzXS2Hh/SdMjCwWsXb5iopcxVjwrw18FLq/K+TZttbncw6122i/s8SKFa6ljjU4wO4r0z+0vKt1WNVjH+yKilunlxubr696NQMTSvhNoukbWk/fMvJNbEel6dp7fubWJdo64oRNwXNOVVx1+8eeOlWojuOkuGJyowPamyCQH8OKVPcdx2oZh5n9atREMVCxyc/TNTRMFHY7elRhjt42/Nz9aDIrKv9KtKwD3f7voDxSk7iff1qFmyP4t2OadGxC//AFqZBIJMD+LGc04tk/WoYzuHf5u1CvgNkc5we9VzBcczbdv3Txz7VDIxZs9zxSO+fofSo3PH+16mnzFjJnJHt1NRiT6gn1702eTuPrmmFyuf096XMVEUN267ec0S9c/d96jUj5vu+v0prP8AxfNu6Z4qihtx1/pVSeRmX+72AzjmpZTkHp61VkkK4I6L3xQVEhnfOc8FevFVpH3q2OB6VJcNyF7k8/Sqss+3PZadyhlw25T97g8dqqyPnrx0xz1FSTScA87c4PFU5Zt/A4bNPmAJXBblgw9T2qjey54G3HanTXG3k/eHJqndyZTIx8vtQ2XHYz72T5T6E81mX0vGF7c/Wr13Lly2OvrxWddPtDYG7HrWcjWJmXjsztz8rD5hVSVwnp82ABVi6bcG3DuAeOtUmkx830H0FZyNo7DxLuxxznHIzmhep3HP41Gs6quP4unApsz5I68AHr9aEy7FgSKW+Xn0Paq9xJnjI6de1N80HCsP8aimk8ssR6gkDuaotA0mcctketQCf5s/MOMDjg0rttx6YAqJ22ofyFACl1deq/N1z2qN5QoGG6dPf/P9Khln+ZdpPA6HjFIz7f8A4n1HpQBI1w0Yxtxn29ajDh1+830HWjPmgNk7cAj/APVTXba2T83IOauOwmK8u5B93rjdUU8p3j5d3bGeAe/+f8mSeRRLj+HPHpmq+7L8nAHPPamQPccLnA/u/WszxHdCPTLjaVVSuGOfw/n/ACq95u9ThgynHGP5fl+orH8YN5OkhP4i3fHPT/P4UClsXvhxa/Z9P87d98/Ng1vXB7j5Vbsf8/Ws/wAHp9m0iPd2Xd6471anY53Mu4e5578ZpcxAM7Hb054AI5HWnK6hf4jyOSe2aqh23cH5VAPPpU8cm3qByOvr/nilzAWYGyedy4Pc9fSrEL+UfXPPToKqwzZG4Dd0+X9P8/WrEbeW5Jz90DAPQVI7kwZSgz0UYOP4uaFuymMrlenWoTKrH3Ppzx/n+VIJVfLK3PpWY4nLfHjxH/Yfw61W5Y/dt2Vc9yRx/Kvzf8QXv2zWbmQnO6QnrX3V+2Z4hOk/Ce6RTzMQOvDcn+uK+CSN8zM3rzmu/Bx0bNES275J9PbtV2H+YqrAckevSrSH5/8A61drNqZMFwF54BqTd6euBgVGF/yeakQd+B2rM64liNst0+mat27ZIb8sd6pxD9O9T275HT3yKmR105GjA2F/zir9o+XGMc+1ZcD7jkVes5hJ+fasZHfTka0NyQgHXHrRVeKTIB6dODRXO9zvjUsj64TLKWAP+7j+VSJavIR/Ex9f0rtND+GbXMi7UaT+EEDiuz8P/Be6vnAjtyqsOC/GR61wutE/K1do8ns/DNxc4/d8+vrWjp/gGabJZm+YjIA/SvftE/Z8a3jBuJVj5AKqBxXWaL8I9G0nazx+a69z096xlWb2CKPn3w98K5Lh9vktKSdo3D9fwrvPDfwDvbxF8u1SFcgksOteyW9naaeypBbxx/RQKuf2myIqrtwf/wBVRzSYaHB6J8AIbRlN1OvQZVe1dppPgTQ9E24g8xhg/NzTvtBkPLbsVN5m1PrjvSUWHMjQS/S2+WCFE2jA+XkCh9XlkTGSe/WqCxBQu3P1qVWxuK/KRWyiLmLRmZjnLdR26UR7m55+b8qiifd94Y59elP88Hvx19KpC5iaM4X9KVJdqnPSolkG3d7fnQJsjH5YrQOYnM2ccDntQXwvbbgdKhEuf5ZxSq277vTHPFaBzE3nBl9O9NeXJ/2c9ahR/l689B7immXcevy45xQFyYSFTjcuWx+VN3c9frUYn/efyz0o87JHr7CqTKJVOOaeH4/nUBl6f7POcU9ZCpz780+YmRKDx9aZO/zYH41GZGZj9cfWmtNzuOfqB/SnckHfaPzxUcsuEPy8jv6UrSEr6fjVdnLL6fjRc0QjykxDBPpzUZfIP5YFOLhfRd35E1W80qwbd9RS5i0TEso68k8f0pjS4H+I6VCZ9o+99abJIZP9kE9aYxJZtx69u1VpZMFvzPWiWbyy33Q3TI71VkPIJ+oHrTuASz7yW+YfXrVOScbOd3zHmpJpspjrzwT2qjJNs/CrNBs8u1WGT82OO4qjdXDOv8XP6VNNJ0759qqzruPXn8anmYEM0+Ou78T/AEqvdTeXH9enNOml2Z9+Ky7+43en50cxoiOef5m/izxgf1rPuJGeP+npVidtgx26j3rPmmUN19jn1qWzaJSu5fm4+nJ5FUpJOxwvPX1q1dHDZJwPf+VZs829/m+XggE96zNorQkEpxx6cfX60PtQHaMrgfU1Ct2u372VwMEDuO1NaXOPmYAev+fYUGhMDlhkgBflz05qGdiSVDe/1/z/AI0Fht9Pp/n6f55qvLJ5rbd20/p+dADpJNsh54HtURXce2B69/b/AD70m797xgrnj27YpvmHf94nIq+YBrNhvvZ4zwc5olkwV4+78uN3T8fWm+ao+Vtu7GcjjcPWo5JAc8NzzzxTAc0hOW4yBzle1Ip3jHPTOMU0fcAP3VGM44pGdQFZeqjnB61USXcVtrj5mZsHOAaZLJtXgkHOeOMU6V87Tg/KeMdTUMnzjax3bTwBn9aWpICTcN33sdzWL4wuVY28Xqc5PatRkZJQN3y9CM9aw9ek+0axCv3tmBz2ouTLY67SFWPSofUKM4OM+9E75fvuyfw9qjtJlW0VV+7gAdxxTHl+dsDBxkZHQfWkZ8pLv246dMHP9KPM2nsuDwD2qJSrDcR8xP5Uebhh6Hrnpigo0IXKIGDfh2FPWXEjbgfXPTFVUk8xvXHcY6VJ533idx2jg+9TICyk+9csPyp6XA/4FjIHtVQSrtb14PXr/nikluG2Ns+Vicf7JrKUgPm//goF4iMOh2dl5ih2Ysw9Qen9K+RYx8pzxz3r379u/WzfePY7cPjyowGQDp36968DB3t/P3r1cIv3ZsWIV3DpxxirSHkZ6VXgXaOnHerITIya6jopol3j72NvapIwmen3u3pUaLtHT0pyLk/7vNZnREn3cdjzU8RwT0quvtT4sIP9qpkdES7Cxzj3q9aMETnnJ5rOt5eOn4Crdu/mH+tYyOynI07Zlz2bAopLeTCjjdjqAetFYyVzvjLQ/9k=;" vertex="1" parent="1">
          <mxGeometry x="50" y="140" width="123.75" height="165" as="geometry" />
        </mxCell>
      </root>
    </mxGraphModel>
  </diagram>
</mxfile>
